# This file uses centimeters as units for non-parametric coordinates.

mtllib Book.mtl
g default
v -1.518219 -1.755109 0.242801
v 1.518219 -1.755109 0.242801
v -1.518219 1.755109 0.242801
v 1.518219 1.755109 0.242801
v -1.518219 1.755109 -0.242801
v 1.518219 1.755109 -0.242801
v -1.518219 -1.755109 -0.242801
v 1.518219 -1.755109 -0.242801
v 1.518219 -1.755109 0.000000
v 1.518219 1.755109 0.000000
v 1.377128 -1.755109 0.242801
v 1.377128 1.755109 0.242801
v 1.377127 1.755109 0.000000
v 1.377128 1.755109 -0.242801
v 1.377128 -1.755109 -0.242801
v 1.377128 -1.755109 0.000000
v -1.518219 -1.755109 -0.218521
v -1.518219 1.755109 -0.218521
v 1.377128 1.755109 -0.218521
v 1.518219 1.755109 -0.218521
v 1.518219 -1.755109 -0.218521
v 1.377128 -1.755109 -0.218521
v -1.518219 1.755109 0.218521
v -1.518219 -1.755109 0.218521
v 1.377128 -1.755109 0.218521
v 1.518219 -1.755109 0.218521
v 1.518219 1.755109 0.218521
v 1.377128 1.755109 0.218521
v -1.421280 -1.703793 -0.212132
v -1.421280 1.703793 -0.212132
v -1.421280 -1.703793 0.000000
v -1.421280 1.703793 0.000000
v 1.389413 1.703793 0.000000
v 1.389414 1.703793 -0.212132
v 1.389414 -1.703793 -0.212132
v 1.389414 -1.703793 0.000000
v -1.421280 -1.703793 0.212132
v -1.421280 1.703793 0.212132
v 1.389414 -1.703793 0.212132
v 1.389414 1.703793 0.212132
vt 0.358188 0.162960
vt 0.636725 0.165448
vt 0.355801 0.481881
vt 0.632673 0.487285
vt 0.354445 0.534507
vt 0.632480 0.538526
vt 0.347737 0.851705
vt 0.622449 0.861305
vt 0.345620 0.904563
vt 0.621029 0.912112
vt 0.681024 0.165741
vt 0.677051 0.487528
vt 0.297227 0.162707
vt 0.294936 0.481741
vt 0.325415 0.477161
vt 0.363242 0.508397
vt 0.327662 0.167483
vt 0.354693 0.878425
vt 0.625656 0.886880
vt 0.658865 0.165601
vt 0.636474 0.512863
vt 0.654872 0.487400
vt 0.623869 0.165353
vt 0.607893 0.911499
vt 0.619748 0.487462
vt 0.624371 0.512721
vt 0.619590 0.537972
vt 0.609557 0.861218
vt 0.613526 0.886472
vt 0.299444 0.162715
vt 0.347609 0.853914
vt 0.297153 0.481748
vt 0.354459 0.532304
vt 0.619569 0.535747
vt 0.632749 0.536206
vt 0.674834 0.487515
vt 0.622638 0.863586
vt 0.678807 0.165727
vt 0.609428 0.863431
vt 0.353587 0.481877
vt 0.355710 0.484085
vt 0.355968 0.162949
vt 0.345663 0.902346
vt 0.607985 0.909284
vt 0.621289 0.909896
vt 0.638938 0.165464
vt 0.632910 0.489575
vt 0.634894 0.487296
vt 0.619670 0.489684
vt 0.306056 0.477111
vt 0.308283 0.167409
vt 0.619762 0.512654
vt 0.618561 0.531571
vt 0.362947 0.527738
vt 0.355684 0.858906
vt 0.608226 0.867533
vt 0.608911 0.886304
vt 0.347051 0.167569
vt 0.344764 0.477200
vt 0.607107 0.905096
vt 0.354120 0.897860
vt 0.363933 0.488942
vt 0.618581 0.493831
vn 0.000000 0.000000 1.000000
vn 0.000000 0.000000 1.000000
vn 0.000000 0.000000 1.000000
vn 0.000000 0.000000 1.000000
vn 0.000000 1.000000 0.000000
vn 0.000000 1.000000 0.000000
vn 0.000000 1.000000 0.000000
vn 0.000000 1.000000 0.000000
vn 0.000000 0.000000 -1.000000
vn 0.000000 0.000000 -1.000000
vn 0.000000 0.000000 -1.000000
vn 0.000000 0.000000 -1.000000
vn 0.000000 -1.000000 0.000000
vn 0.000000 -1.000000 0.000000
vn 0.000000 -1.000000 0.000000
vn 0.000000 -1.000000 0.000000
vn 1.000000 0.000000 0.000000
vn 1.000000 0.000000 0.000000
vn 1.000000 0.000000 0.000000
vn 1.000000 0.000000 0.000000
vn -1.000000 0.000000 0.000000
vn -1.000000 0.000000 0.000000
vn -1.000000 0.000000 0.000000
vn -1.000000 0.000000 0.000000
vn -1.000000 0.000000 0.000000
vn -1.000000 0.000000 0.000000
vn -1.000000 0.000000 0.000000
vn -1.000000 0.000000 0.000000
vn 0.000000 -1.000000 0.000000
vn 0.000000 -1.000000 0.000000
vn 0.000000 -1.000000 0.000000
vn 0.000000 -1.000000 0.000000
vn 1.000000 0.000000 0.000000
vn 1.000000 0.000000 0.000000
vn 1.000000 0.000000 0.000000
vn 1.000000 0.000000 0.000000
vn 0.000000 1.000000 0.000000
vn 0.000000 1.000000 0.000000
vn 0.000000 1.000000 0.000000
vn 0.000000 1.000000 0.000000
vn 0.000000 0.000000 1.000000
vn 0.000000 0.000000 1.000000
vn 0.000000 1.000000 0.000000
vn 0.000000 1.000000 0.000000
vn 0.000000 1.000000 0.000000
vn 0.000000 1.000000 0.000000
vn 0.000000 0.000000 -1.000000
vn 0.000000 0.000000 -1.000000
vn 0.000000 -1.000000 0.000000
vn 0.000000 -1.000000 0.000000
vn 0.000000 -1.000000 0.000000
vn 0.000000 -1.000000 0.000000
vn -1.000000 0.000000 0.000000
vn -1.000000 0.000000 0.000000
vn -1.000000 0.000000 0.000000
vn -1.000000 0.000000 0.000000
vn 0.000000 1.000000 0.000000
vn 0.000000 1.000000 0.000000
vn 0.000000 1.000000 0.000000
vn 0.000000 1.000000 0.000000
vn 0.000000 1.000000 0.000000
vn 0.000000 1.000000 0.000000
vn 1.000000 0.000000 0.000000
vn 1.000000 0.000000 0.000000
vn 0.000000 -1.000000 0.000000
vn 0.000000 -1.000000 0.000000
vn 0.000000 -1.000000 0.000000
vn 0.000000 -1.000000 0.000000
vn 0.000000 -1.000000 0.000000
vn 0.000000 -1.000000 0.000000
vn -1.000000 0.000000 0.000000
vn -1.000000 0.000000 0.000000
vn 0.000000 -1.000000 0.000000
vn 0.000000 -1.000000 0.000000
vn 0.000000 1.000000 0.000000
vn 0.000000 1.000000 0.000000
vn -0.065765 0.000000 0.997835
vn -0.065765 0.000000 0.997835
vn -0.065765 0.000000 0.997835
vn -0.065765 0.000000 0.997835
vn -0.972515 -0.232841 -0.000006
vn -0.972515 -0.232841 -0.000006
vn -0.972515 -0.232841 -0.000006
vn -0.972515 -0.232841 -0.000006
vn 0.000000 0.123552 0.992338
vn 0.000000 0.123552 0.992338
vn 0.000000 0.123552 0.992338
vn 0.000000 0.123552 0.992338
vn 0.000000 -0.123552 0.992338
vn 0.000000 -0.123552 0.992338
vn 0.000000 -0.123552 0.992338
vn 0.000000 -0.123552 0.992338
vn -0.972515 0.232841 0.000000
vn -0.972515 0.232841 0.000000
vn -0.972515 0.232841 0.000000
vn -0.972515 0.232841 0.000000
vn -0.065765 0.000000 -0.997835
vn -0.065765 0.000000 -0.997835
vn -0.065765 0.000000 -0.997835
vn -0.065765 0.000000 -0.997835
vn -0.972515 0.232841 0.000000
vn -0.972515 0.232841 0.000000
vn -0.972515 0.232841 0.000000
vn -0.972515 0.232841 0.000000
vn 0.000000 -0.123552 -0.992338
vn 0.000000 -0.123552 -0.992338
vn 0.000000 -0.123552 -0.992338
vn 0.000000 -0.123552 -0.992338
vn 0.000000 0.123552 -0.992338
vn 0.000000 0.123552 -0.992338
vn 0.000000 0.123552 -0.992338
vn 0.000000 0.123552 -0.992338
vn -0.972515 -0.232841 0.000005
vn -0.972515 -0.232841 0.000005
vn -0.972515 -0.232841 0.000005
vn -0.972515 -0.232841 0.000005
s 1
g Book
usemtl initialShadingGroup
f 1/1/1 11/23/2 12/25/3 3/3/4
s 2
f 3/3/5 12/25/6 28/49/7 23/41/8
s 3
f 5/5/9 14/27/10 15/28/11 7/7/12
s 4
f 24/43/13 25/44/14 11/24/15 1/9/16
s 5
f 2/2/17 26/46/18 27/48/19 4/4/20
s off
f 23/40/21 24/42/22 1/1/23 3/3/24
f 7/13/25 17/30/26 18/32/27 5/14/28
s 4
f 7/7/29 15/28/30 22/39/31 17/31/32
s 5
f 20/36/33 21/38/34 8/11/35 6/12/36
s 2
f 18/33/37 19/34/38 14/27/39 5/5/40
s 1
f 12/25/3 11/23/2 2/2/41 4/4/42
s 2
f 27/47/43 28/49/7 12/25/6 4/4/44
f 14/27/39 19/34/38 20/35/45 6/6/46
s 3
f 15/28/11 14/27/10 6/6/47 8/8/48
s 4
f 21/37/49 22/39/31 15/28/30 8/8/50
f 11/24/15 25/44/14 26/45/51 2/10/52
s 9
f 30/50/53 29/51/54 31/17/55 32/15/56
s 10
f 32/16/57 33/52/58 34/53/59 30/54/60
s 2
f 20/35/45 19/34/38 13/26/61 10/21/62
s 5
f 10/22/63 9/20/64 21/38/34 20/36/33
s 4
f 16/29/65 22/39/31 21/37/49 9/19/66
s 11
f 29/55/67 35/56/68 36/57/69 31/18/70
s 9
f 32/15/56 31/17/55 37/58/71 38/59/72
s 11
f 31/18/70 36/57/69 39/60/73 37/61/74
s 4
f 26/45/51 25/44/14 16/29/65 9/19/66
s 5
f 27/48/19 26/46/18 9/20/64 10/22/63
s 2
f 13/26/61 28/49/7 27/47/43 10/21/62
s 10
f 38/62/75 40/63/76 33/52/58 32/16/57
s off
f 18/32/77 17/30/78 29/51/79 30/50/80
f 13/26/81 19/34/82 34/53/83 33/52/84
f 19/34/85 18/33/86 30/54/87 34/53/88
f 17/31/89 22/39/90 35/56/91 29/55/92
f 22/39/93 16/29/94 36/57/95 35/56/96
f 24/42/97 23/40/98 38/59/99 37/58/100
f 16/29/101 25/44/102 39/60/103 36/57/104
f 25/44/105 24/43/106 37/61/107 39/60/108
f 23/41/109 28/49/110 40/63/111 38/62/112
f 28/49/113 13/26/114 33/52/115 40/63/116
