# This file uses centimeters as units for non-parametric coordinates.

mtllib Box 1.mtl
g default
v 0.392175 0.402663 1.449832
v 1.392175 0.402663 1.449832
v 0.392175 1.402663 1.449832
v 1.392175 1.402663 1.449832
v 0.392175 1.402663 0.449832
v 1.392175 1.402663 0.449832
v 0.392175 0.402663 0.449832
v 1.392175 0.402663 0.449832
v 0.392175 0.402663 1.449832
v 1.392175 0.402663 1.449832
v 1.392175 1.402663 1.449832
v 0.392175 1.402663 1.449832
v 0.392175 1.402663 0.449832
v 1.392175 1.402663 0.449832
v 1.392175 0.402663 0.449832
v 0.392175 0.402663 0.449832
v 1.427253 0.402663 1.482104
v 1.427253 0.402663 1.484910
v 1.424447 0.402663 1.484910
v 1.425850 0.402663 1.483507
v 1.427253 1.402663 1.482104
v 1.425850 1.402663 1.483507
v 1.424447 1.402663 1.484910
v 1.427253 1.402663 1.484910
v 0.357096 0.402663 1.482104
v 0.358499 0.402663 1.483507
v 0.359902 0.402663 1.484910
v 0.357096 0.402663 1.484910
v 0.357096 1.402663 1.482104
v 0.357096 1.402663 1.484910
v 0.359902 1.402663 1.484910
v 0.358499 1.402663 1.483507
v 1.427253 1.402663 0.417560
v 1.427253 1.402663 0.414754
v 1.424447 1.402663 0.414754
v 1.425850 1.402663 0.416157
v 1.427253 0.402663 0.417560
v 1.425850 0.402663 0.416157
v 1.424447 0.402663 0.414754
v 1.427253 0.402663 0.414754
v 0.357096 1.402663 0.417560
v 0.358499 1.402663 0.416157
v 0.359902 1.402663 0.414754
v 0.357096 1.402663 0.414754
v 0.357096 0.402663 0.417560
v 0.357096 0.402663 0.414754
v 0.359902 0.402663 0.414754
v 0.358499 0.402663 0.416157
v 0.392175 1.452893 1.449832
v 1.392175 1.452893 1.449832
v 0.358499 1.452893 1.483507
v 0.359902 1.452893 1.484910
v 1.424447 1.452893 1.484910
v 1.425850 1.452893 1.483507
v 0.392175 1.452893 0.449832
v 1.392175 1.452893 0.449832
v 1.425850 1.452893 0.416157
v 1.424447 1.452893 0.414754
v 0.359902 1.452893 0.414754
v 0.358499 1.452893 0.416157
v 1.427253 1.452893 1.482104
v 1.427253 1.452893 0.417560
v 0.357096 1.452893 0.417560
v 0.357096 1.452893 1.482104
v 0.992175 1.618916 1.449832
v 0.992175 1.618916 0.449832
v 0.992175 1.669145 1.449832
v 0.992175 1.669145 0.449832
v 0.792175 1.618916 1.449832
v 0.792175 1.618916 0.449832
v 0.792175 1.669145 0.449832
v 0.792175 1.669145 1.449832
v 0.392175 1.775499 1.719737
v 1.392175 1.775499 1.719737
v 0.358499 1.775499 1.753412
v 0.359902 1.775499 1.754815
v 1.424447 1.775499 1.754815
v 1.425850 1.775499 1.753412
v 0.392175 1.775499 0.149386
v 1.392175 1.775499 0.149386
v 1.425850 1.775499 0.115711
v 1.424447 1.775499 0.114308
v 0.359902 1.775499 0.114308
v 0.358499 1.775499 0.115711
vt 0.375000 0.250000
vt 0.625000 0.250000
vt 0.375000 0.500000
vt 0.625000 0.500000
vt 0.625000 0.750000
vt 0.375000 1.000000
vt 0.625000 1.000000
vt 0.875000 0.250000
vt 0.125000 0.250000
vt 0.375000 0.000000
vt 0.625000 0.000000
vt 0.625000 0.250000
vt 0.375000 0.250000
vt 0.375000 0.500000
vt 0.625000 0.500000
vt 0.625000 0.750000
vt 0.375000 0.750000
vt 0.625000 1.000000
vt 0.375000 1.000000
vt 0.875000 0.000000
vt 0.875000 0.250000
vt 0.125000 0.000000
vt 0.125000 0.250000
vt 0.375000 0.500000
vt 0.875000 0.250000
vt 0.625000 0.000000
vt 0.375000 0.250000
vt 0.625000 0.250000
vt 0.875000 0.250000
vt 0.875000 0.000000
vt 0.125000 0.250000
vt 0.625000 0.500000
vt 0.375000 0.500000
vt 0.125000 0.000000
vt 0.375000 0.000000
vt 0.125000 0.000000
vt 0.375000 0.750000
vt 0.625000 0.750000
vt 0.624345 -0.000000
vt 0.625655 0.250000
vt 0.374345 -0.000000
vt 0.375655 0.250000
vt 0.624345 0.500000
vt 0.874345 -0.000000
vt 0.125655 0.250000
vt 0.375655 0.750000
vt 0.625655 -0.000000
vt 0.625000 0.000000
vt 0.624344 0.250000
vt 0.625000 0.250000
vt 0.375656 -0.000000
vt 0.375000 0.000000
vt 0.374344 0.250000
vt 0.375000 0.250000
vt 0.874345 0.250000
vt 0.625000 0.500000
vt 0.624344 0.750000
vt 0.875000 0.000000
vt 0.375656 0.500000
vt 0.125000 0.250000
vt 0.125655 -0.000000
vt 0.375000 0.750000
vt 0.625000 0.000000
vt 0.625000 0.250000
vt 0.375000 0.000000
vt 0.375000 0.250000
vt 0.625000 0.500000
vt 0.875000 0.250000
vt 0.875000 0.000000
vt 0.625000 0.750000
vt 0.125000 0.250000
vt 0.375000 0.500000
vt 0.375000 0.750000
vt 0.125000 0.000000
vt 0.625000 0.250000
vt 0.375000 0.250000
vt 0.375000 0.250000
vt 0.375655 0.250000
vt 0.624344 0.250000
vt 0.625000 0.250000
vt 0.375000 0.500000
vt 0.625000 0.500000
vt 0.625000 0.500000
vt 0.624345 0.500000
vt 0.375656 0.500000
vt 0.375000 0.500000
vt 0.875000 0.250000
vt 0.625655 0.250000
vt 0.874345 0.250000
vt 0.875000 0.250000
vt 0.125000 0.250000
vt 0.125000 0.250000
vt 0.125655 0.250000
vt 0.374344 0.250000
vt 0.875000 0.250000
vt 0.625000 0.250000
vt 0.625000 0.250000
vt 0.875000 0.250000
vt 0.375000 0.250000
vt 0.125000 0.250000
vt 0.125000 0.250000
vt 0.375000 0.250000
vt 0.625000 0.250000
vt 0.375000 0.250000
vt 0.375000 0.250000
vt 0.375655 0.250000
vt 0.624344 0.250000
vt 0.625000 0.250000
vt 0.375000 0.500000
vt 0.625000 0.500000
vt 0.625000 0.500000
vt 0.624345 0.500000
vt 0.375656 0.500000
vt 0.375000 0.500000
vn 0.000000 0.000000 1.000000
vn 0.000000 0.000000 1.000000
vn 0.000000 0.000000 1.000000
vn 0.000000 0.000000 1.000000
vn 0.000000 0.000000 -1.000000
vn 0.000000 0.000000 -1.000000
vn 0.000000 0.000000 -1.000000
vn 0.000000 0.000000 -1.000000
vn 0.000000 -1.000000 0.000000
vn 0.000000 -1.000000 0.000000
vn 0.000000 -1.000000 -0.000000
vn 0.000000 -1.000000 -0.000000
vn 1.000000 0.000000 0.000000
vn 1.000000 0.000000 0.000000
vn 1.000000 0.000000 0.000000
vn 1.000000 0.000000 0.000000
vn -1.000000 0.000000 0.000000
vn -1.000000 0.000000 0.000000
vn -1.000000 0.000000 0.000000
vn -1.000000 0.000000 0.000000
vn 0.000000 0.000000 -1.000000
vn 0.000000 0.000000 -1.000000
vn 0.000000 0.000000 -1.000000
vn 0.000000 0.000000 -1.000000
vn 0.000000 0.000000 1.000000
vn 0.000000 0.000000 1.000000
vn 0.000000 0.000000 1.000000
vn 0.000000 0.000000 1.000000
vn 0.000000 1.000000 0.000000
vn 0.000000 1.000000 0.000000
vn 0.000000 1.000000 0.000000
vn 0.000000 1.000000 0.000000
vn -1.000000 0.000000 0.000000
vn -1.000000 0.000000 0.000000
vn -1.000000 0.000000 0.000000
vn -1.000000 0.000000 0.000000
vn 1.000000 0.000000 0.000000
vn 1.000000 0.000000 0.000000
vn 1.000000 0.000000 0.000000
vn 1.000000 0.000000 0.000000
vn 0.000000 0.000000 0.000000
vn 0.000000 0.000000 0.000000
vn 0.000000 0.000000 0.000000
vn 0.000000 0.000000 0.000000
vn 0.000000 0.000000 0.000000
vn 0.000000 0.000000 0.000000
vn 0.000000 0.000000 0.000000
vn 0.000000 0.000000 0.000000
vn 0.000000 0.000000 0.000000
vn 0.000000 0.000000 0.000000
vn 0.000000 0.000000 0.000000
vn 0.000000 0.000000 0.000000
vn 0.000000 0.000000 0.000000
vn 0.000000 0.000000 0.000000
vn 0.000000 0.000000 0.000000
vn 0.000000 0.000000 0.000000
vn 0.000000 -1.000000 -0.000000
vn 0.000000 -1.000000 -0.000001
vn 0.000000 -1.000000 -0.000001
vn 0.000000 -1.000000 -0.000000
vn 0.000000 1.000000 -0.000001
vn 0.000000 1.000000 -0.000001
vn 0.000000 1.000000 -0.000001
vn 0.000000 1.000000 -0.000001
vn 0.000000 1.000000 -0.000001
vn 0.000000 1.000000 -0.000001
vn 0.000000 1.000000 0.000001
vn 0.000000 1.000000 0.000001
vn 0.000000 1.000000 0.000001
vn 0.000000 1.000000 0.000001
vn 0.000000 1.000000 0.000001
vn 0.000000 1.000000 0.000001
vn 0.000000 -1.000000 0.000000
vn 0.000000 -1.000000 0.000001
vn 0.000000 -1.000000 0.000001
vn 0.000000 -1.000000 0.000000
vn 0.000000 -1.000000 0.000000
vn 0.000000 -1.000000 0.000000
vn 0.429681 0.902981 0.000000
vn 0.429681 0.902981 0.000000
vn 0.000000 1.000000 0.000000
vn 0.000000 1.000000 0.000000
vn 0.000000 1.000000 0.000000
vn 0.000000 1.000000 0.000000
vn 0.000000 -1.000000 0.000000
vn 0.000000 -1.000000 0.000000
vn -0.429681 0.902981 0.000000
vn -0.429681 0.902981 0.000000
vn 0.000000 1.000000 0.000000
vn 0.000000 1.000000 0.000000
vn 0.000000 1.000000 0.000000
vn 0.000000 1.000000 0.000000
vn 0.000000 0.000000 1.000000
vn 0.000000 0.000000 1.000000
vn 1.000000 0.000000 0.000000
vn 1.000000 0.000000 0.000000
vn -1.000000 0.000000 0.000000
vn -1.000000 0.000000 0.000000
vn 0.000000 0.000000 1.000000
vn 0.000000 0.000000 1.000000
vn 0.000000 0.000000 -1.000000
vn 0.000000 0.000000 -1.000000
vn 1.000000 0.000000 0.000000
vn 1.000000 0.000000 0.000000
vn -1.000000 0.000000 0.000000
vn -1.000000 0.000000 0.000000
vn 0.000000 0.000000 -1.000000
vn 0.000000 0.000000 -1.000000
vn 0.000000 -1.000000 0.000000
vn 0.000000 1.000000 0.000000
vn 0.000000 1.000000 0.000000
vn 0.000000 1.000000 0.000000
vn 0.000000 1.000000 0.000000
vn 0.000000 -1.000000 0.000000
vn 0.000000 1.000000 0.000000
vn 0.000000 1.000000 0.000000
vn 0.000000 1.000000 0.000000
vn 0.000000 1.000000 0.000000
vn 0.000000 1.000000 0.000000
vn 0.000000 1.000000 0.000000
vn 0.000000 1.000000 0.000000
vn 0.000000 1.000000 0.000000
vn 0.000000 -1.000000 0.000000
vn 0.000000 1.000000 0.000000
vn 0.000000 1.000000 0.000000
vn 0.000000 1.000000 0.000000
vn 0.000000 1.000000 0.000000
vn 0.000000 -1.000000 0.000000
vn 0.000000 -0.000001 -1.000000
vn 0.000000 -0.000001 -1.000000
vn 0.000000 0.586396 -0.810025
vn 0.000000 0.586396 -0.810025
vn -0.707096 0.000001 0.707118
vn -0.707100 0.000001 0.707113
vn -0.625212 -0.467139 0.625213
vn -0.654364 -0.378955 0.654371
vn 0.000000 -0.586396 0.810025
vn 0.000000 -0.586396 0.810025
vn 0.707100 0.000001 0.707113
vn 0.707096 0.000001 0.707118
vn 0.654364 -0.378956 0.654371
vn 0.625211 -0.467139 0.625213
vn 0.000000 -0.000001 1.000000
vn 0.000000 -0.000001 1.000000
vn 0.000000 0.627464 0.778646
vn 0.000000 0.627464 0.778646
vn 0.707096 0.000001 -0.707118
vn 0.707100 0.000001 -0.707113
vn 0.609251 -0.507545 -0.609271
vn 0.644413 -0.411626 -0.644434
vn 0.000000 -0.627464 -0.778646
vn 0.000000 -0.627464 -0.778646
vn -0.707100 0.000001 -0.707113
vn -0.707096 0.000001 -0.707118
vn -0.644413 -0.411626 -0.644434
vn -0.609251 -0.507545 -0.609271
vn -1.000000 -0.000000 0.000000
vn -1.000000 -0.000000 0.000000
vn -1.000000 -0.000000 0.000000
vn -1.000000 -0.000000 0.000000
vn 0.707091 0.000001 0.707123
vn 0.707091 0.000001 0.707123
vn 1.000000 0.000000 0.000000
vn 1.000000 0.000000 0.000000
vn 0.707091 0.000001 -0.707123
vn 0.707091 0.000001 -0.707123
vn 1.000000 -0.000000 0.000000
vn 1.000000 -0.000000 0.000000
vn 1.000000 -0.000000 0.000000
vn 1.000000 -0.000000 0.000000
vn -0.707091 0.000001 -0.707123
vn -0.707091 0.000001 -0.707123
vn -1.000000 0.000000 0.000000
vn -1.000000 0.000000 0.000000
vn -0.707091 0.000001 0.707123
vn -0.707091 0.000001 0.707123
vn -0.475579 -0.879673 0.000000
vn -0.475579 -0.879673 0.000000
vn -0.475579 -0.879673 0.000000
vn -0.475579 -0.879673 0.000000
vn 0.000001 0.000001 1.000000
vn 0.000001 0.000001 1.000000
vn 0.000001 0.000001 1.000000
vn 0.000001 0.000001 1.000000
vn 0.475578 0.879673 0.000000
vn 0.475578 0.879673 0.000000
vn 0.000001 0.000001 -1.000000
vn 0.000001 0.000001 -1.000000
vn 0.000001 0.000001 -1.000000
vn 0.000001 0.000001 -1.000000
vn 0.475579 -0.879673 0.000000
vn 0.475579 -0.879673 0.000000
vn 0.475579 -0.879673 0.000000
vn 0.475579 -0.879673 0.000000
vn -0.000001 0.000001 -1.000000
vn -0.000001 0.000001 -1.000000
vn -0.000001 0.000001 -1.000000
vn -0.000001 0.000001 -1.000000
vn -0.475578 0.879673 0.000000
vn -0.475578 0.879673 0.000000
vn -0.000001 0.000001 1.000000
vn -0.000001 0.000001 1.000000
vn -0.000001 0.000001 1.000000
vn -0.000001 0.000001 1.000000
vn 0.000000 0.641679 -0.766973
vn 0.000000 0.641679 -0.766973
vn -0.608584 0.509165 -0.608585
vn -0.608584 0.509165 -0.608585
vn -0.608584 0.509165 -0.608585
vn -0.608584 0.509165 -0.608585
vn -0.608579 -0.509179 0.608579
vn -0.608579 -0.509179 0.608579
vn 0.000000 -0.641679 0.766973
vn 0.000000 -0.641679 0.766973
vn 0.608579 -0.509179 0.608579
vn 0.608579 -0.509179 0.608579
vn 0.608584 0.509165 -0.608585
vn 0.608584 0.509165 -0.608585
vn 0.608584 0.509165 -0.608585
vn 0.608584 0.509165 -0.608585
vn 0.000000 0.681526 0.731794
vn 0.000000 0.681526 0.731794
vn 0.590555 0.549989 0.590556
vn 0.590555 0.549989 0.590556
vn 0.590555 0.549989 0.590556
vn 0.590555 0.549989 0.590556
vn 0.590546 -0.549988 -0.590566
vn 0.590546 -0.549988 -0.590566
vn 0.000000 -0.681526 -0.731794
vn 0.000000 -0.681526 -0.731794
vn -0.590546 -0.549988 -0.590566
vn -0.590546 -0.549988 -0.590566
vn -0.590555 0.549989 0.590556
vn -0.590555 0.549989 0.590556
vn -0.590555 0.549989 0.590556
vn -0.590555 0.549989 0.590556
s 1
g Box_1
usemtl initialShadingGroup
f 31/42/1 27/51/2 19/39/3 23/49/4
s 2
f 47/46/5 43/59/6 35/43/7 39/57/8
s 3
f 16/37/9 15/5/10 10/7/11 9/6/12
s 4
f 21/40/13 17/47/14 37/44/15 33/55/16
s 5
f 41/45/17 45/61/18 25/41/19 29/53/20
s off
f 1/10/21 3/13/22 4/12/23 2/11/24
f 5/14/25 7/17/26 8/16/27 6/15/28
f 7/17/29 1/19/30 2/18/31 8/16/32
f 2/11/33 4/12/34 6/21/35 8/20/36
f 7/22/37 5/23/38 3/13/39 1/10/40
f 4/2/41 3/1/42 12/27/43 11/28/44
f 5/3/45 6/4/46 14/32/47 13/24/48
f 6/8/49 4/2/50 11/28/51 14/25/52
f 3/1/53 5/9/54 13/31/55 12/27/56
s 3
f 9/35/12 10/26/11 20/48/57 19/39/58 27/51/59 26/52/60
s off
f 74/103/61 73/104/62 75/105/63 76/106/64 77/107/65 78/108/66
f 79/109/67 80/110/68 81/111/69 82/112/70 83/113/71 84/114/72
s 3
f 15/5/10 16/37/9 48/62/73 47/46/74 39/57/75 38/38/76
f 10/26/11 15/30/10 38/58/76 37/44/77 17/47/78 20/48/57
s 6
f 56/87/79 50/75/80 54/80/81 61/88/82 62/89/83 57/90/84
s 3
f 16/34/9 9/35/12 26/52/60 25/41/85 45/61/86 48/36/73
s 7
f 49/76/87 55/91/88 60/92/89 63/93/90 64/94/91 51/77/92
s 1
f 19/39/3 18/63/93 24/64/94 23/49/4
s 4
f 18/63/95 17/47/14 21/40/13 24/64/96
s 5
f 25/41/19 28/65/97 30/66/98 29/53/20
s 1
f 28/65/99 27/51/2 31/42/1 30/66/100
s 2
f 35/43/7 34/67/101 40/70/102 39/57/8
s 4
f 34/68/103 33/55/16 37/44/15 40/69/104
s 5
f 41/45/17 44/71/105 46/74/106 45/61/18
s 2
f 44/72/107 43/59/6 47/46/5 46/73/108
s 3
f 20/48/57 17/47/78 18/63/109
f 20/48/57 18/63/109 19/39/58
s 8
f 22/50/110 23/49/111 24/64/112
f 22/50/110 24/64/112 21/40/113
s 3
f 26/52/60 27/51/59 28/65/114
f 26/52/60 28/65/114 25/41/85
s 9
f 32/54/115 29/53/116 30/66/117
f 32/54/115 30/66/117 31/42/118
s 10
f 36/29/119 33/55/120 34/68/121
f 36/56/119 34/67/121 35/43/122
s 3
f 38/38/76 39/57/75 40/70/123
f 38/58/76 40/69/123 37/44/77
s 11
f 42/33/124 43/59/125 44/72/126
f 42/60/124 44/71/126 41/45/127
s 3
f 48/36/73 45/61/86 46/74/128
f 48/62/73 46/73/128 47/46/74
s 12
f 11/28/129 12/27/130 49/76/131 50/75/132
s 13
f 32/54/133 31/42/134 52/78/135 51/77/136
s 1
f 31/42/1 23/49/4 53/79/137 52/78/138
s 14
f 23/49/139 22/50/140 54/80/141 53/79/142
s 15
f 13/24/143 14/32/144 56/82/145 55/81/146
s 16
f 36/56/147 35/43/148 58/84/149 57/83/150
s 2
f 35/43/7 43/59/6 59/85/151 58/84/152
s 17
f 43/59/153 42/33/154 60/86/155 59/85/156
s off
f 66/95/157 65/96/158 67/97/159 68/98/160
s 14
f 22/50/140 21/40/161 61/88/162 54/80/141
s 4
f 21/40/13 33/55/16 62/89/163 61/88/164
s 16
f 33/55/165 36/29/147 57/90/150 62/89/166
s off
f 69/99/167 70/100/168 71/101/169 72/102/170
s 17
f 42/60/154 41/45/171 63/93/172 60/92/155
s 5
f 41/45/17 29/53/20 64/94/173 63/93/174
s 13
f 29/53/175 32/54/133 51/77/136 64/94/176
s off
f 14/25/177 11/28/178 65/96/179 66/95/180
f 11/28/181 50/75/182 67/97/183 65/96/184
s 6
f 50/75/80 56/87/79 68/98/185 67/97/186
s off
f 56/87/187 14/25/188 66/95/189 68/98/190
f 12/27/191 13/31/192 70/100/193 69/99/194
f 13/31/195 55/91/196 71/101/197 70/100/198
s 7
f 55/91/88 49/76/87 72/102/199 71/101/200
s off
f 49/76/201 12/27/202 69/99/203 72/102/204
s 12
f 50/75/132 49/76/131 73/104/205 74/103/206
s off
f 49/76/207 51/77/208 75/105/209 73/104/210
s 13
f 51/77/136 52/78/135 76/106/211 75/105/212
s 1
f 52/78/138 53/79/137 77/107/213 76/106/214
s 14
f 53/79/142 54/80/141 78/108/215 77/107/216
s off
f 54/80/217 50/75/218 74/103/219 78/108/220
s 15
f 55/81/146 56/82/145 80/110/221 79/109/222
s off
f 56/82/223 57/83/224 81/111/225 80/110/226
s 16
f 57/83/150 58/84/149 82/112/227 81/111/228
s 2
f 58/84/152 59/85/151 83/113/229 82/112/230
s 17
f 59/85/156 60/86/155 84/114/231 83/113/232
s off
f 60/86/233 55/81/234 79/109/235 84/114/236
