# This file uses meters as units for non-parametric coordinates.

mtllib Caution.mtl
g default
v -126.725958 5.243180 10.077454
v 126.725958 5.243180 10.077454
v -71.373694 84.166793 10.077454
v 71.373694 84.166793 10.077454
v -71.373694 84.166793 -10.077454
v 71.373694 84.166793 -10.077454
v -126.725958 5.243180 -10.077454
v 126.725958 5.243180 -10.077454
v 0.000000 5.243180 10.077454
v 0.000000 185.827155 10.077454
v 0.000000 185.827155 -10.077454
v 0.000000 5.243180 -10.077454
v -73.387931 83.845945 0.000000
v -130.302305 2.695039 0.000000
v 0.000000 2.695039 0.000000
v 130.302305 2.695039 0.000000
v 73.387931 83.845945 0.000000
v 0.000000 188.375297 0.000000
v -121.190725 13.135545 10.077454
v -124.610866 10.810125 0.000000
v -121.190725 13.135545 -10.077454
v 0.000000 13.910113 -10.077454
v 121.190725 13.135545 -10.077454
v 124.610866 10.810125 0.000000
v 121.190725 13.135545 10.077454
v 0.000000 13.035949 10.077454
v 114.053357 5.243180 10.077454
v 105.063846 13.089240 10.077454
v 64.236320 94.332826 10.077454
v 66.049141 94.298899 0.000000
v 64.236320 94.332826 -10.077454
v 103.760530 14.152138 -10.077454
v 114.053357 5.243180 -10.077454
v 117.272076 2.695039 0.000000
v -114.053357 5.243180 10.077454
v -105.581244 13.089240 10.077454
v -64.236320 94.332826 10.077454
v -66.049141 94.298899 0.000000
v -64.236320 94.332826 -10.077454
v -104.385302 14.152155 -10.077454
v -114.053357 5.243180 -10.077454
v -117.272076 2.695039 0.000000
v -76.355399 77.063656 -10.077454
v -78.510229 76.542373 0.000000
v -76.355399 77.063656 10.077454
v -56.630838 86.208473 10.077454
v 0.000000 168.511686 10.077454
v 56.947187 86.208473 10.077454
v 76.355399 77.063656 10.077454
v 78.510229 76.542373 0.000000
v 76.355399 77.063656 -10.077454
v 55.107935 86.314758 -10.077454
v 0.000000 169.574585 -10.077454
v -52.892893 86.314758 -10.077454
vt 0.342640 0.822576
vt 0.330029 0.824701
vt 0.320283 0.818314
vt 0.335808 0.815650
vt 0.652683 0.745558
vt 0.632671 0.746795
vt 0.644170 0.736170
vt 0.659262 0.736150
vt 0.731048 0.779010
vt 0.688679 0.654746
vt 0.696100 0.658621
vt 0.740497 0.775577
vt 0.797685 0.848763
vt 0.866328 0.747464
vt 0.103043 0.862950
vt 0.875379 0.752188
vt 0.110673 0.853635
vt 0.215229 0.836071
vt 0.216536 0.843825
vt 0.798118 0.855960
vt 0.916324 0.629450
vt 0.910175 0.633213
vt 0.817430 0.628169
vt 0.814839 0.618455
vt 0.796830 0.837859
vt 0.749409 0.769018
vt 0.856428 0.742296
vt 0.900743 0.638749
vt 0.817149 0.639230
vt 0.705033 0.663285
vt 0.791411 0.848265
vt 0.508341 0.736353
vt 0.791966 0.841445
vt 0.792088 0.830975
vt 0.508355 0.746675
vt 0.747591 0.374638
vt 0.384785 0.747130
vt 0.892383 0.638797
vt 0.900901 0.632708
vt 0.372513 0.736537
vt 0.906176 0.628351
vt 0.247286 0.368945
vt 0.593469 0.830230
vt 0.912230 0.641724
vt 0.122724 0.186347
vt 0.802223 0.622084
vt 0.584985 0.842349
vt 0.805297 0.631214
vt 0.571463 0.832818
vt 0.805937 0.641636
vt 0.621770 0.184542
vt 0.896311 0.649104
vt 0.599390 0.821763
vt 0.905790 0.644638
vt 0.431984 0.842556
vt 0.805844 0.845583
vt 0.016708 0.026597
vt 0.726811 0.766583
vt 0.442843 0.832992
vt 0.736057 0.763882
vt 0.508606 0.932059
vt 0.744972 0.758445
vt 0.510688 0.019782
vt 0.802790 0.828303
vt 0.508632 0.951415
vt 0.804549 0.838633
vt 0.753677 0.775214
vt 0.186256 0.664128
vt 0.745644 0.782164
vt 0.737084 0.785935
vt 0.189159 0.681359
vt 0.247293 0.024204
vt 0.374006 0.185735
vt 0.481703 0.022008
vt 0.146292 0.772807
vt 0.823972 0.619444
vt 0.825777 0.628623
vt 0.137677 0.765944
vt 0.824672 0.639187
vt 0.747591 0.019230
vt 0.985920 0.019782
vt 0.868354 0.184542
vt 0.280474 0.759554
vt 0.259313 0.753762
vt 0.265518 0.744402
vt 0.274325 0.753321
vt 0.094617 0.856293
vt 0.090433 0.865075
vt 0.128513 0.785161
vt 0.132279 0.777257
vt 0.417524 0.822009
vt 0.423468 0.830460
vt 0.364026 0.745948
vt 0.357421 0.736557
vn 0.000000 0.000000 1.000000
vn 0.000000 0.000000 1.000000
vn 0.000000 0.000000 1.000000
vn 0.000000 0.000000 1.000000
vn -0.809928 0.568633 0.143781
vn -0.809927 0.568634 0.143782
vn -0.818431 0.574604 0.000000
vn -0.818432 0.574604 0.000000
vn 0.000000 0.000000 -1.000000
vn 0.000000 0.000000 -1.000000
vn 0.000000 0.000000 -1.000000
vn 0.000000 0.000000 -1.000000
vn 0.000000 -1.000000 0.000000
vn 0.000000 -1.000000 0.000000
vn 0.000000 -0.969487 0.245140
vn 0.000000 -0.969488 0.245140
vn 0.810201 0.568227 0.143849
vn 0.818716 0.574199 0.000000
vn 0.818716 0.574198 -0.000000
vn 0.810201 0.568226 0.143849
vn -0.810201 0.568226 0.143850
vn -0.818716 0.574198 0.000000
vn -0.818716 0.574199 0.000000
vn -0.810201 0.568227 0.143849
vn 0.000000 0.000000 1.000000
vn 0.000000 0.000000 1.000000
vn 0.000000 0.000000 1.000000
vn 0.000000 0.000000 1.000000
vn 0.809927 0.568634 0.143782
vn 0.818431 0.574604 0.000000
vn 0.000000 1.000000 0.000000
vn 0.000000 0.969488 0.245141
vn 0.000000 0.000000 -1.000000
vn 0.000000 0.000000 -1.000000
vn 0.000000 0.000000 -1.000000
vn 0.000000 0.000000 -1.000000
vn 0.000000 -0.969488 0.245141
vn 0.000000 -1.000000 0.000000
vn 0.000000 -1.000000 0.000000
vn 0.000000 -0.969487 0.245140
vn -0.810201 0.568227 -0.143849
vn -0.810201 0.568226 -0.143849
vn 0.000000 -0.969488 -0.245140
vn 0.000000 -0.969487 -0.245140
vn 0.000000 -0.969487 -0.245140
vn 0.000000 -0.969488 -0.245141
vn 0.810201 0.568226 -0.143850
vn 0.810201 0.568227 -0.143849
vn 0.000000 0.969488 -0.245141
vn 0.809927 0.568634 -0.143782
vn -0.809927 0.568634 -0.143782
vn -0.809928 0.568633 -0.143781
vn -0.818716 0.574199 0.000000
vn -0.818716 0.574198 0.000000
vn -0.810201 0.568226 0.143850
vn -0.810201 0.568227 0.143849
vn -0.810201 0.568226 -0.143849
vn -0.810201 0.568227 -0.143849
vn 0.000000 0.000000 -1.000000
vn 0.000000 0.000000 -1.000000
vn 0.000000 0.000000 -1.000000
vn 0.000000 0.000000 -1.000000
vn 0.000000 0.000000 -1.000000
vn 0.000000 0.000000 -1.000000
vn 0.000000 0.000000 -1.000000
vn 0.000000 0.000000 -1.000000
vn 0.818716 0.574199 -0.000000
vn 0.818716 0.574198 -0.000000
vn 0.810201 0.568226 -0.143850
vn 0.810201 0.568227 -0.143849
vn 0.810201 0.568226 0.143849
vn 0.810201 0.568227 0.143849
vn 0.000000 0.000000 1.000000
vn 0.000000 0.000000 1.000000
vn 0.000000 0.000000 1.000000
vn 0.000000 0.000000 1.000000
vn 0.000000 0.000000 1.000000
vn 0.000000 0.000000 1.000000
vn 0.000000 0.000000 1.000000
vn 0.000000 0.000000 1.000000
vn 0.000000 0.000000 1.000000
vn 0.000000 0.000000 1.000000
vn 0.000000 0.000000 1.000000
vn 0.000000 0.000000 1.000000
vn 0.818432 0.574604 0.000000
vn 0.809928 0.568633 0.143781
vn 0.809928 0.568633 -0.143781
vn 0.000000 0.000000 -1.000000
vn 0.000000 0.000000 -1.000000
vn 0.000000 0.000000 -1.000000
vn 0.000000 0.000000 -1.000000
vn 0.000000 -1.000000 0.000000
vn 0.000000 -0.969488 -0.245140
vn 0.000000 -0.969488 0.245140
s 1
g Sign
usemtl initialShadingGroup
f 1/1/1 35/2/2 36/3/3 19/4/4
s 2
f 3/9/5 37/58/6 38/60/7 13/12/8
s 3
f 21/5/9 40/6/10 41/7/11 7/8/12
s 4
f 14/13/13 42/66/14 35/56/15 1/20/16
s 5
f 2/21/17 16/22/18 24/39/19 25/41/20
s 6
f 19/31/21 20/33/22 14/13/23 1/20/24
s 1
f 27/15/25 28/17/26 26/18/27 9/19/28
s 2
f 29/46/29 30/48/30 18/11/31 10/10/32
s 3
f 12/32/33 22/35/34 32/37/35 33/40/36
s 4
f 9/16/37 15/14/38 34/54/39 27/44/40
s 6
f 7/25/41 14/13/23 20/33/22 21/34/42
s 4
f 7/25/43 41/64/44 42/66/14 14/13/13
f 33/52/45 34/54/39 15/14/38 12/27/46
s 5
f 23/38/47 24/39/19 16/22/18 8/28/48
s 2
f 11/30/49 18/11/31 30/48/30 31/50/50
f 13/12/8 38/60/7 39/62/51 5/26/52
s 6
f 13/12/53 44/69/54 45/70/55 3/9/56
f 43/67/57 44/69/54 13/12/53 5/26/58
s 3
f 5/43/59 39/47/60 54/49/61 43/53/62
f 31/55/63 52/59/64 53/61/65 11/65/66
s 5
f 17/23/67 50/77/68 51/79/69 6/29/70
f 49/76/71 50/77/68 17/23/67 4/24/72
s 1
f 10/68/73 47/71/74 48/75/75 29/78/76
f 45/83/77 46/84/78 37/85/79 3/86/80
f 25/87/81 28/17/26 27/15/25 2/88/82
f 29/78/76 48/75/75 49/89/83 4/90/84
s 2
f 17/23/85 30/48/30 29/46/29 4/24/86
f 31/50/50 30/48/30 17/23/85 6/29/87
s 3
f 51/91/88 52/59/64 31/55/63 6/92/89
f 33/40/36 32/37/35 23/93/90 8/94/91
s 4
f 16/22/92 34/54/39 33/52/45 8/28/93
f 27/44/40 34/54/39 16/22/92 2/21/94
s 1
f 36/3/3 35/2/2 9/19/28 26/18/27
f 37/85/79 46/84/78 47/71/74 10/68/73
s 2
f 38/60/7 37/58/6 10/10/32 18/11/31
f 39/62/51 38/60/7 18/11/31 11/30/49
s 3
f 53/61/65 54/49/61 39/47/60 11/65/66
f 41/7/11 40/6/10 22/35/34 12/32/33
s 4
f 42/66/14 41/64/44 12/27/46 15/14/38
f 35/56/15 42/66/14 15/14/38 9/16/37
s 6
f 21/34/42 20/33/22 44/69/54 43/67/57
f 45/70/55 44/69/54 20/33/22 19/31/21
s 1
f 19/4/4 36/3/3 46/84/78 45/83/77
f 47/42/74 46/45/78 36/57/3 26/72/27
f 48/73/75 47/42/74 26/72/27 28/74/26
f 49/89/83 48/75/75 28/17/26 25/87/81
s 5
f 25/41/20 24/39/19 50/77/68 49/76/71
f 51/79/69 50/77/68 24/39/19 23/38/47
s 3
f 23/93/90 32/37/35 52/59/64 51/91/88
f 53/36/65 52/51/64 32/63/35 22/80/34
f 40/81/10 54/82/61 53/36/65 22/80/34
f 43/53/62 54/49/61 40/6/10 21/5/9
