# This file uses meters as units for non-parametric coordinates.

mtllib Clock.mtl
g default
v 1.131546 37.248833 0.978007
v 5.151249 37.009102 0.621754
v 3.649602 41.400261 0.416298
v 6.805332 42.445118 0.407627
v 3.649602 41.400261 -0.760446
v 6.805332 42.445118 -0.769117
v 1.131546 37.248833 -1.057493
v 5.151249 37.009102 -0.636246
v 22.756561 14.392056 -1.987484
v 7.350202 17.128078 -3.548703
v -11.399023 18.150616 -3.731717
v -26.556391 16.654720 -2.392466
v -28.997215 15.997781 -0.000007
v -26.556395 16.654720 2.432541
v -11.381243 17.670364 4.069455
v 7.386906 16.682457 4.246273
v 22.756561 14.392056 2.837524
v 25.197416 14.280061 0.445066
v 17.450027 20.833529 -1.410610
v 5.340420 21.645840 -2.749893
v -9.627924 22.649914 -2.926456
v -21.737556 23.462227 -1.872853
v -26.362961 23.772497 0.008459
v -21.737556 23.462227 1.998897
v -9.627915 22.649914 3.338179
v 5.340426 21.645840 3.514742
v 17.450027 20.833529 2.461142
v 22.075489 20.523252 0.579827
v 15.023644 27.695381 -1.335284
v 4.625813 28.358868 -2.458726
v -8.226408 29.178970 -2.589366
v -18.624233 29.842457 -1.677303
v -22.595858 30.095888 -0.070929
v -18.624237 29.842457 1.616189
v -8.226402 29.178970 2.739631
v 4.625813 28.358868 2.870270
v 15.023638 27.695381 1.958211
v 18.995258 27.441950 0.351834
v 10.785748 33.269104 -1.068461
v 3.175570 33.735291 -1.875566
v -6.231019 34.311520 -1.959207
v -13.841211 34.777710 -1.287436
v -16.748068 34.955780 -0.116853
v -13.841211 34.777710 1.105428
v -6.231012 34.311520 1.912533
v 3.175570 33.735291 1.996174
v 10.785748 33.269104 1.324405
v 13.692607 33.091034 0.153819
v -3.837003 37.545155 -1.097660
v -7.856713 37.784889 -0.741405
v -9.392142 37.876461 -0.124819
v -7.856707 37.784889 0.516595
v -3.837003 37.545155 0.937840
v 6.686684 36.917526 0.005167
v -1.292428 38.559452 -0.086810
v 4.150948 -31.093437 -0.662008
v 1.250413 -31.093437 -1.071152
v -2.334523 -31.093437 -1.071152
v -5.235057 -31.093437 -0.662008
v -6.342687 -31.093437 -0.000007
v -5.235057 -31.093437 0.661994
v -2.334523 -31.093437 1.071137
v 1.250413 -31.093437 1.071137
v 4.150948 -31.093437 0.661994
v 5.258616 -31.093437 -0.000007
v 9.659522 -24.460510 -1.259213
v 3.410119 -24.460510 -2.037447
v -4.314187 -24.460510 -2.037447
v -10.563601 -24.460510 -1.259213
v -12.950644 -24.460510 -0.000007
v -10.563584 -24.460510 1.259198
v -4.314192 -24.460510 2.037431
v 3.410113 -24.460510 2.037431
v 9.659522 -24.460510 1.259198
v 12.046516 -24.460510 -0.000007
v 15.639533 -13.507657 -1.733156
v 5.764789 -13.507657 -2.804305
v -6.441420 -13.507657 -2.804305
v -16.316198 -13.507657 -1.733156
v -20.087776 -13.507657 -0.000007
v -16.316208 -13.507657 1.733140
v -6.441414 -13.507657 2.804290
v 5.764789 -13.507657 2.804290
v 15.639533 -13.507657 1.733140
v 19.411249 -13.507657 -0.000007
v 18.444698 3.656056 -2.037447
v 6.836203 3.656056 -3.296661
v -7.512866 3.656056 -3.296661
v -19.121368 3.656056 -2.037447
v -23.555443 3.656056 -0.000007
v -19.121363 3.656056 2.037431
v -7.512873 3.656056 3.296646
v 6.836209 3.656056 3.296646
v 18.444698 3.656056 2.037431
v 22.878738 3.656056 -0.000007
v 18.035810 16.311844 -1.692014
v 6.176648 16.946182 -3.129557
v -8.481812 17.730251 -3.269894
v -20.340923 18.364586 -2.059424
v -24.870756 18.606884 0.039499
v -20.340918 18.364586 2.225155
v -8.481819 17.730251 3.662698
v 6.176648 16.946182 3.803035
v 18.035810 16.311844 2.592565
v 22.565540 16.069553 0.493642
v -0.573080 -33.379013 -0.000007
vt 0.391700 0.488317
vt 0.402899 0.488317
vt 0.404082 0.536711
vt 0.393606 0.536711
vt 0.524277 0.496747
vt 0.524354 0.468654
vt 0.534830 0.468654
vt 0.534752 0.496747
vt 0.537397 0.519164
vt 0.519276 0.519164
vt 0.561923 0.660496
vt 0.556434 0.674165
vt 0.556096 0.602058
vt 0.566784 0.713773
vt 0.556363 0.739651
vt 0.550724 0.660496
vt 0.565095 0.624711
vt 0.545482 0.713773
vt 0.546974 0.624711
vt 0.564737 0.580478
vt 0.546616 0.580478
vt 0.560987 0.544693
vt 0.549788 0.544693
vt 0.555277 0.531024
vt 0.553953 0.468654
vt 0.564835 0.494532
vt 0.543532 0.494532
vt 0.505878 0.160417
vt 0.504304 0.327500
vt 0.500683 0.301688
vt 0.501932 0.171191
vt 0.489731 0.462596
vt 0.487885 0.407263
vt 0.493337 0.023589
vt 0.491156 0.065615
vt 0.468076 0.484325
vt 0.468427 0.447590
vt 0.472038 0.001859
vt 0.472470 0.025289
vt 0.446777 0.462596
vt 0.449742 0.407263
vt 0.450382 0.023589
vt 0.453013 0.065615
vt 0.434854 0.327658
vt 0.438966 0.301688
vt 0.436484 0.160744
vt 0.440215 0.171191
vt 0.466881 0.538828
vt 0.464747 0.503042
vt 0.513141 0.488317
vt 0.503839 0.516411
vt 0.419519 0.516411
vt 0.410217 0.488317
vt 0.458611 0.503042
vt 0.456477 0.538828
vt 0.210246 0.023589
vt 0.185889 0.160744
vt 0.145670 0.178636
vt 0.152901 0.070830
vt 0.176786 0.327658
vt 0.136731 0.311891
vt 0.085907 0.184997
vt 0.091814 0.092431
vt 0.211243 0.001859
vt 0.155663 0.029652
vt 0.190103 0.462596
vt 0.129499 0.419697
vt 0.078606 0.299414
vt 0.038043 0.197908
vt 0.042194 0.130159
vt 0.094070 0.057074
vt 0.195951 0.484325
vt 0.126737 0.460874
vt 0.072699 0.391980
vt 0.032914 0.281650
vt 0.006764 0.216105
vt 0.008898 0.180320
vt 0.043779 0.104280
vt 0.070443 0.427337
vt 0.028763 0.349400
vt 0.004126 0.260337
vt 0.027178 0.375278
vt 0.001992 0.296123
vt 0.239661 0.462596
vt 0.248703 0.327500
vt 0.293033 0.311891
vt 0.300265 0.419697
vt 0.239908 0.160417
vt 0.284094 0.178636
vt 0.351158 0.299414
vt 0.357064 0.391980
vt 0.233813 0.484325
vt 0.303027 0.460874
vt 0.219518 0.023589
vt 0.276863 0.070830
vt 0.343857 0.184997
vt 0.396850 0.281650
vt 0.401000 0.349400
vt 0.359321 0.427337
vt 0.218521 0.001859
vt 0.274100 0.029652
vt 0.337950 0.092431
vt 0.391720 0.197908
vt 0.425637 0.260337
vt 0.427772 0.296123
vt 0.402586 0.375278
vt 0.335694 0.057074
vt 0.387570 0.130159
vt 0.422999 0.216105
vt 0.385985 0.104280
vt 0.420865 0.180320
vt 0.771177 0.444315
vt 0.745355 0.444315
vt 0.764582 0.385265
vt 0.820217 0.385265
vt 0.729122 0.464662
vt 0.713441 0.444315
vt 0.695817 0.385265
vt 0.785545 0.287758
vt 0.873454 0.287758
vt 0.781038 0.444315
vt 0.841467 0.385265
vt 0.687619 0.444315
vt 0.640181 0.385265
vt 0.676879 0.287758
vt 0.795083 0.134959
vt 0.898427 0.134959
vt 0.907032 0.287758
vt 0.677758 0.444315
vt 0.618931 0.385265
vt 0.588969 0.287758
vt 0.667341 0.134959
vt 0.789211 0.016644
vt 0.894787 0.022291
vt 0.937901 0.134959
vt 0.555393 0.287758
vt 0.563996 0.134959
vt 0.658715 0.009663
vt 0.935113 0.024448
vt 0.524522 0.134959
vt 0.553139 0.004016
vt 0.512812 0.001859
vt 0.737865 0.489001
vt 0.747726 0.489001
vt 0.700289 0.548050
vt 0.679038 0.548050
vt 0.789229 0.468654
vt 0.773548 0.489001
vt 0.755924 0.548050
vt 0.649076 0.645558
vt 0.615500 0.645558
vt 0.805462 0.489001
vt 0.824689 0.548050
vt 0.736986 0.645558
vt 0.624103 0.798357
vt 0.584629 0.798357
vt 0.831284 0.489001
vt 0.880324 0.548050
vt 0.845652 0.645558
vt 0.727448 0.798357
vt 0.613246 0.929300
vt 0.572919 0.931457
vt 0.841145 0.489001
vt 0.901574 0.548050
vt 0.933561 0.645558
vt 0.855190 0.798357
vt 0.718821 0.923652
vt 0.967139 0.645558
vt 0.958534 0.798357
vt 0.849318 0.916672
vt 0.998008 0.798357
vt 0.954894 0.911025
vt 0.995220 0.908868
vn 0.043796 0.061632 0.997138
vn 0.043796 0.061632 0.997138
vn 0.043796 0.061632 0.997138
vn 0.043796 0.061632 0.997138
vn -0.314318 0.949318 0.000000
vn -0.314318 0.949318 0.000000
vn -0.314318 0.949318 0.000000
vn -0.314318 0.949318 0.000000
vn 0.058329 -0.008288 -0.998263
vn 0.058329 -0.008288 -0.998263
vn 0.058329 -0.008288 -0.998263
vn 0.058329 -0.008288 -0.998263
vn 0.956691 -0.291104 0.000000
vn 0.956691 -0.291104 0.000000
vn 0.956691 -0.291104 0.000000
vn 0.956691 -0.291104 0.000000
vn -0.855012 0.518609 0.000000
vn -0.855012 0.518609 0.000000
vn -0.855012 0.518609 0.000000
vn -0.855012 0.518609 0.000000
vn 0.299990 0.110121 -0.947565
vn 0.075230 0.089977 -0.993099
vn 0.060690 0.115181 -0.991489
vn 0.204939 0.172336 -0.963484
vn -0.040566 0.045994 -0.998118
vn -0.029028 0.113775 -0.993082
vn -0.258812 -0.009364 -0.965882
vn -0.177385 0.162496 -0.970634
vn -0.999504 0.031294 0.003445
vn -0.867330 0.497721 0.003503
vn -0.269560 -0.007262 0.962956
vn -0.192323 0.173178 0.965930
vn -0.057709 0.032291 0.997811
vn -0.048751 0.126465 0.990773
vn 0.050308 0.061776 0.996821
vn 0.039327 0.125431 0.991323
vn 0.275073 0.075028 0.958491
vn 0.181524 0.170294 0.968529
vn 0.954295 0.298310 -0.018249
vn 0.844959 0.534723 0.010793
vn 0.059879 0.078500 -0.995114
vn 0.200951 0.127762 -0.971234
vn -0.028407 0.086097 -0.995882
vn -0.162880 0.155703 -0.974283
vn -0.811105 0.584899 -0.001739
vn -0.179289 0.193591 0.964561
vn -0.046189 0.130105 0.990424
vn 0.041992 0.127402 0.990962
vn 0.183098 0.178893 0.966681
vn 0.875345 0.483484 -0.003776
vn 0.060557 0.164800 -0.984466
vn 0.186005 0.246183 -0.951208
vn -0.021420 0.171470 -0.984957
vn -0.136401 0.270742 -0.952939
vn -0.603654 0.797243 -0.002278
vn -0.150046 0.307121 0.939768
vn -0.036739 0.214385 0.976058
vn 0.044785 0.211080 0.976442
vn 0.169762 0.292511 0.941073
vn 0.696997 0.717061 -0.004283
vn 0.057243 0.315748 -0.947115
vn 0.155615 0.409278 -0.899041
vn -0.002686 0.320186 -0.947351
vn -0.089757 0.427233 -0.899675
vn -0.354405 0.935090 -0.001838
vn -0.101226 0.459207 0.882543
vn -0.016202 0.358884 0.933242
vn 0.043239 0.355854 0.933541
vn 0.141074 0.447078 0.883300
vn 0.465189 0.885206 -0.003091
vn 0.059450 0.998229 -0.001934
vn 0.193493 -0.280831 -0.940050
vn 0.049190 -0.192913 -0.979982
vn 0.050255 -0.103149 -0.993396
vn 0.200968 -0.175075 -0.963826
vn -0.049984 -0.191926 -0.980136
vn -0.050536 -0.102094 -0.993490
vn -0.194650 -0.276825 -0.940999
vn -0.201689 -0.171048 -0.964398
vn -0.695460 -0.718565 0.000003
vn -0.825728 -0.564068 0.000002
vn -0.194650 -0.276825 0.940999
vn -0.201689 -0.171048 0.964398
vn -0.049984 -0.191926 0.980136
vn -0.050536 -0.102094 0.993490
vn 0.049190 -0.192913 0.979982
vn 0.050255 -0.103149 0.993396
vn 0.193493 -0.280830 0.940050
vn 0.200968 -0.175075 0.963826
vn 0.686226 -0.727388 -0.000000
vn 0.817683 -0.575669 -0.000000
vn 0.050297 -0.048685 -0.997547
vn 0.208467 -0.086425 -0.974203
vn -0.050067 -0.048256 -0.997580
vn -0.208063 -0.084773 -0.974435
vn -0.957165 -0.289543 0.000000
vn -0.208063 -0.084773 0.974435
vn -0.050067 -0.048256 0.997579
vn 0.050297 -0.048685 0.997547
vn 0.208467 -0.086425 0.974203
vn 0.956135 -0.292927 0.000000
vn 0.052417 -0.010269 -0.998573
vn 0.212000 -0.014519 -0.977162
vn -0.047110 -0.016428 -0.998755
vn -0.204856 -0.034126 -0.978197
vn -0.989788 -0.142545 -0.000752
vn -0.209640 -0.042488 0.976855
vn -0.052073 -0.031097 0.998159
vn 0.047394 -0.032874 0.998335
vn 0.207628 -0.043740 0.977230
vn 0.995324 -0.095977 -0.010839
vn 0.045365 -0.029256 -0.998542
vn 0.191035 -0.065665 -0.979384
vn -0.050317 -0.042109 -0.997845
vn -0.209942 -0.130045 -0.969027
vn -0.699743 -0.714392 0.002120
vn -0.223224 -0.151466 0.962927
vn -0.062774 -0.074456 0.995247
vn 0.035876 -0.079281 0.996207
vn 0.182457 -0.130061 0.974574
vn 0.841368 -0.539980 0.022828
vn -0.001370 -0.999999 0.000000
s off
g clock
usemtl initialShadingGroup
f 1/48/1 2/49/2 4/50/3 3/51/4
f 3/5/5 4/6/6 6/7/7 5/8/8
f 5/52/9 6/53/10 8/54/11 7/55/12
f 2/1/13 8/2/14 6/3/15 4/4/16
f 7/9/17 1/10/18 3/5/19 5/8/20
s 1
f 9/56/21 10/57/22 20/58/23 19/59/24
f 10/57/22 11/60/25 21/61/26 20/58/23
f 11/60/25 12/66/27 22/67/28 21/61/26
f 12/66/27 13/72/29 23/73/30 22/67/28
f 13/92/29 14/84/31 24/87/32 23/93/30
f 14/84/31 15/85/33 25/86/34 24/87/32
f 15/85/33 16/88/35 26/89/36 25/86/34
f 16/88/35 17/94/37 27/95/38 26/89/36
f 17/94/37 18/100/39 28/101/40 27/95/38
f 18/64/39 9/56/21 19/59/24 28/65/40
f 19/59/24 20/58/23 30/62/41 29/63/42
f 20/58/23 21/61/26 31/68/43 30/62/41
f 21/61/26 22/67/28 32/74/44 31/68/43
f 22/67/28 23/73/30 33/79/45 32/74/44
f 23/93/30 24/87/32 34/91/46 33/99/45
f 24/87/32 25/86/34 35/90/47 34/91/46
f 25/86/34 26/89/36 36/96/48 35/90/47
f 26/89/36 27/95/38 37/102/49 36/96/48
f 27/95/38 28/101/40 38/107/50 37/102/49
f 28/65/40 19/59/24 29/63/42 38/71/50
f 29/63/42 30/62/41 40/69/51 39/70/52
f 30/62/41 31/68/43 41/75/53 40/69/51
f 31/68/43 32/74/44 42/80/54 41/75/53
f 32/74/44 33/79/45 43/82/55 42/80/54
f 33/99/45 34/91/46 44/98/56 43/106/55
f 34/91/46 35/90/47 45/97/57 44/98/56
f 35/90/47 36/96/48 46/103/58 45/97/57
f 36/96/48 37/102/49 47/108/59 46/103/58
f 37/102/49 38/107/50 48/110/60 47/108/59
f 38/71/50 29/63/42 39/70/52 48/78/60
f 39/70/52 40/69/51 7/76/61 8/77/62
f 40/69/51 41/75/53 49/81/63 7/76/61
f 41/75/53 42/80/54 50/83/64 49/81/63
f 42/14/54 43/15/55 51/12/65 50/11/64
f 43/15/55 44/18/56 52/16/66 51/12/65
f 44/98/56 45/97/57 53/104/67 52/105/66
f 45/97/57 46/103/58 1/109/68 53/104/67
f 46/103/58 47/108/59 2/111/69 1/109/68
f 47/27/59 48/25/60 54/24/70 2/23/69
f 48/25/60 39/26/52 8/22/62 54/24/70
f 8/22/62 7/20/61 55/13/71
f 7/20/61 49/17/63 55/13/71
f 49/17/63 50/11/64 55/13/71
f 50/11/64 51/12/65 55/13/71
f 51/12/65 52/16/66 55/13/71
f 52/16/66 53/19/67 55/13/71
f 53/19/67 1/21/68 55/13/71
f 1/21/68 2/23/69 55/13/71
f 2/23/69 54/24/70 55/13/71
f 54/24/70 8/22/62 55/13/71
f 56/112/72 57/113/73 67/114/74 66/115/75
f 57/113/73 58/117/76 68/118/77 67/114/74
f 58/117/76 59/123/78 69/124/79 68/118/77
f 59/123/78 60/129/80 70/130/81 69/124/79
f 60/143/80 61/144/82 71/145/83 70/146/81
f 61/144/82 62/148/84 72/149/85 71/145/83
f 62/148/84 63/152/86 73/153/87 72/149/85
f 63/152/86 64/157/88 74/158/89 73/153/87
f 64/157/88 65/163/90 75/164/91 74/158/89
f 65/121/90 56/112/72 66/115/75 75/122/91
f 66/115/75 67/114/74 77/119/92 76/120/93
f 67/114/74 68/118/77 78/125/94 77/119/92
f 68/118/77 69/124/79 79/131/95 78/125/94
f 69/124/79 70/130/81 80/136/96 79/131/95
f 70/146/81 71/145/83 81/150/97 80/151/96
f 71/145/83 72/149/85 82/154/98 81/150/97
f 72/149/85 73/153/87 83/159/99 82/154/98
f 73/153/87 74/158/89 84/165/100 83/159/99
f 74/158/89 75/164/91 85/168/101 84/165/100
f 75/122/91 66/115/75 76/120/93 85/128/101
f 76/120/93 77/119/92 87/126/102 86/127/103
f 77/119/92 78/125/94 88/132/104 87/126/102
f 78/125/94 79/131/95 89/137/105 88/132/104
f 79/131/95 80/136/96 90/140/106 89/137/105
f 80/151/96 81/150/97 91/155/107 90/156/106
f 81/150/97 82/154/98 92/160/108 91/155/107
f 82/154/98 83/159/99 93/166/109 92/160/108
f 83/159/99 84/165/100 94/169/110 93/166/109
f 84/165/100 85/168/101 95/171/111 94/169/110
f 85/128/101 76/120/93 86/127/103 95/135/111
f 86/127/103 87/126/102 97/133/112 96/134/113
f 87/126/102 88/132/104 98/138/114 97/133/112
f 88/132/104 89/137/105 99/141/115 98/138/114
f 89/137/105 90/140/106 100/142/116 99/141/115
f 90/156/106 91/155/107 101/161/117 100/162/116
f 91/155/107 92/160/108 102/167/118 101/161/117
f 92/160/108 93/166/109 103/170/119 102/167/118
f 93/166/109 94/169/110 104/172/120 103/170/119
f 94/169/110 95/171/111 105/173/121 104/172/120
f 95/135/111 86/127/103 96/134/113 105/139/121
f 57/113/73 56/112/72 106/116/122
f 58/117/76 57/113/73 106/116/122
f 59/123/78 58/117/76 106/116/122
f 60/129/80 59/123/78 106/116/122
f 61/144/82 60/143/80 106/147/122
f 62/148/84 61/144/82 106/147/122
f 63/152/86 62/148/84 106/147/122
f 64/157/88 63/152/86 106/147/122
f 65/163/90 64/157/88 106/147/122
f 56/112/72 65/121/90 106/116/122
f 16/28/35 15/29/33 102/30/118 103/31/119
f 15/29/33 14/32/31 101/33/117 102/30/118
f 14/32/31 13/36/29 100/37/116 101/33/117
f 13/36/29 12/40/27 99/41/115 100/37/116
f 12/40/27 11/44/25 98/45/114 99/41/115
f 11/44/25 10/46/22 97/47/112 98/45/114
f 10/46/22 9/42/21 96/43/113 97/47/112
f 9/42/21 18/38/39 105/39/121 96/43/113
f 18/38/39 17/34/37 104/35/120 105/39/121
f 17/34/37 16/28/35 103/31/119 104/35/120
