# This file uses centimeters as units for non-parametric coordinates.

mtllib CorkBoard.mtl
g default
v -2.237537 -0.186124 0.072328
v 2.385353 -0.338408 0.072328
v -2.411547 2.321001 0.072328
v 2.292599 2.160513 0.072328
v -2.411546 2.321001 -0.072328
v 2.292599 2.160513 -0.072328
v -2.237536 -0.186124 -0.072328
v 2.385353 -0.338408 -0.072328
v -0.012893 -0.238992 0.072328
v -0.012893 2.224462 0.072328
v -0.012893 2.224462 -0.072328
v -0.012893 -0.238992 -0.072328
v 2.157958 -0.338408 0.072328
v 2.065203 2.160513 0.072328
v 2.065203 2.160513 -0.072328
v 2.157958 -0.338408 -0.072328
v -2.010139 -0.186124 0.072328
v -2.184147 2.321001 0.072328
v -2.184147 2.321001 -0.072328
v -2.010139 -0.186124 -0.072328
v -2.286855 0.992735 0.072328
v -2.286854 0.992735 -0.072328
v -2.059455 0.992735 -0.072328
v -0.012893 0.992735 -0.072328
v 2.033668 0.992735 -0.072328
v 2.261064 0.992735 -0.072328
v 2.261064 0.992735 0.072328
v 2.033668 0.992735 0.072328
v -2.059455 0.992735 0.072328
v -2.411546 2.101289 -0.072328
v -2.411547 2.101289 0.072328
v -2.059455 2.101289 0.072328
v -0.012893 2.101289 0.072328
v 2.033668 2.101289 0.072328
v 2.292599 2.037340 0.072328
v 2.292599 2.037340 -0.072328
v 2.033668 2.101289 -0.072328
v -0.012893 2.101289 -0.072328
v -2.059455 2.101289 -0.072328
v -2.237537 -0.062951 0.072328
v -2.237536 -0.062951 -0.072328
v -2.059455 -0.115820 -0.072328
v -0.012893 -0.115820 -0.072328
v 2.033668 -0.115820 -0.072328
v 2.385353 -0.215236 -0.072328
v 2.385353 -0.215236 0.072328
v 2.033668 -0.115820 0.072328
v -0.012893 -0.115820 0.072328
v -2.059455 -0.115820 0.072328
v -2.059455 2.101289 0.072328
v -0.012893 2.101289 0.072328
v -2.059455 0.992735 0.072328
v 2.033668 2.101289 0.072328
v 2.033668 0.992735 0.072328
v -0.012893 -0.115820 0.072328
v 2.033668 -0.115820 0.072328
v -2.059455 -0.115820 0.072328
v -2.059455 2.101289 0.072328
v -0.012893 2.101289 0.072328
v -2.059455 0.992735 0.072328
v 2.033668 2.101289 0.072328
v 2.033668 0.992735 0.072328
v -0.012893 -0.115820 0.072328
v 2.033668 -0.115820 0.072328
v -2.059455 -0.115820 0.072328
v -2.059455 2.101289 -0.034506
v -0.012893 2.101289 -0.034506
v -2.059455 0.992735 -0.034506
v -0.012893 0.992735 -0.034506
v 2.033668 2.101289 -0.034506
v 2.033668 0.992735 -0.034506
v -0.012893 -0.115820 -0.034506
v 2.033668 -0.115820 -0.034506
v -2.059455 -0.115820 -0.034506
v -2.411546 2.197829 -0.072328
v -2.411547 2.197829 0.072328
v -2.411547 2.321001 0.072328
v -2.411546 2.321001 -0.072328
v -2.509835 2.197829 -0.072328
v -2.509835 2.197829 0.072328
v -2.486805 2.321001 0.072328
v -2.486805 2.321001 -0.072328
v -2.486805 2.101289 -0.072328
v -2.486805 2.101289 0.072328
v -2.237536 -0.225000 -0.072328
v -2.010139 -0.257995 -0.072328
v -2.010139 -0.257995 0.072328
v -2.237537 -0.225000 0.072328
v 2.065203 2.203775 0.072328
v 2.065203 2.203775 -0.072328
v 2.292599 2.245143 0.072328
v 2.292599 2.245143 -0.072328
v 2.473478 -0.338408 -0.072328
v 2.473478 -0.338408 0.072328
v 2.451056 -0.244630 -0.072328
v 2.451056 -0.244630 0.072328
vt 0.069828 0.945059
vt 0.084151 0.937277
vt 0.078962 0.953694
vt 0.068710 0.955386
vt 0.176203 0.955875
vt 0.175528 0.944843
vt 0.274402 0.946155
vt 0.280452 0.959931
vt 0.283645 0.944003
vt 0.283352 0.962847
vt 0.053760 0.820529
vt 0.070441 0.819960
vt 0.084925 0.836656
vt 0.057492 0.836795
vt 0.175533 0.827184
vt 0.175270 0.810671
vt 0.278743 0.824651
vt 0.278176 0.816033
vt 0.282247 0.824673
vt 0.288289 0.818097
vt 0.283370 0.886445
vt 0.276903 0.883573
vt 0.175530 0.886049
vt 0.076794 0.886436
vt 0.066140 0.886983
vt 0.051589 0.822102
vt 0.050920 0.819132
vt 0.047930 0.823384
vt 0.047162 0.819056
vt 0.051065 0.831762
vt 0.073946 0.959732
vt 0.058658 0.959622
vt 0.273196 0.810723
vt 0.291443 0.807544
vt 0.289610 0.943055
vt 0.295942 0.946277
vt 0.667546 0.680436
vt 0.917406 0.680230
vt 0.913596 0.815675
vt 0.667696 0.815534
vt 0.418973 0.680642
vt 0.423042 0.815393
vt 0.667841 0.946427
vt 0.426984 0.945962
vt 0.909906 0.946893
vt 0.804996 0.532820
vt 0.778864 0.535554
vt 0.777910 0.522007
vt 0.804036 0.513878
vt 0.802079 0.184813
vt 0.779087 0.183876
vt 0.783794 0.178454
vt 0.810450 0.179118
vt 0.800103 0.547092
vt 0.770267 0.550485
vt 0.779356 0.540356
vt 0.805300 0.538823
vt 0.093232 0.557110
vt 0.087917 0.545288
vt 0.087084 0.532627
vt 0.106944 0.539751
vt 0.809864 0.539009
vt 0.810065 0.516570
vt 0.162338 0.522312
vt 0.471475 0.522159
vt 0.471391 0.541244
vt 0.141438 0.557062
vt 0.472781 0.176164
vt 0.472980 0.181079
vt 0.177680 0.193286
vt 0.173175 0.185971
vt 0.472162 0.544803
vt 0.136669 0.558924
vt 0.117372 0.526682
vt 0.106703 0.557097
vt 0.168519 0.177078
vt 0.158520 0.182971
vt 0.144468 0.176788
vt 0.142891 0.170391
vt 0.093279 0.561853
vt 0.774804 0.537322
vt 0.824263 0.192070
vt 0.819792 0.192403
vt 0.818765 0.185455
vt 0.818186 0.177676
vt 0.142680 0.205608
vt 0.131979 0.204791
vt 0.139041 0.187943
vt 0.143742 0.188490
vt 0.180412 0.196862
vt 0.472905 0.198069
vt 0.762977 0.199266
vt 0.813164 0.205767
vt 0.808355 0.359297
vt 0.803197 0.356273
vt 0.815765 0.213394
vt 0.770239 0.356211
vt 0.171625 0.355087
vt 0.138067 0.355024
vt 0.130473 0.357808
vt 0.094762 0.530629
vt 0.472905 0.198069
vt 0.762977 0.199266
vt 0.759479 0.202788
vt 0.472953 0.201620
vt 0.770239 0.356211
vt 0.766554 0.357858
vt 0.180412 0.196862
vt 0.184066 0.200442
vt 0.171625 0.355087
vt 0.175489 0.356761
vt 0.471475 0.522159
vt 0.162338 0.522312
vt 0.166431 0.521857
vt 0.471544 0.521708
vt 0.777910 0.522007
vt 0.774024 0.521559
vt 0.823726 0.208390
vt 0.820078 0.199911
vt 0.811911 0.186208
vt 0.813559 0.182834
vt 0.807610 0.177720
vn 0.000000 0.000000 1.000000
vn 0.000000 0.000000 1.000000
vn 0.000000 0.000000 1.000000
vn 0.000000 0.000000 1.000000
vn 0.000000 1.000000 0.000000
vn 0.040215 0.999191 0.000000
vn 0.040215 0.999191 0.000000
vn 0.000000 1.000000 0.000000
vn 0.000000 0.000000 -1.000000
vn 0.000000 0.000000 -1.000000
vn 0.000000 0.000000 -1.000000
vn 0.000000 0.000000 -1.000000
vn -0.143594 -0.989637 -0.000000
vn -0.143594 -0.989637 -0.000000
vn -0.143594 -0.989637 -0.000000
vn -0.143594 -0.989637 -0.000000
vn 0.972587 0.232540 0.000000
vn 0.972587 0.232540 0.000000
vn 0.972587 0.232540 0.000000
vn 0.972587 0.232540 0.000000
vn -1.000000 0.000000 -0.000001
vn -1.000000 0.000000 -0.000001
vn -0.999126 -0.041799 -0.000001
vn -0.999126 -0.041799 -0.000001
vn 0.000000 0.000000 1.000000
vn 0.000000 0.000000 1.000000
vn 0.000000 0.000000 1.000000
vn 0.000000 0.000000 1.000000
vn 0.037741 0.999288 0.000000
vn 0.037741 0.999288 0.000000
vn 0.030758 0.999527 0.000000
vn 0.030758 0.999527 0.000000
vn 0.000000 0.000000 -1.000000
vn 0.000000 0.000000 -1.000000
vn 0.000000 0.000000 -1.000000
vn 0.000000 0.000000 -1.000000
vn -0.036511 -0.999333 0.000000
vn -0.036511 -0.999333 0.000000
vn -0.041418 -0.999142 0.000000
vn -0.041418 -0.999142 0.000000
vn 0.000000 0.000000 1.000000
vn 0.000000 0.000000 1.000000
vn -0.178980 0.983853 0.000000
vn -0.178980 0.983853 0.000000
vn -0.178980 0.983853 0.000000
vn -0.178980 0.983853 0.000000
vn 0.000000 0.000000 -1.000000
vn 0.000000 0.000000 -1.000000
vn 0.000000 -1.000000 0.000000
vn 0.000000 -1.000000 0.000000
vn -0.026461 -0.999650 0.000000
vn -0.026461 -0.999650 0.000000
vn -0.982966 0.183790 -0.000002
vn -0.982966 0.183790 -0.000002
vn -0.982966 0.183790 -0.000002
vn -0.982966 0.183790 -0.000002
vn 0.000000 0.000000 -1.000000
vn 0.000000 0.000000 -1.000000
vn 0.000000 0.000000 -1.000000
vn 0.000000 0.000000 -1.000000
vn 0.000000 0.000000 -1.000000
vn 0.000000 0.000000 -1.000000
vn 0.000000 0.000000 -1.000000
vn 0.000000 0.000000 -1.000000
vn 0.000000 0.000000 -1.000000
vn 0.000000 0.000000 -1.000000
vn 0.999636 -0.026994 0.000000
vn 0.999636 -0.026994 0.000000
vn 1.000000 0.000000 0.000000
vn 1.000000 0.000000 0.000000
vn 0.000000 0.000000 1.000000
vn 0.000000 0.000000 1.000000
vn 0.000000 0.000000 1.000000
vn 0.000000 0.000000 1.000000
vn 0.000000 0.000000 1.000000
vn 0.000000 0.000000 1.000000
vn 0.000000 0.000000 1.000000
vn 0.000000 0.000000 1.000000
vn 0.000000 0.000000 1.000000
vn 0.000000 0.000000 1.000000
vn -0.996783 -0.080144 -0.000002
vn -0.996783 -0.080144 -0.000002
vn -0.993733 -0.111777 -0.000002
vn -0.993733 -0.111777 -0.000002
vn 0.000000 0.000000 1.000000
vn 0.000000 0.000000 1.000000
vn 0.000000 0.000000 1.000000
vn 0.000000 0.000000 1.000000
vn 0.000000 0.000000 1.000000
vn 0.000000 0.000000 1.000000
vn 0.000000 0.000000 1.000000
vn 0.000000 0.000000 1.000000
vn 0.000000 0.000000 1.000000
vn 0.000000 0.000000 1.000000
vn 0.999153 0.041142 0.000000
vn 0.999153 0.041142 0.000000
vn 0.000000 0.000000 -1.000000
vn 0.000000 0.000000 -1.000000
vn 0.000000 0.000000 -1.000000
vn 0.000000 0.000000 -1.000000
vn 0.000000 0.000000 -1.000000
vn 0.994748 0.102350 0.000000
vn 0.994748 0.102350 0.000000
vn 0.000000 0.000000 1.000000
vn 0.000000 0.000000 1.000000
vn 0.000000 0.000000 1.000000
vn 0.000000 0.000000 -0.000000
vn 0.000000 0.000000 -0.000000
vn 0.000000 0.000000 -0.000000
vn 0.000000 0.000000 -0.000000
vn 0.000000 0.000000 1.000000
vn 0.000000 0.000000 1.000000
vn 0.000000 0.000000 1.000000
vn 0.000000 0.000000 1.000000
vn 0.000000 0.000000 -0.000000
vn 0.000000 0.000000 -0.000000
vn 0.000000 0.000000 -0.000000
vn 0.000000 0.000000 -0.000000
vn 0.000000 0.000000 -1.000000
vn 0.000000 0.000000 -1.000000
vn 0.000000 0.000000 -1.000000
vn 0.000000 0.000000 -1.000000
vn 0.000000 0.000000 0.000000
vn 0.000000 0.000000 0.000000
vn 0.000000 0.000000 0.000000
vn 0.000000 0.000000 0.000000
vn 0.000000 0.000000 -1.000000
vn 0.000000 0.000000 -1.000000
vn 0.000000 0.000000 -1.000000
vn 0.000000 0.000000 -1.000000
vn 0.000000 0.000000 1.000000
vn 0.000000 0.000000 1.000000
vn 0.000000 0.000000 1.000000
vn 0.000000 0.000000 1.000000
vn 0.000000 0.000000 0.000000
vn 0.000000 0.000000 0.000000
vn 0.000000 0.000000 0.000000
vn 0.000000 0.000000 0.000000
vn 0.000000 0.467249 0.884126
vn 0.000000 0.467249 0.884126
vn 0.000000 0.000000 0.000000
vn 0.000000 0.467249 0.884126
vn 0.000000 0.000000 -1.000000
vn 0.000000 0.000000 -1.000000
vn 0.000000 0.000000 -1.000000
vn 0.000000 0.000000 -1.000000
vn 0.000000 0.726414 0.687258
vn 0.000000 0.726414 0.687258
vn 0.000000 0.726414 0.687258
vn 0.000000 0.726414 0.687258
vn 0.070507 0.000000 0.997511
vn 0.070507 0.000000 0.997511
vn 0.070507 0.000000 0.997511
vn 0.070507 0.000000 0.997511
vn 0.000000 -0.726413 -0.687258
vn 0.000000 -0.726414 -0.687258
vn 0.000000 -0.726413 -0.687258
vn 0.000000 -0.726414 -0.687258
vn 0.070507 -0.000000 0.997511
vn 0.070507 -0.000000 0.997511
vn 0.070507 -0.000000 0.997511
vn 0.070507 -0.000000 0.997511
vn -0.070507 -0.000000 -0.997511
vn -0.070507 -0.000000 -0.997511
vn -0.070507 -0.000000 -0.997511
vn -0.070507 -0.000000 -0.997511
vn 0.000000 -0.726413 -0.687258
vn 0.000000 -0.726413 -0.687258
vn 0.000000 -0.726413 -0.687258
vn 0.000000 -0.726413 -0.687258
vn 0.000000 -1.000000 0.000000
vn 0.000000 -1.000000 0.000000
vn 0.000000 -1.000000 0.000000
vn 0.000000 -1.000000 0.000000
vn 1.000000 0.000000 0.000000
vn 1.000000 0.000000 0.000000
vn 1.000000 0.000000 0.000000
vn 1.000000 0.000000 0.000000
vn 0.000000 -1.000000 0.000000
vn 0.000000 -1.000000 0.000000
vn 0.000000 -1.000000 0.000000
vn 0.000000 -1.000000 0.000000
vn -1.000000 0.000000 0.000000
vn -1.000000 0.000000 0.000000
vn -1.000000 0.000000 0.000000
vn -1.000000 0.000000 0.000000
vn 0.000000 1.000000 0.000000
vn 0.000000 1.000000 0.000000
vn 0.000000 1.000000 0.000000
vn 0.000000 1.000000 0.000000
vn -1.000000 0.000000 0.000000
vn -1.000000 0.000000 0.000000
vn -1.000000 0.000000 0.000000
vn -1.000000 0.000000 0.000000
vn 1.000000 0.000000 0.000000
vn 1.000000 0.000000 0.000000
vn 1.000000 0.000000 0.000000
vn 1.000000 0.000000 0.000000
vn 0.000000 1.000000 0.000000
vn 0.000000 1.000000 0.000000
vn 0.000000 1.000000 0.000000
vn 0.000000 1.000000 0.000000
vn -0.972705 -0.232045 -0.000002
vn -0.972705 -0.232045 -0.000002
vn -0.972705 -0.232045 -0.000002
vn -0.972705 -0.232045 -0.000002
vn 0.000000 0.000000 0.000000
vn 0.000000 0.000000 0.000000
vn 0.000000 0.000000 0.000000
vn 0.000000 0.000000 0.000000
vn 0.000000 0.000000 0.000000
vn 0.000000 0.000000 0.000000
vn 0.000000 0.000000 0.000000
vn 0.000000 0.000000 0.000000
vn -0.000000 0.000000 0.000000
vn -0.000000 0.000000 0.000000
vn -1.000000 0.000000 0.000000
vn -0.000000 0.000000 0.000000
vn 0.000000 0.000000 1.000000
vn 0.000000 0.000000 1.000000
vn 0.000000 0.000000 1.000000
vn 0.000000 0.000000 1.000000
vn 0.000000 1.000000 0.000000
vn 0.000000 1.000000 0.000000
vn 0.000000 1.000000 0.000000
vn 0.000000 1.000000 0.000000
vn 0.000000 0.000000 -1.000000
vn 0.000000 0.000000 -1.000000
vn 0.000000 0.000000 -1.000000
vn 0.000000 0.000000 -1.000000
vn 0.000000 -1.000000 0.000000
vn 0.000000 -1.000000 0.000000
vn 0.000000 -1.000000 0.000000
vn 0.000000 -1.000000 0.000000
vn 0.000000 0.000000 1.000000
vn 0.000000 0.000000 1.000000
vn 0.000000 0.000000 1.000000
vn 0.000000 0.000000 1.000000
vn 0.000000 0.000000 -1.000000
vn 0.000000 0.000000 -1.000000
vn 0.000000 0.000000 -1.000000
vn 0.000000 0.000000 -1.000000
vn 0.000000 0.000000 -1.000000
vn 0.000000 0.000000 -1.000000
vn 0.000000 0.000000 -1.000000
vn 0.000000 0.000000 -1.000000
vn 1.000000 0.000000 0.000001
vn 1.000000 0.000000 0.000001
vn 1.000000 0.000000 0.000001
vn 1.000000 0.000000 0.000001
vn 0.000000 0.000000 1.000000
vn 0.000000 0.000000 1.000000
vn 0.000000 0.000000 1.000000
vn 0.000000 0.000000 1.000000
vn -1.000000 0.000000 -0.000001
vn -1.000000 0.000000 -0.000001
vn -1.000000 0.000000 -0.000001
vn -1.000000 0.000000 -0.000001
vn -1.000000 0.000000 -0.000001
vn -1.000000 0.000000 -0.000001
vn -1.000000 0.000000 -0.000001
vn -1.000000 0.000000 -0.000001
vn 0.000000 0.000000 1.000000
vn 0.000000 0.000000 1.000000
vn 0.000000 0.000000 1.000000
vn 0.000000 0.000000 1.000000
vn 1.000000 0.000000 0.000000
vn 1.000000 0.000000 0.000000
vn 1.000000 0.000000 0.000000
vn 1.000000 0.000000 0.000000
vn 0.000000 0.000000 -1.000000
vn 0.000000 0.000000 -1.000000
vn 0.000000 0.000000 -1.000000
vn 0.000000 0.000000 -1.000000
vn 0.000000 -1.000000 0.000000
vn 0.000000 -1.000000 0.000000
vn 0.000000 -1.000000 0.000000
vn 0.000000 -1.000000 0.000000
vn 0.000000 0.000000 -1.000000
vn 0.000000 0.000000 -1.000000
vn 0.000000 0.000000 -1.000000
vn 0.000000 0.000000 -1.000000
vn 0.408372 0.912815 0.000000
vn 0.408372 0.912815 0.000000
vn 0.408372 0.912815 0.000000
vn 0.408372 0.912815 0.000000
vn 0.000000 0.000000 1.000000
vn 0.000000 0.000000 1.000000
vn 0.000000 0.000000 1.000000
vn 0.000000 0.000000 1.000000
s 1
g Cork_Board
usemtl initialShadingGroup
f 1/46/1 17/47/2 49/48/3 40/49/4
s 2
f 3/50/5 18/51/6 19/52/7 5/53/8
s 3
f 41/1/9 42/2/10 20/3/11 7/4/12
s off
f 85/54/13 86/55/14 87/56/15 88/57/16
f 94/58/17 93/59/18 95/60/19 96/61/20
s 4
f 7/62/21 1/46/22 40/49/23 41/63/24
s 1
f 47/64/25 48/65/26 9/66/27 13/67/28
s 2
f 11/68/29 10/69/30 14/70/31 15/71/32
s 3
f 12/5/33 43/6/34 44/7/35 16/8/36
s 5
f 9/66/37 12/72/38 16/73/39 13/67/40
s 1
f 46/74/41 47/64/25 13/67/28 2/75/42
s off
f 90/76/43 89/77/44 91/78/45 92/79/46
s 3
f 16/8/36 44/7/35 45/9/47 8/10/48
s 5
f 13/67/40 16/73/39 8/80/49 2/75/50
s 1
f 48/65/26 49/48/3 17/47/2 9/66/27
s 2
f 19/52/7 18/51/6 10/69/30 11/68/29
s 3
f 20/3/11 42/2/10 43/6/34 12/5/33
s 5
f 17/47/51 20/81/52 12/72/38 9/66/37
s off
f 79/82/53 80/83/54 81/84/55 82/85/56
s 3
f 5/11/57 19/12/58 39/13/59 30/14/60
f 38/15/61 39/13/59 19/12/58 11/16/62
f 37/17/63 38/15/61 11/16/62 15/18/64
f 36/19/65 37/17/63 15/18/64 6/20/66
s 7
f 35/86/67 36/87/68 6/88/69 4/89/70
s 1
f 14/70/71 34/90/72 35/86/73 4/89/74
f 10/69/75 33/91/76 34/90/72 14/70/71
f 18/51/77 32/92/78 33/91/76 10/69/75
f 31/93/79 32/92/78 18/51/77 3/50/80
s 4
f 22/94/81 21/95/82 31/93/83 30/96/84
s 1
f 21/95/85 29/97/86 32/92/78 31/93/79
s 9
f 67/37/87 66/38/88 68/39/89 69/40/90
f 70/41/91 67/37/87 69/40/90 71/42/92
s 1
f 35/86/73 34/90/72 28/98/93 27/99/94
s 7
f 27/99/95 26/100/96 36/87/68 35/86/67
s 3
f 26/21/97 25/22/98 37/17/63 36/19/65
f 25/22/98 24/23/99 38/15/61 37/17/63
f 24/23/99 23/24/100 39/13/59 38/15/61
f 30/14/60 39/13/59 23/24/100 22/25/101
s 4
f 41/63/24 40/49/23 21/95/82 22/94/81
s 3
f 22/25/101 23/24/100 42/2/10 41/1/9
f 43/6/34 42/2/10 23/24/100 24/23/99
f 44/7/35 43/6/34 24/23/99 25/22/98
f 45/9/47 44/7/35 25/22/98 26/21/97
s 7
f 46/74/102 45/101/103 26/100/96 27/99/95
s 1
f 27/99/94 28/98/93 47/64/25 46/74/41
s 9
f 71/42/92 69/40/90 72/43/104 73/44/105
f 69/40/90 68/39/89 74/45/106 72/43/104
s 1
f 40/49/4 49/48/3 29/97/86 21/95/85
s off
f 33//107 32//108 50//109 51//110
f 32//111 29//112 52//113 50//114
f 34//115 33//116 51//117 53//118
f 28//119 34//120 53//121 54//122
f 48//123 47//124 56//125 55//126
f 47//127 28//128 54//129 56//130
f 29//131 49//132 57//133 52//134
f 49//135 48//136 55//137 57//138
f 51//139 50//140 58//141 59//142
f 50//143 52//144 60//145 58//146
f 53//147 51//148 59//149 61//150
f 54//151 53//152 61//153 62//154
f 55//155 56//156 64//157 63//158
f 56//159 54//160 62//161 64//162
f 52//163 57//164 65//165 60//166
f 57//167 55//168 63//169 65//170
f 59/102/171 58/103/172 66/104/173 67/105/174
f 58/103/175 60/106/176 68/107/177 66/104/178
f 61/108/179 59/102/180 67/105/181 70/109/182
f 62/110/183 61/108/184 70/109/185 71/111/186
f 63/112/187 64/113/188 73/114/189 72/115/190
f 64/113/191 62/110/192 71/111/193 73/114/194
f 60/106/195 65/116/196 74/117/197 68/107/198
f 65/116/199 63/112/200 72/115/201 74/117/202
f 83/118/203 84/119/204 80/83/205 79/82/206
f 31//207 3//208 77//209 76//210
f 3//211 5//212 78//213 77//214
f 5/11/215 30/14/216 75/26/217 78/27/218
f 76/120/219 77/121/220 81/84/221 80/83/222
f 77/121/223 78/122/224 82/85/225 81/84/226
f 78/27/227 75/26/228 79/28/229 82/29/230
f 30/96/231 31/93/232 84/119/233 83/118/234
f 31/93/235 76/120/236 80/83/237 84/119/238
f 75/26/239 30/14/240 83/30/241 79/28/242
f 7/4/243 20/3/244 86/31/245 85/32/246
f 20/81/247 17/47/248 87/56/249 86/55/250
f 17/47/251 1/46/252 88/57/253 87/56/254
f 1/46/255 7/62/256 85/54/257 88/57/258
f 15/71/259 14/70/260 89/77/261 90/76/262
f 14/70/263 4/89/264 91/78/265 89/77/266
f 4/89/267 6/88/268 92/79/269 91/78/270
f 6/20/271 15/18/272 90/33/273 92/34/274
f 2/75/275 8/80/276 93/59/277 94/58/278
f 8/10/279 45/9/280 95/35/281 93/36/282
f 45/101/283 46/74/284 96/61/285 95/60/286
f 46/74/287 2/75/288 94/58/289 96/61/290
