# This file uses centimeters as units for non-parametric coordinates.

mtllib Frame.mtl
g default
v 0.330286 -2.220858 1.579599
v 0.728225 -2.123908 1.579599
v -0.728225 2.123908 1.579599
v -0.330286 2.220858 1.579599
v -0.728225 2.123908 -1.579599
v -0.330286 2.220858 -1.579599
v 0.330286 -2.220858 -1.579599
v 0.728225 -2.123908 -1.579599
v -0.728225 2.123908 0.000000
v 0.330286 -2.220858 0.000000
v 0.728225 -2.123908 0.000000
v -0.330286 2.220858 0.000000
v 0.330286 -2.220858 -1.421639
v -0.728225 2.123908 -1.421639
v -0.330286 2.220858 -1.421639
v 0.728225 -2.123908 -1.421639
v -0.728225 2.123908 1.421639
v 0.330286 -2.220858 1.421639
v 0.728225 -2.123908 1.421639
v -0.330286 2.220858 1.421639
v -0.306041 0.580573 1.579599
v -0.306041 0.580573 1.421639
v -0.306041 0.580573 0.000000
v -0.306041 0.580573 -1.421639
v -0.306041 0.580573 -1.579599
v 0.198969 0.048475 -1.579599
v 0.198969 0.048475 -1.421639
v 0.198969 0.048475 1.421639
v 0.198969 0.048475 1.579599
v -0.675299 1.906670 -1.579599
v -0.675299 1.906670 -1.421639
v -0.675299 1.906670 0.000000
v -0.675299 1.906670 1.421639
v -0.675299 1.906670 1.579599
v -0.277361 2.003620 1.579599
v -0.277361 2.003620 1.421639
v -0.277361 2.003620 0.000000
v -0.277361 2.003620 -1.421639
v -0.277361 2.003620 -1.579599
v 0.277361 -2.003620 1.579599
v 0.277361 -2.003620 1.421639
v 0.277361 -2.003620 0.000000
v 0.277361 -2.003620 -1.421639
v 0.277361 -2.003620 -1.579599
v 0.675299 -1.906670 -1.579599
v 0.675299 -1.906670 -1.421639
v 0.675299 -1.906670 0.000000
v 0.675299 -1.906670 1.421639
v 0.675299 -1.906670 1.579599
v 0.330286 -2.220858 0.426492
v 0.277361 -2.003620 0.426492
v -0.306041 0.580573 0.426492
v -0.675299 1.906670 0.426492
v -0.728225 2.123908 0.426492
v -0.330286 2.220858 0.426492
v -0.277361 2.003620 0.426492
v 0.675299 -1.906670 0.426492
v 0.728225 -2.123908 0.426492
v -0.728225 2.123908 -0.426492
v -0.675299 1.906670 -0.426492
v -0.306041 0.580573 -0.426492
v 0.277361 -2.003620 -0.426492
v 0.330286 -2.220858 -0.426492
v 0.728225 -2.123908 -0.426492
v 0.675299 -1.906670 -0.426492
v -0.277361 2.003620 -0.426492
v -0.330286 2.220858 -0.426492
v -0.412915 1.970595 0.426492
v -0.412915 1.970595 0.000000
v 0.063415 0.015450 0.426492
v 0.063415 0.015450 0.000000
v 0.063415 0.015450 -0.426492
v -0.412915 1.970595 -0.426492
v 0.539745 -1.939695 -0.426492
v 0.539745 -1.939695 0.000000
v 0.539745 -1.939695 0.426492
v -0.412915 1.970595 1.421639
v 0.063415 0.015450 1.421639
v 0.539745 -1.939695 1.421639
v 0.063415 0.015450 -1.421639
v 0.539745 -1.939695 -1.421639
v -0.412915 1.970595 -1.421639
v 0.277361 -2.003620 0.426492
v -0.306041 0.580573 0.426492
v -0.306041 0.580573 0.000000
v 0.277361 -2.003620 0.000000
v -0.306041 0.580573 -0.426492
v 0.277361 -2.003620 -0.426492
v -1.144697 -1.992803 0.000000
v -1.144697 -1.992803 -0.426492
v -1.150687 -2.216315 -0.426492
v -1.150687 -2.216315 0.000000
v -1.150687 -2.216315 0.426492
v -1.144697 -1.992803 0.426492
v -1.144697 -1.992803 0.426492
v -0.487411 -0.115934 0.426492
v -0.487411 -0.115934 0.000000
v -1.144697 -1.992803 0.000000
v -0.487411 -0.115934 -0.426492
v -1.144697 -1.992803 -0.426492
vt 0.655582 0.043328
vt 0.804636 0.043328
vt 0.655582 0.192382
vt 0.804636 0.192382
vt 0.655582 0.341435
vt 0.804636 0.341435
vt 0.655582 0.490489
vt 0.804636 0.490489
vt 0.655582 0.639543
vt 0.804636 0.639543
vt 0.953461 0.042903
vt 0.953461 0.192806
vt 0.506529 0.043328
vt 0.506529 0.192382
vt 0.581055 0.192382
vt 0.655582 0.266908
vt 0.742929 0.787572
vt 0.655582 0.565016
vt 0.804636 0.565016
vt 0.877825 0.043172
vt 0.804636 0.266908
vt 0.881069 0.193621
vt 0.513981 0.043328
vt 0.655582 0.497942
vt 0.513981 0.192382
vt 0.655582 0.333983
vt 0.804636 0.333983
vt 0.947220 0.193339
vt 0.804636 0.497942
vt 0.947220 0.042370
vt 0.648130 0.192382
vt 0.655582 0.199834
vt 0.648130 0.043328
vt 0.655582 0.632090
vt 0.804636 0.632090
vt 0.811860 0.042903
vt 0.804636 0.199834
vt 0.811860 0.192806
vt 0.655582 0.117855
vt 0.648130 0.117855
vt 0.581055 0.117855
vt 0.513981 0.117855
vt 0.506529 0.117855
vt 0.655582 0.415962
vt 0.804636 0.415962
vt 0.952450 0.124264
vt 0.918569 1.056198
vt 0.306509 0.652361
vt 0.784421 0.989124
vt 0.804636 0.117855
vt 0.506529 0.184929
vt 0.655582 0.348888
vt 0.513981 0.184929
vt 0.581055 0.184929
vt 0.648130 0.184929
vt 0.655582 0.184929
vt 0.804586 0.191237
vt 0.784421 1.056198
vt 0.841434 1.089736
vt 0.895094 1.089736
vt 0.804636 0.348888
vt 0.952450 0.191338
vt 0.655582 0.050781
vt 0.648130 0.050781
vt 0.581055 0.050781
vt 0.513981 0.050781
vt 0.506529 0.050781
vt 0.655582 0.483036
vt 0.804636 0.483036
vt 0.953740 0.044473
vt 0.918569 0.989124
vt 0.861556 0.955587
vt 0.807897 0.955587
vt 0.804636 0.050781
vt 0.774122 0.804906
vt 0.655582 0.585138
vt 0.601178 0.050781
vt 0.601178 0.117855
vt 0.601178 0.184929
vt 0.601178 0.192382
vt 0.655582 0.246786
vt 0.804636 0.246786
vt 0.855427 0.192459
vt 0.807897 1.089736
vt 0.230740 0.652361
vt 0.841434 0.955587
vt 0.804636 0.585138
vt 0.855145 0.041996
vt 0.560933 0.192382
vt 0.655582 0.287031
vt 0.560933 0.184929
vt 0.560933 0.117855
vt 0.859897 0.809853
vt 0.742929 0.760294
vt 0.655582 0.544893
vt 0.804636 0.544893
vt 0.902898 0.043250
vt 0.895094 0.955587
vt 0.382278 0.652361
vt 0.861556 1.089736
vt 0.804636 0.287031
vt 0.903180 0.193714
vt 0.306509 0.904924
vt 0.807897 1.089736
vt 0.382278 0.904924
vt 0.306509 0.399798
vt 0.895094 0.955587
vt 0.230740 0.399798
vt 0.784421 1.056198
vt 0.784421 0.989124
vt 0.807897 0.955587
vt 0.918569 0.989124
vt 0.918569 1.056198
vt 0.559072 0.904924
vt 0.771575 0.815359
vt 0.808577 0.817904
vt 0.780956 0.817904
vt 0.581055 0.050781
vt 0.856971 0.797844
vt 0.560933 0.050781
vt 0.780915 0.803217
vt 0.938834 0.798096
vt 0.837596 0.760294
vt 0.837596 0.787541
vt 0.808577 0.803217
vt 0.601178 0.050781
vt 0.836239 0.803217
vt 0.836198 0.817904
vt 0.836198 0.817904
vt 0.832353 0.940500
vt 0.938503 0.810451
vt 0.560933 0.050781
vt 0.895094 1.089736
vt 0.559072 0.652361
vt 0.559072 0.652361
vt 0.382278 0.904924
vt 0.861556 1.089736
vt 0.559072 0.399798
vt 0.382278 0.399798
vt 0.382278 0.399798
vt 0.382278 0.652361
vt 0.382278 0.652361
vt 0.382278 0.652361
vt 0.230740 0.399798
vt 0.841434 0.955587
vt 0.053946 0.399798
vt 0.053946 0.652361
vt 0.053946 0.652361
vt 0.230740 0.652361
vt 0.230740 0.652361
vt 0.230740 0.652361
vt 0.053946 0.904924
vt 0.230740 0.904924
vt 0.230740 0.904924
vt 0.306509 0.399798
vt 0.861556 0.955587
vt 0.306509 0.652361
vt 0.306509 0.652361
vt 0.306509 0.652361
vt 0.306509 0.904924
vt 0.841434 1.089736
vt 0.808577 0.940500
vt 0.581055 0.050781
vt 0.892145 0.952697
vt 0.808577 0.817904
vt 0.784801 0.940500
vt 0.780956 0.817904
vt 0.859897 0.809853
vt 0.831473 0.978132
vt 0.808577 0.978132
vt 0.785680 0.978132
vt 0.560933 0.117855
vt 0.560933 0.050781
vt 0.703153 0.815879
vt 0.601178 0.050781
vt 0.702865 0.805125
vt 0.938503 0.810451
vt 0.581055 0.117855
vt 0.560933 0.043328
vt 0.601178 0.117855
vt 0.771575 0.815359
vt 0.545641 0.116730
vt 0.742929 0.733016
vt 0.560933 0.050781
vt 0.837596 0.733048
vt 0.743505 0.939697
vt 0.601178 0.043328
vt 0.734778 0.906185
vt 0.902170 0.914197
vt 0.703153 0.815879
vt 0.581055 0.050781
vt 0.918569 1.056198
vt 0.918569 0.989124
vt 0.895094 1.089736
vt 0.942342 0.183597
vt 0.946465 0.184504
vt 0.946187 0.191237
vt 0.918569 1.056198
vt 0.895094 0.955587
vt 0.861556 0.955587
vt 0.947476 0.044372
vt 0.946465 0.051205
vt 0.942624 0.050858
vt 0.895094 0.955587
vt 0.947476 0.111446
vt 0.946187 0.124163
vt 0.918569 0.989124
vt 0.807897 0.955587
vt 0.784421 0.989124
vt 0.784421 1.056198
vt 0.815984 0.052113
vt 0.811106 0.051738
vt 0.812139 0.044473
vt 0.784421 0.989124
vt 0.807897 1.089736
vt 0.810849 0.124264
vt 0.812139 0.111547
vt 0.784421 1.056198
vt 0.841434 1.089736
vt 0.810849 0.191338
vt 0.811106 0.183971
vt 0.815702 0.184851
vt 0.807897 1.089736
vt 0.841434 0.955587
vt 0.860379 0.050937
vt 0.855427 0.050858
vt 0.807897 0.955587
vt 0.881069 0.052020
vt 0.877257 0.052020
vt 0.841434 0.955587
vt 0.903180 0.052113
vt 0.897947 0.050937
vt 0.861556 0.955587
vt 0.861556 1.089736
vt 0.897379 0.183689
vt 0.902898 0.184851
vt 0.895094 1.089736
vt 0.877825 0.184772
vt 0.880501 0.184772
vt 0.861556 1.089736
vt 0.855145 0.183597
vt 0.860946 0.183689
vt 0.841434 1.089736
vt 0.897947 0.192538
vt 0.897379 0.042088
vt 0.942624 0.192459
vt 0.880501 0.043171
vt 0.860946 0.042088
vt 0.860379 0.192538
vt 0.815702 0.043250
vt 0.877257 0.193621
vt 0.805875 0.044372
vt 0.804864 0.051205
vt 0.952707 0.051738
vt 0.805875 0.111446
vt 0.804586 0.124163
vt 0.942342 0.041996
vt 0.952707 0.183971
vt 0.804636 0.184929
vt 0.804864 0.184504
vt 0.953740 0.111547
vt 0.815984 0.193714
vt 0.805619 0.193339
vt 0.805619 0.042370
vt 0.581055 0.050781
vt 0.560933 0.050781
vt 0.560933 0.050781
vt 0.581055 0.050781
vt 0.581055 0.050781
vt 0.581055 0.050781
vt 0.601178 0.050781
vt 0.601178 0.050781
vt 0.581055 0.050781
vt 0.601178 0.050781
vt 0.545641 0.116730
vt 0.601178 0.050781
vt 0.601178 0.050781
vt 0.560933 0.050781
vt 0.560933 0.050781
vt 0.560933 0.050781
vt 0.560933 0.050781
vt 0.581055 0.050781
vt 0.581055 0.050781
vt 0.581055 0.050781
vt 0.560933 0.117855
vt 0.581055 0.117855
vt 0.560933 0.117855
vt 0.560933 0.117855
vt 0.560933 0.117855
vt 0.560933 0.117855
vt 0.545641 0.183804
vt 0.581055 0.117855
vt 0.581055 0.117855
vt 0.581055 0.117855
vt 0.601178 0.117855
vt 0.601178 0.117855
vt 0.601178 0.117855
vt 0.545641 0.183804
vt 0.804636 0.287031
vt 0.560933 0.192382
vt 0.655582 0.287031
vt 0.655582 0.544893
vt 0.804636 0.544893
vt 0.560933 0.184929
vt 0.560933 0.184929
vt 0.560933 0.184929
vt 0.804636 0.333983
vt 0.804636 0.565016
vt 0.655582 0.565016
vt 0.513981 0.050781
vt 0.513981 0.050781
vt 0.513981 0.050781
vt 0.513981 0.117855
vt 0.513981 0.117855
vt 0.513981 0.117855
vt 0.581055 0.184929
vt 0.581055 0.184929
vt 0.581055 0.184929
vt 0.513981 0.192382
vt 0.655582 0.333983
vt 0.804636 0.585138
vt 0.655582 0.585138
vt 0.601178 0.192382
vt 0.655582 0.246786
vt 0.804636 0.246786
vt 0.601178 0.184929
vt 0.601178 0.184929
vt 0.601178 0.184929
vt 0.804636 0.632090
vt 0.804636 0.266908
vt 0.581055 0.192382
vt 0.655582 0.266908
vt 0.648130 0.184929
vt 0.648130 0.184929
vt 0.648130 0.184929
vt 0.648130 0.043328
vt 0.655582 0.632090
vt 0.804636 0.050781
vt 0.655582 0.050781
vt 0.655582 0.050781
vt 0.655582 0.050781
vt 0.506529 0.050781
vt 0.655582 0.483036
vt 0.804636 0.483036
vt 0.648130 0.050781
vt 0.648130 0.050781
vt 0.648130 0.050781
vt 0.804636 0.117855
vt 0.804636 0.490489
vt 0.655582 0.490489
vt 0.655582 0.117855
vt 0.655582 0.117855
vt 0.655582 0.117855
vt 0.804636 0.348888
vt 0.506529 0.184929
vt 0.655582 0.348888
vt 0.655582 0.184929
vt 0.655582 0.184929
vt 0.655582 0.184929
vt 0.804636 0.184929
vt 0.513981 0.184929
vt 0.513981 0.184929
vt 0.513981 0.184929
vt 0.804636 0.415962
vt 0.804636 0.192382
vt 0.655582 0.192382
vt 0.655582 0.192382
vt 0.648130 0.117855
vt 0.648130 0.117855
vt 0.648130 0.117855
vt 0.506529 0.117855
vt 0.655582 0.415962
vt 0.804636 0.199834
vt 0.648130 0.192382
vt 0.655582 0.199834
vt 0.655582 0.043328
vt 0.804636 0.497942
vt 0.513981 0.043328
vt 0.655582 0.497942
vt 0.804636 0.341435
vt 0.655582 0.341435
vn 0.000000 0.000000 1.000000
vn 0.000000 0.000000 1.000000
vn 0.000000 0.000000 1.000000
vn 0.000000 0.000000 1.000000
vn -0.236707 0.971581 0.000000
vn -0.236707 0.971581 0.000000
vn -0.236707 0.971581 0.000000
vn -0.236707 0.971581 0.000000
vn 0.000000 0.000000 -1.000000
vn 0.000000 0.000000 -1.000000
vn 0.000000 0.000000 -1.000000
vn 0.000000 0.000000 -1.000000
vn 0.236707 -0.971581 0.000000
vn 0.236707 -0.971581 0.000000
vn 0.236707 -0.971581 0.000000
vn 0.236707 -0.971581 0.000000
vn 0.971582 0.236705 0.000000
vn 0.971582 0.236705 0.000000
vn 0.971582 0.236705 0.000000
vn 0.971581 0.236705 0.000000
vn -0.975160 -0.221501 0.000000
vn -0.975160 -0.221501 0.000000
vn -0.971582 -0.236705 0.000000
vn -0.971582 -0.236705 0.000000
vn -0.971582 -0.236705 0.000000
vn -0.971582 -0.236705 0.000000
vn -0.975160 -0.221501 0.000000
vn -0.975160 -0.221501 0.000000
vn 0.236707 -0.971581 0.000000
vn 0.236707 -0.971581 0.000000
vn 0.236707 -0.971581 0.000000
vn 0.236707 -0.971581 0.000000
vn 0.971581 0.236705 0.000000
vn 0.971582 0.236705 0.000000
vn 0.971582 0.236705 0.000000
vn 0.971582 0.236705 0.000000
vn -0.236707 0.971581 0.000000
vn -0.236707 0.971581 0.000000
vn -0.236707 0.971581 0.000000
vn -0.236707 0.971581 0.000000
vn -0.999641 0.026786 0.000000
vn -0.999641 0.026786 0.000000
vn -0.999641 0.026786 0.000000
vn -0.999641 0.026786 0.000000
vn -0.236707 0.971581 0.000000
vn -0.236707 0.971581 0.000000
vn -0.236707 0.971581 0.000000
vn -0.236707 0.971581 0.000000
vn 0.971582 0.236705 0.000000
vn 0.971582 0.236705 0.000000
vn 0.971582 0.236705 0.000000
vn 0.971582 0.236705 0.000000
vn 0.236707 -0.971581 0.000000
vn 0.236707 -0.971581 0.000000
vn 0.236707 -0.971581 0.000000
vn 0.236707 -0.971581 0.000000
vn -0.999641 0.026786 0.000000
vn -0.999641 0.026786 0.000000
vn 0.236707 -0.971581 0.000000
vn 0.236707 -0.971581 0.000000
vn 0.971581 0.236705 0.000000
vn 0.971582 0.236705 0.000000
vn -0.236707 0.971581 0.000000
vn -0.236707 0.971581 0.000000
vn -0.971582 -0.236705 0.000000
vn -0.964561 -0.263858 0.000000
vn -0.964561 -0.263858 0.000000
vn -0.971582 -0.236705 0.000000
vn -0.971582 -0.236705 0.000000
vn -0.964561 -0.263858 0.000000
vn -0.964561 -0.263858 0.000000
vn -0.971582 -0.236705 0.000000
vn -0.971582 -0.236705 0.000000
vn -0.964561 -0.263858 0.000000
vn -0.964561 -0.263858 0.000000
vn -0.964561 -0.263858 0.000000
vn -0.971582 -0.236705 0.000000
vn -0.971582 -0.236705 0.000000
vn 0.000000 0.000000 -1.000000
vn 0.000000 0.000000 -1.000000
vn 0.000000 0.000000 -1.000000
vn 0.000000 0.000000 -1.000000
vn 0.971582 0.236705 0.000000
vn 0.971582 0.236705 0.000000
vn 0.971582 0.236705 0.000000
vn 0.971582 0.236705 0.000000
vn 0.971582 0.236705 0.000000
vn 0.971582 0.236705 0.000000
vn 0.971582 0.236705 0.000000
vn 0.971582 0.236705 0.000000
vn 0.971582 0.236705 0.000000
vn 0.971582 0.236705 0.000000
vn 0.971582 0.236705 0.000000
vn 0.971582 0.236705 0.000000
vn 0.971582 0.236705 0.000000
vn 0.971582 0.236705 0.000000
vn 0.000000 0.000000 1.000000
vn 0.000000 0.000000 1.000000
vn 0.000000 0.000000 1.000000
vn 0.000000 0.000000 1.000000
vn -0.971581 -0.236705 0.000000
vn -0.971581 -0.236705 0.000000
vn -0.970587 -0.240752 0.000000
vn -0.963349 -0.268249 0.000000
vn -0.970587 -0.240752 0.000000
vn -0.971581 -0.236705 0.000000
vn -0.971581 -0.236705 0.000000
vn 0.000000 0.000000 1.000000
vn 0.000000 0.000000 1.000000
vn 0.971581 0.236705 0.000000
vn 0.971581 0.236705 0.000000
vn 0.971581 0.236705 0.000000
vn 0.971581 0.236705 0.000000
vn 0.971581 0.236705 0.000000
vn 0.971581 0.236705 0.000000
vn 0.971581 0.236705 0.000000
vn 0.971581 0.236705 0.000000
vn 0.971581 0.236705 0.000000
vn 0.971581 0.236705 0.000000
vn 0.000000 0.000000 -1.000000
vn 0.000000 0.000000 -1.000000
vn -0.943798 0.330522 0.000000
vn -0.943798 0.330522 0.000000
vn -0.943798 0.330522 0.000000
vn -0.943798 0.330522 0.000000
vn -0.943798 0.330522 0.000000
vn -0.943798 0.330522 0.000000
vn 0.971581 0.236705 0.000000
vn 0.971581 0.236705 0.000000
vn 0.971581 0.236705 0.000000
vn -0.975160 -0.221501 0.000000
vn -0.971582 -0.236705 0.000000
vn 0.971581 0.236705 0.000000
vn 0.971581 0.236705 0.000000
vn 0.971581 0.236705 0.000000
vn -0.975160 -0.221501 0.000000
vn -0.971582 -0.236705 0.000000
vn 0.971581 0.236705 0.000000
vn 0.971581 0.236705 0.000000
vn 0.971581 0.236705 0.000000
vn 0.236705 -0.971581 0.000000
vn 0.236705 -0.971581 0.000000
vn 0.236705 -0.971581 0.000000
vn 0.236705 -0.971581 0.000000
vn 0.236705 -0.971581 0.000000
vn 0.236705 -0.971581 0.000000
vn 0.236705 -0.971581 0.000000
vn 0.236705 -0.971581 0.000000
vn -0.236707 0.971581 0.000000
vn -0.236707 0.971581 0.000000
vn -0.236707 0.971581 0.000000
vn -0.236707 0.971581 0.000000
vn -0.236707 0.971581 0.000000
vn -0.236707 0.971581 0.000000
vn -0.236707 0.971581 0.000000
vn -0.236707 0.971581 0.000000
vn 0.236705 -0.971581 0.000000
vn 0.236705 -0.971581 0.000000
vn 0.236705 -0.971581 0.000000
vn 0.236705 -0.971581 0.000000
vn 0.000000 0.000000 -1.000000
vn 0.000000 0.000000 -1.000000
vn 0.000000 0.000000 -1.000000
vn 0.000000 0.000000 -1.000000
vn 0.000000 0.000000 -1.000000
vn 0.000000 0.000000 -1.000000
vn 0.000000 0.000000 -1.000000
vn 0.000000 0.000000 -1.000000
vn -0.236707 0.971581 0.000000
vn -0.236707 0.971581 0.000000
vn -0.236707 0.971581 0.000000
vn -0.236707 0.971581 0.000000
vn -0.236707 0.971581 0.000000
vn -0.236707 0.971581 0.000000
vn -0.236707 0.971581 0.000000
vn -0.236707 0.971581 0.000000
vn -0.000000 -0.000000 1.000000
vn -0.000000 -0.000000 1.000000
vn -0.000000 -0.000000 1.000000
vn -0.000000 -0.000000 1.000000
vn 0.236705 -0.971581 0.000000
vn 0.236705 -0.971581 0.000000
vn 0.236705 -0.971581 0.000000
vn 0.236705 -0.971581 0.000000
vn -0.000000 -0.000000 1.000000
vn -0.000000 -0.000000 1.000000
vn -0.000000 -0.000000 1.000000
vn -0.000000 -0.000000 1.000000
vn 0.000000 0.000000 -1.000000
vn 0.000000 0.000000 -1.000000
vn 0.000000 0.000000 -1.000000
vn 0.000000 0.000000 -1.000000
vn 0.236705 -0.971581 0.000000
vn 0.236705 -0.971581 0.000000
vn 0.236705 -0.971581 0.000000
vn 0.236705 -0.971581 0.000000
vn 0.236705 -0.971581 0.000000
vn 0.236705 -0.971581 0.000000
vn 0.236705 -0.971581 0.000000
vn 0.236705 -0.971581 0.000000
vn 0.236705 -0.971581 0.000000
vn 0.236705 -0.971581 0.000000
vn 0.236705 -0.971581 0.000000
vn 0.236705 -0.971581 0.000000
vn -0.000000 0.000000 1.000000
vn -0.000000 0.000000 1.000000
vn -0.000000 0.000000 1.000000
vn -0.000000 0.000000 1.000000
vn 0.236705 -0.971581 0.000000
vn 0.236705 -0.971581 0.000000
vn 0.236705 -0.971581 0.000000
vn 0.236705 -0.971581 0.000000
vn 0.007606 0.999971 0.000000
vn 0.007606 0.999971 0.000000
vn 0.007606 0.999971 0.000000
vn 0.007606 0.999971 0.000000
vn -0.000000 0.000000 -1.000000
vn -0.000000 0.000000 -1.000000
vn -0.000000 0.000000 -1.000000
vn -0.000000 0.000000 -1.000000
vn -0.003067 -0.999995 0.000000
vn -0.003067 -0.999995 0.000000
vn -0.003067 -0.999995 0.000000
vn -0.003067 -0.999995 0.000000
vn 0.000000 0.000000 1.000000
vn 0.000000 0.000000 1.000000
vn 0.000000 0.000000 1.000000
vn 0.000000 0.000000 1.000000
vn 0.007606 0.999971 0.000000
vn 0.007606 0.999971 0.000000
vn 0.007606 0.999971 0.000000
vn 0.007606 0.999971 0.000000
vn -0.003067 -0.999995 0.000000
vn -0.003067 -0.999995 0.000000
vn -0.003067 -0.999995 0.000000
vn -0.003067 -0.999995 0.000000
vn 0.000000 0.000000 1.000000
vn 0.000000 0.000000 1.000000
vn 0.000000 0.000000 1.000000
vn 0.000000 0.000000 1.000000
vn -0.967728 0.251996 0.000000
vn -0.967728 0.251996 0.000000
vn -0.967728 0.251996 0.000000
vn -0.967728 0.251996 0.000000
vn -0.007606 -0.999971 0.000000
vn -0.007606 -0.999971 0.000000
vn -0.007606 -0.999971 0.000000
vn -0.007606 -0.999971 0.000000
vn -0.967728 0.251996 0.000000
vn -0.967728 0.251996 0.000000
vn -0.967728 0.251996 0.000000
vn -0.967728 0.251996 0.000000
vn 0.000000 -0.000000 -1.000000
vn 0.000000 -0.000000 -1.000000
vn 0.000000 -0.000000 -1.000000
vn 0.000000 -0.000000 -1.000000
vn -0.007606 -0.999971 0.000000
vn -0.007606 -0.999971 0.000000
vn -0.007606 -0.999971 0.000000
vn -0.007606 -0.999971 0.000000
s 1
g Frame
usemtl initialShadingGroup
f 1/376/1 2/2/2 49/338/3 40/63/4
s 2
f 3/366/5 4/365/6 20/37/7 17/32/8
s 3
f 44/343/9 45/344/10 8/8/11 7/350/12
s 4
f 18/34/13 19/329/14 2/10/15 1/9/16
s 5
f 2/264/17 19/36/18 48/212/19 49/253/20
s 6
f 40/339/21 41/346/22 18/336/23 1/1/24
f 7/13/25 13/23/26 43/310/27 44/342/28
s 4
f 7/7/29 8/349/30 16/29/31 13/24/32
s 5
f 45/254/33 46/202/34 16/30/35 8/11/36
s 2
f 14/26/37 15/307/38 6/6/39 5/381/40
s 11
f 89/116/41 90/117/42 91/121/43 92/125/44
s 2
f 9/16/45 12/330/46 67/299/47 59/90/48
s 5
f 64/245/49 65/232/50 47/228/51 11/247/52
s 4
f 63/95/53 64/303/54 11/19/55 10/309/56
s 11
f 93/127/57 94/128/58 89/116/41 92/125/44
s 4
f 10/18/56 11/308/55 58/321/59 50/322/60
s 5
f 47/229/51 57/225/61 58/248/62 11/20/52
s 2
f 54/324/63 55/325/64 12/21/46 9/332/45
s 6
f 17/31/65 33/333/66 34/358/67 3/3/68
f 9/15/69 32/316/70 53/328/71 54/323/72
f 59/89/73 60/305/74 32/54/70 9/331/69
f 30/51/75 31/362/76 14/319/77 5/14/78
s 3
f 5/5/79 6/380/80 39/354/81 30/52/82
s 5
f 15/28/83 38/196/84 39/258/85 6/12/86
f 12/22/87 37/239/88 66/235/89 67/244/90
f 55/249/91 56/242/92 37/238/88 12/251/87
f 35/260/93 36/221/94 20/38/95 4/263/96
s 1
f 34/359/97 35/360/98 4/4/99 3/367/100
s 6
f 25/43/101 24/314/102 31/361/76 30/355/75
f 32/318/70 60/306/74 61/289/103 23/292/104
f 52/295/105 53/327/71 32/317/70 23/293/104
f 34/357/67 33/334/66 22/40/106 21/351/107
s 1
f 21/352/108 29/348/109 35/259/98 34/56/97
s 5
f 29/255/110 28/217/111 36/220/94 35/57/93
s 21
f 69/160/112 68/153/113 70/149/114 71/157/115
f 72/142/116 73/136/117 69/103/112 71/158/115
s 5
f 39/62/85 38/197/84 27/205/118 26/261/119
s 3
f 30/356/82 39/61/81 26/45/120 25/372/121
s 6
f 21/39/107 22/368/106 41/345/22 40/340/21
s 22
f 95/129/122 96/130/123 97/162/124 98/165/125
f 97/162/124 99/166/126 100/167/127 98/165/125
s 6
f 44/67/28 43/311/27 24/313/102 25/371/101
s 3
f 25/44/121 26/364/120 45/69/10 44/68/9
s 5
f 26/46/119 27/206/118 46/201/34 45/70/33
s 21
f 74/139/128 72/141/116 71/159/115 75/155/129
f 71/48/115 70/150/114 76/144/130 75/106/129
s 5
f 49/252/20 48/213/19 28/216/111 29/256/110
s 1
f 40/341/4 49/74/3 29/50/109 21/353/108
s 6
f 41/347/22 51/277/131 50/187/132 18/33/23
f 22/369/106 52/297/105 51/276/131 41/64/22
f 33/335/66 53/326/71 52/296/105 22/370/106
f 54/80/72 53/79/71 33/55/66 17/374/65
s 2
f 17/375/8 20/373/7 55/82/64 54/81/63
s 5
f 20/262/95 36/222/94 56/241/92 55/83/91
s 21
f 70/85/114 68/154/113 77/152/133 78/147/134
f 76/108/130 70/151/114 78/148/134 79/146/135
s 5
f 58/88/62 57/226/61 48/211/19 19/250/18
s 4
f 50/76/60 58/87/59 19/35/14 18/337/13
s 6
f 14/25/77 31/363/76 60/304/74 59/300/73
f 61/288/103 60/91/74 31/53/76 24/315/102
f 62/278/136 61/287/103 24/42/102 43/312/27
f 63/179/137 62/173/136 43/66/27 13/378/26
s 4
f 13/379/32 16/377/31 64/96/54 63/302/53
s 5
f 46/203/34 65/231/50 64/97/49 16/257/35
s 21
f 80/134/138 72/99/116 74/140/128 81/138/139
f 82/114/140 73/105/117 72/143/116 80/135/138
s 5
f 67/102/90 66/236/89 38/195/84 15/246/83
s 2
f 59/301/48 67/101/47 15/27/38 14/320/37
s off
f 37/59/141 56/243/142 68/219/143 69/161/144
f 66/100/145 37/240/146 69/234/147 73/137/148
f 47/72/149 65/233/150 74/200/151 75/156/152
f 57/86/153 47/230/154 75/224/155 76/145/156
f 56/84/157 36/223/158 77/215/159 68/104/160
f 36/58/161 28/218/162 78/210/163 77/109/164
f 28/49/165 48/214/166 79/209/167 78/110/168
f 48/73/169 57/227/170 76/208/171 79/111/172
f 65/98/173 46/204/174 81/199/175 74/107/176
f 46/71/177 27/207/178 80/193/179 81/112/180
f 38/60/181 66/237/182 73/194/183 82/133/184
f 27/47/185 38/198/186 82/192/187 80/113/188
f 51/275/189 52/298/190 84/291/191 83/182/192
f 52/78/193 23/294/194 85/286/195 84/180/196
f 42/283/197 51/274/198 83/271/199 86/268/200
f 23/41/201 61/290/202 87/285/203 85/178/204
f 61/92/205 62/279/206 88/267/207 87/172/208
f 62/280/209 42/282/210 86/269/211 88/266/212
f 42/65/213 62/281/214 90/184/215 89/191/216
f 62/93/217 63/119/218 91/122/219 90/131/220
f 63/17/221 10/94/222 92/123/223 91/124/224
f 50/75/225 51/115/226 94/174/227 93/176/228
f 51/77/229 42/284/230 89/273/231 94/126/232
f 10/94/233 50/183/234 93/185/235 92/123/236
f 83/181/237 84/186/238 96/188/239 95/190/240
f 84/169/241 85/170/242 97/162/243 96/130/244
f 86/118/245 83/272/246 95/175/247 98/163/248
f 85/170/249 87/171/250 99/166/251 97/162/252
f 87/164/253 88/168/254 100/177/255 99/189/256
f 88/120/257 86/270/258 98/265/259 100/132/260
