# This file uses centimeters as units for non-parametric coordinates.

mtllib Gravestone 2.mtl
g default
v -0.100000 0.139178 0.051487
v -0.000000 0.139178 0.051487
v 0.100000 0.139178 0.051487
v -0.100000 0.338762 0.051487
v -0.000000 0.338762 0.051487
v 0.100000 0.338762 0.051487
v -0.100000 0.438762 0.051487
v -0.000000 0.438762 0.051487
v 0.100000 0.438762 0.051487
v -0.100000 0.538762 0.051487
v -0.000000 0.538762 0.051487
v 0.100000 0.538762 0.051487
v -0.349005 0.638762 0.051487
v -0.300000 0.686823 0.051487
v -0.200000 0.686823 0.051487
v -0.100000 0.669045 0.051487
v -0.000000 0.638762 0.051487
v 0.100000 0.669045 0.051487
v 0.200000 0.686823 0.051487
v 0.300000 0.686823 0.051487
v 0.351698 0.638762 0.051487
v -0.403176 0.738762 0.051487
v -0.300000 0.738762 0.051487
v -0.200000 0.738762 0.051487
v -0.100000 0.738762 0.051487
v -0.000000 0.738762 0.051487
v 0.100000 0.738762 0.051487
v 0.200000 0.738762 0.051487
v 0.300000 0.738762 0.051487
v 0.400000 0.738762 0.051487
v 0.398731 0.738762 0.051487
v -0.354128 0.835003 0.051487
v -0.300000 0.773327 0.051487
v -0.200000 0.778022 0.051487
v -0.100000 0.799816 0.051487
v -0.000000 0.838762 0.051487
v 0.100000 0.799816 0.051487
v 0.200000 0.778022 0.051487
v 0.300000 0.778022 0.051487
v 0.351698 0.838762 0.051487
v -0.077420 0.938762 0.051487
v -0.000000 0.938762 0.051487
v 0.073393 0.938762 0.051487
v -0.100000 1.006851 0.051487
v -0.000000 1.045575 0.051487
v 0.100000 1.006851 0.051487
v -0.100000 1.006851 -0.051487
v -0.000000 1.045575 -0.051487
v 0.100000 1.006851 -0.051487
v -0.077420 0.938762 -0.051487
v -0.000000 0.938762 -0.051487
v 0.073393 0.938762 -0.051487
v -0.354128 0.838762 -0.051487
v -0.300000 0.773327 -0.051487
v -0.200000 0.778022 -0.051487
v -0.100000 0.799816 -0.051487
v -0.000000 0.838762 -0.051487
v 0.100000 0.799816 -0.051487
v 0.200000 0.778022 -0.051487
v 0.300000 0.778022 -0.051487
v 0.351698 0.838762 -0.051487
v -0.403176 0.738762 -0.051487
v -0.400000 0.738762 -0.051487
v -0.300000 0.738762 -0.051487
v -0.200000 0.738762 -0.051487
v -0.100000 0.738762 -0.051487
v -0.000000 0.738762 -0.051487
v 0.100000 0.738762 -0.051487
v 0.200000 0.738762 -0.051487
v 0.300000 0.738762 -0.051487
v 0.400000 0.738762 -0.051487
v 0.398731 0.738762 -0.051487
v -0.349005 0.638762 -0.051487
v -0.300000 0.671910 -0.051487
v -0.200000 0.686823 -0.051487
v -0.100000 0.669046 -0.051487
v -0.000000 0.638762 -0.051487
v 0.100000 0.669046 -0.051487
v 0.200000 0.686823 -0.051487
v 0.300000 0.686823 -0.051487
v 0.351698 0.638762 -0.051487
v -0.100000 0.538762 -0.051487
v -0.000000 0.538762 -0.051487
v 0.100000 0.538762 -0.051487
v -0.100000 0.438762 -0.051487
v -0.000000 0.438762 -0.051487
v 0.100000 0.438762 -0.051487
v -0.100000 0.338762 -0.051487
v -0.000000 0.338762 -0.051487
v 0.100000 0.338762 -0.051487
v -0.100000 0.139178 -0.051487
v -0.000000 0.139178 -0.051487
v 0.100000 0.139178 -0.051487
v -0.403176 0.738762 0.051487
v -0.300000 0.738762 0.051487
v -0.172073 0.084366 0.105165
v 0.162943 0.084366 0.105165
v -0.200357 0.146051 0.105165
v 0.195037 0.146051 0.105165
v -0.200357 0.146051 -0.105165
v 0.195037 0.146051 -0.105165
v -0.172073 0.084366 -0.105165
v 0.162943 0.084366 -0.105165
v -0.229999 -0.010946 0.144056
v 0.226049 -0.010946 0.144056
v -0.194291 0.088087 0.144056
v 0.192245 0.088087 0.144056
v -0.194291 0.088087 -0.144056
v 0.192245 0.088087 -0.144056
v -0.229999 -0.010946 -0.144056
v 0.226049 -0.010946 -0.144056
v -0.231500 0.047370 0.144056
v -0.231500 0.047370 -0.144056
v 0.229014 0.047370 -0.144056
v 0.229014 0.047370 0.144056
vt 0.606423 0.732908
vt 0.519829 0.649826
vt 0.519829 0.791095
vt 0.415577 0.356168
vt 0.506277 0.356168
vt 0.506277 0.446869
vt 0.415577 0.446869
vt 0.506277 0.537569
vt 0.415577 0.537569
vt 0.506277 0.628269
vt 0.415577 0.628269
vt 0.596977 0.356168
vt 0.596977 0.446869
vt 0.324877 0.356168
vt 0.324877 0.446869
vt 0.424359 0.043736
vt 0.493851 0.043736
vt 0.493851 0.097168
vt 0.424359 0.097168
vt 0.424359 0.113229
vt 0.493851 0.113229
vt 0.493851 0.182721
vt 0.424359 0.182721
vt 0.424359 0.198782
vt 0.493851 0.198782
vt 0.493851 0.252213
vt 0.424359 0.252213
vt 0.493851 0.321705
vt 0.424359 0.321705
vt 0.563343 0.043736
vt 0.563343 0.097168
vt 0.354867 0.043736
vt 0.354867 0.097168
vt 0.354867 0.113229
vt 0.563343 0.113229
vt 0.361083 0.689090
vt 0.361083 0.673505
vt 0.361083 0.673505
vt 0.377132 0.673505
vt 0.377132 0.673505
vt 0.377132 0.689090
vt 0.361083 0.657919
vt 0.377132 0.657919
vt 0.331196 0.690197
vt 0.347245 0.690197
vt 0.347245 0.705783
vt 0.331196 0.705783
vt 0.347245 0.720783
vt 0.331196 0.721369
vt 0.412634 0.657919
vt 0.412634 0.679574
vt 0.396585 0.679574
vt 0.396585 0.657919
vt 0.396585 0.690187
vt 0.412634 0.690187
vt 0.394883 0.679574
vt 0.394883 0.690187
vt 0.378834 0.690187
vt 0.378834 0.679574
vt 0.378834 0.657919
vt 0.394883 0.657919
vt 0.503089 0.740502
vt 0.503089 0.720197
vt 0.519139 0.720197
vt 0.519139 0.740502
vt 0.503089 0.704611
vt 0.519139 0.704611
vt 0.503089 0.689025
vt 0.519139 0.689025
vt 0.503089 0.657919
vt 0.519139 0.657919
vt 0.501388 0.657919
vt 0.501388 0.689025
vt 0.485339 0.689025
vt 0.485339 0.657919
vt 0.501388 0.704611
vt 0.485339 0.704611
vt 0.501388 0.720197
vt 0.485339 0.720197
vt 0.501388 0.740502
vt 0.485339 0.740502
vt 0.343332 0.689090
vt 0.343332 0.673505
vt 0.359382 0.673505
vt 0.359382 0.689090
vt 0.343332 0.657919
vt 0.359382 0.657919
vt 0.449837 0.697148
vt 0.449837 0.681562
vt 0.465886 0.681562
vt 0.465886 0.697148
vt 0.449837 0.665976
vt 0.465886 0.665976
vt 0.449837 0.657919
vt 0.465886 0.657919
vt 0.448135 0.665976
vt 0.448135 0.681562
vt 0.432086 0.681562
vt 0.432086 0.665976
vt 0.448135 0.697148
vt 0.432086 0.697148
vt 0.448135 0.657919
vt 0.432086 0.657919
vt 0.430385 0.657919
vt 0.430385 0.673505
vt 0.414336 0.673505
vt 0.414336 0.657919
vt 0.430385 0.689090
vt 0.414336 0.689090
vt 0.414336 0.696728
vt 0.430385 0.696728
vt 0.467588 0.689090
vt 0.467588 0.673505
vt 0.483637 0.673505
vt 0.483637 0.689090
vt 0.467588 0.657919
vt 0.483637 0.657919
vt 0.483637 0.697526
vt 0.467588 0.697526
vt 0.162296 0.516796
vt 0.213988 0.516796
vt 0.213988 0.619965
vt 0.162296 0.619965
vt 0.265681 0.516796
vt 0.265681 0.619965
vt 0.213988 0.671657
vt 0.162296 0.671657
vt 0.265681 0.671657
vt 0.213988 0.723350
vt 0.162296 0.723350
vt 0.265681 0.723350
vt 0.213988 0.775042
vt 0.162296 0.790696
vt 0.265681 0.790696
vt 0.213988 0.826734
vt 0.162296 0.826734
vt 0.265681 0.826734
vt 0.213988 0.878426
vt 0.162296 0.858294
vt 0.110604 0.799886
vt 0.110604 0.826734
vt 0.317373 0.799886
vt 0.317373 0.826734
vt 0.265681 0.858294
vt 0.213988 0.930118
vt 0.173968 0.930118
vt 0.110604 0.847028
vt 0.058912 0.799886
vt 0.058912 0.826734
vt 0.369065 0.799886
vt 0.369065 0.826734
vt 0.317373 0.847028
vt 0.251927 0.930118
vt 0.213988 0.985333
vt 0.162296 0.965315
vt 0.058912 0.844602
vt 0.005577 0.826734
vt 0.033580 0.775042
vt 0.395789 0.775042
vt 0.420757 0.826734
vt 0.369065 0.847028
vt 0.265681 0.965315
vt 0.395789 0.878426
vt 0.791208 0.954278
vt 0.790124 0.900516
vt 0.829091 0.899731
vt 0.841148 0.933772
vt 0.753184 0.901261
vt 0.740483 0.935802
vt 0.789110 0.850184
vt 0.839047 0.829567
vt 0.738382 0.831597
vt 0.788095 0.799852
vt 0.838427 0.798837
vt 0.737763 0.800867
vt 0.787080 0.749520
vt 0.837720 0.763747
vt 0.889158 0.817583
vt 0.888759 0.797822
vt 0.687828 0.821642
vt 0.687430 0.801881
vt 0.737055 0.765777
vt 0.786065 0.699187
vt 0.836397 0.698172
vt 0.888232 0.771680
vt 0.939442 0.814205
vt 0.939091 0.796807
vt 0.637496 0.822657
vt 0.637098 0.802896
vt 0.686903 0.775739
vt 0.735733 0.700202
vt 0.785050 0.648855
vt 0.835382 0.647840
vt 0.938413 0.763159
vt 0.989424 0.795792
vt 0.991022 0.795760
vt 0.967350 0.846590
vt 0.612092 0.853753
vt 0.586766 0.803911
vt 0.636571 0.776754
vt 0.734718 0.649870
vt 0.784035 0.598523
vt 0.834368 0.597508
vt 0.962742 0.745978
vt 0.610062 0.753089
vt 0.733703 0.599538
vt 0.782010 0.498068
vt 0.832342 0.497053
vt 0.731678 0.499083
vt 0.364087 0.698634
vt 0.349087 0.706278
vt 0.349087 0.690197
vt 0.354475 0.690197
vt 0.347245 0.705783
vt 0.467588 0.689090
vt 0.467588 0.673505
vt 0.483637 0.673505
vt 0.483637 0.689090
vt 0.430385 0.689090
vt 0.414336 0.689090
vt 0.430385 0.673505
vt 0.414336 0.673505
vt 0.501388 0.720197
vt 0.485339 0.720197
vt 0.501388 0.704611
vt 0.485339 0.704611
vt 0.501388 0.689025
vt 0.485339 0.689025
vt 0.503089 0.689025
vt 0.519139 0.689025
vt 0.503089 0.704611
vt 0.519139 0.704611
vt 0.503089 0.720197
vt 0.519139 0.720197
vt 0.448135 0.681562
vt 0.432086 0.681562
vt 0.448135 0.665976
vt 0.432086 0.665976
vt 0.449837 0.665976
vt 0.465886 0.665976
vt 0.449837 0.681562
vt 0.465886 0.681562
vt 0.378834 0.679574
vt 0.394883 0.679574
vt 0.412634 0.679574
vt 0.396585 0.679574
vt 0.331196 0.705783
vt 0.377132 0.673505
vt 0.361083 0.673505
vt 0.377132 0.673505
vt 0.343332 0.673505
vt 0.359382 0.673505
vt 0.361083 0.673505
vn 0.000000 0.000000 1.000000
vn 0.000000 0.000000 1.000000
vn 0.000000 0.000000 1.000000
vn 0.000000 0.000000 1.000000
vn 0.000000 0.000000 1.000000
vn 0.000000 0.000000 1.000000
vn 0.000000 0.000000 1.000000
vn 0.000000 0.000000 1.000000
vn 0.000000 0.000000 1.000000
vn -0.000000 0.000000 1.000000
vn -0.000000 0.000000 1.000000
vn 0.000000 0.000000 1.000000
vn -0.000000 0.000000 1.000000
vn -0.000000 0.000000 1.000000
vn 0.000000 0.000000 1.000000
vn -0.000000 0.000000 1.000000
vn -0.000000 0.000000 1.000000
vn -0.000000 0.000000 1.000000
vn -0.000000 0.000000 1.000000
vn 0.000000 0.000000 1.000000
vn 0.000000 0.000000 1.000000
vn 0.000000 0.000000 1.000000
vn -0.000000 0.000000 1.000000
vn -0.000000 0.000000 1.000000
vn 0.000000 0.000000 1.000000
vn -0.000000 0.000000 1.000000
vn 0.000000 0.000000 1.000000
vn 0.000000 0.000000 1.000000
vn 0.824809 -0.387937 0.411334
vn 0.857483 -0.000000 0.514512
vn 0.000000 0.000000 1.000000
vn -0.000000 0.000000 1.000000
vn 0.000000 0.000000 1.000000
vn 0.000000 0.000000 1.000000
vn -0.000000 0.000000 1.000000
vn -0.000000 0.000000 1.000000
vn 0.000000 0.000000 1.000000
vn 0.843432 0.396696 0.362291
vn 1.000000 0.000000 0.000000
vn 1.000000 0.000000 0.000000
vn 0.857483 0.000000 -0.514512
vn 0.843432 0.396696 -0.362291
vn 0.000000 0.000000 1.000000
vn 0.000000 0.000000 1.000000
vn 0.000000 0.000000 1.000000
vn 0.000000 0.000000 1.000000
vn -0.000000 0.000000 1.000000
vn 0.000000 0.000000 1.000000
vn -0.361115 0.932521 0.000000
vn 0.000000 1.000000 0.000000
vn 0.000000 1.000000 0.000000
vn -0.361115 0.932521 0.000000
vn 0.361115 0.932521 0.000000
vn 0.361115 0.932521 0.000000
vn 0.000000 0.000000 -1.000000
vn 0.000000 0.000000 -1.000000
vn -0.000000 0.000000 -1.000000
vn -0.000000 0.000000 -1.000000
vn 0.000000 0.000000 -1.000000
vn 0.000000 0.000000 -1.000000
vn 0.000000 0.000000 -1.000000
vn 0.000000 0.000000 -1.000000
vn 0.000000 0.000000 -1.000000
vn -0.000000 0.000000 -1.000000
vn -0.000000 0.000000 -1.000000
vn -0.000000 0.000000 -1.000000
vn -0.000000 0.000000 -1.000000
vn 0.000000 0.000000 -1.000000
vn 0.000000 0.000000 -1.000000
vn 0.000000 0.000000 -1.000000
vn 0.000000 0.000000 -1.000000
vn 0.000000 0.000000 -1.000000
vn 0.000000 0.000000 -1.000000
vn 0.000000 0.000000 -1.000000
vn 0.000000 0.000000 -1.000000
vn 0.000000 0.000000 -1.000000
vn 0.000000 0.000000 -1.000000
vn 0.000000 0.000000 -1.000000
vn 0.000000 0.000000 -1.000000
vn 0.000000 0.000000 -1.000000
vn -0.000000 0.000000 -1.000000
vn -0.000000 0.000000 -1.000000
vn 0.000000 0.000000 -1.000000
vn 0.000000 0.000000 -1.000000
vn -0.000000 0.000000 -1.000000
vn 0.824809 -0.387937 -0.411333
vn 0.000000 0.000000 -1.000000
vn 0.000000 0.000000 -1.000000
vn 0.000000 0.000000 -1.000000
vn 0.000000 0.000000 -1.000000
vn 0.000000 0.000000 -1.000000
vn 0.000000 0.000000 -1.000000
vn 0.000000 0.000000 -1.000000
vn 0.000000 0.000000 -1.000000
vn 0.000000 0.000000 -1.000000
vn 0.000000 0.000000 -1.000000
vn 0.000000 0.000000 -1.000000
vn 0.000000 0.000000 -1.000000
vn -0.879273 -0.476317 0.000000
vn -0.879274 -0.476317 0.000000
vn -0.999656 -0.025851 0.004516
vn -0.999656 -0.025851 0.004516
vn -0.894442 0.447110 0.008159
vn -0.894442 0.447110 0.008159
vn -0.987051 0.160408 0.000000
vn -0.987051 0.160408 0.000000
vn -0.987051 0.160408 0.000000
vn -0.987051 0.160408 0.000000
vn -0.949167 -0.314772 0.000000
vn -0.949167 -0.314772 0.000000
vn -0.949167 -0.314772 0.000000
vn -0.949167 -0.314772 0.000000
vn 0.931413 -0.363963 0.000000
vn 0.931413 -0.363963 0.000000
vn 0.931413 -0.363963 0.000000
vn 0.931413 -0.363963 0.000000
vn 0.982155 0.188074 0.000000
vn 0.982155 0.188074 0.000000
vn 0.982155 0.188074 0.000000
vn 0.982155 0.188074 0.000000
vn 0.212945 0.977064 0.000001
vn 0.212945 0.977064 0.000001
vn 0.212945 0.977064 0.000001
vn 0.212945 0.977064 0.000001
vn 0.000000 1.000000 0.000001
vn 0.000000 1.000000 0.000001
vn 0.000000 1.000000 0.000001
vn 0.000000 1.000000 0.000001
vn -0.761511 0.648152 0.000000
vn -0.761511 0.648152 0.000000
vn -0.761511 0.648152 0.000000
vn -0.761511 0.648152 0.000000
vn -0.680877 -0.732398 -0.000001
vn -0.680877 -0.732398 -0.000001
vn -0.680877 -0.732398 -0.000001
vn -0.680877 -0.732398 -0.000001
vn 0.000000 -1.000000 -0.000001
vn 0.000000 -1.000000 -0.000001
vn 0.000000 -1.000000 -0.000001
vn 0.000000 -1.000000 -0.000001
vn 0.175028 -0.984563 -0.000001
vn 0.175028 -0.984563 -0.000001
vn 0.175028 -0.984563 -0.000001
vn 0.175028 -0.984563 -0.000001
vn 1.000000 0.000000 0.000000
vn 1.000000 0.000000 0.000000
vn 1.000000 0.000000 0.000000
vn 1.000000 0.000000 0.000000
vn 1.000000 0.000000 0.000000
vn 1.000000 0.000000 0.000000
vn 1.000000 0.000000 0.000000
vn 1.000000 0.000000 0.000000
vn 1.000000 0.000000 0.000000
vn 1.000000 0.000000 0.000000
vn 1.000000 0.000000 0.000000
vn 1.000000 0.000000 0.000000
vn 1.000000 0.000000 0.000000
vn 1.000000 0.000000 0.000000
vn 1.000000 0.000000 0.000000
vn 1.000000 0.000000 0.000000
vn -1.000000 0.000000 0.000000
vn -1.000000 0.000000 0.000000
vn -1.000000 0.000000 0.000000
vn -1.000000 0.000000 0.000000
vn -1.000000 0.000000 0.000000
vn -1.000000 0.000000 0.000000
vn -1.000000 0.000000 0.000000
vn -1.000000 0.000000 0.000000
vn -1.000000 0.000000 0.000000
vn -1.000000 0.000000 0.000000
vn -1.000000 0.000000 0.000000
vn -1.000000 0.000000 0.000000
vn -1.000000 0.000000 0.000000
vn -1.000000 0.000000 0.000000
vn -1.000000 0.000000 0.000000
vn -1.000000 0.000000 0.000000
vn -0.175028 -0.984563 -0.000001
vn -0.175028 -0.984563 -0.000001
vn -0.175028 -0.984563 -0.000001
vn -0.175028 -0.984563 -0.000001
vn 0.074164 -0.994642 0.072022
vn 0.074164 -0.994642 0.072022
vn 0.074164 -0.994642 0.072022
vn 0.074164 -0.994642 0.072022
vn 0.637036 -0.768821 0.055670
vn 0.637036 -0.768821 0.055670
vn 0.637036 -0.768821 0.055670
vn 0.637036 -0.768821 0.055670
vn 0.761258 0.648342 0.011832
vn 0.761258 0.648342 0.011832
vn 0.761258 0.648342 0.011832
vn 0.761258 0.648342 0.011832
vn -0.046897 0.998900 0.000000
vn -0.046897 0.998900 0.000000
vn -0.046897 0.998900 0.000000
vn -0.046897 0.998900 0.000000
vn -0.212945 0.977064 0.000001
vn -0.212945 0.977064 0.000001
vn -0.212945 0.977064 0.000001
vn -0.212945 0.977064 0.000001
vn 0.000000 0.000000 0.000000
vn 0.000000 0.000000 0.000000
vn 0.000000 0.000000 0.000000
vn 0.000000 0.000000 0.000000
vn 0.000000 0.000000 0.000000
vn 0.000000 0.000000 0.000000
vn 0.000000 0.000000 0.000000
vn -0.000000 0.000000 1.000000
vn -0.000000 0.000000 1.000000
vn -0.000000 0.000000 1.000000
vn -0.000000 0.000000 1.000000
vn 0.000000 0.000000 1.000000
vn 0.000000 0.000000 1.000000
vn 0.000000 0.000000 1.000000
vn 0.000000 0.000000 1.000000
vn 0.000000 1.000000 0.000000
vn 0.000000 1.000000 0.000000
vn 0.000000 1.000000 0.000000
vn 0.000000 1.000000 0.000000
vn 0.000000 0.000000 -1.000000
vn 0.000000 0.000000 -1.000000
vn 0.000000 0.000000 -1.000000
vn 0.000000 0.000000 -1.000000
vn 0.887111 -0.461556 0.000000
vn 0.887111 -0.461556 0.000000
vn 0.887111 -0.461556 0.000000
vn 0.887111 -0.461556 0.000000
vn -0.908997 -0.416803 0.000000
vn -0.908997 -0.416803 0.000000
vn -0.908997 -0.416803 0.000000
vn -0.908997 -0.416803 0.000000
vn 0.000000 0.000000 1.000000
vn 0.000000 0.000000 1.000000
vn 0.000000 0.000000 1.000000
vn 0.000000 0.000000 1.000000
vn 0.000000 1.000000 0.000000
vn 0.000000 1.000000 0.000000
vn 0.000000 1.000000 0.000000
vn 0.000000 1.000000 0.000000
vn 0.000000 0.000000 -1.000000
vn 0.000000 0.000000 -1.000000
vn 0.000000 0.000000 -1.000000
vn 0.000000 0.000000 -1.000000
vn 0.000000 -1.000000 0.000000
vn 0.000000 -1.000000 0.000000
vn 0.000000 -1.000000 0.000000
vn 0.000000 -1.000000 0.000000
vn 0.998711 -0.050767 0.000000
vn 0.998711 -0.050767 0.000000
vn 0.946383 0.323046 0.000000
vn 0.946383 0.323046 0.000000
vn -0.999669 -0.025734 0.000000
vn -0.999669 -0.025734 0.000000
vn -0.940718 0.339189 0.000000
vn -0.940718 0.339189 0.000000
vn -0.738197 0.674585 0.000000
vn -0.738197 0.674585 0.000000
vn 0.000000 0.000000 -1.000000
vn 0.000000 0.000000 -1.000000
vn 0.742177 0.670204 0.000000
vn 0.742177 0.670204 0.000000
vn 0.000000 0.000000 1.000000
vn 0.000000 0.000000 1.000000
s 1
g Graveston_2
usemtl initialShadingGroup
f 1/120/1 2/121/2 5/122/3 4/123/4
f 2/121/2 3/124/5 6/125/6 5/122/3
f 4/123/4 5/122/3 8/126/7 7/127/8
f 5/122/3 6/125/6 9/128/9 8/126/7
f 7/127/8 8/126/7 11/129/10 10/130/11
f 8/126/7 9/128/9 12/131/12 11/129/10
f 10/130/11 11/129/10 17/132/13 16/133/14
f 11/129/10 12/131/12 18/134/15 17/132/13
f 23/149/16 22/157/17 13/158/18 14/148/19
f 14/148/19 15/140/20 24/141/21 23/149/16
f 15/140/20 16/133/14 25/136/22 24/141/21
f 16/133/14 17/132/13 26/135/23 25/136/22
f 17/132/13 18/134/15 27/137/24 26/135/23
f 18/134/15 19/142/25 28/143/26 27/137/24
f 19/142/25 20/150/27 29/151/28 28/143/26
f 20/150/27 21/159/29 30/160/30 29/151/28
f 23/149/16 24/141/21 34/147/31 33/156/32
f 24/141/21 25/136/22 35/139/33 34/147/31
f 25/136/22 26/135/23 36/138/34 35/139/33
f 26/135/23 27/137/24 37/144/35 36/138/34
f 27/137/24 28/143/26 38/152/36 37/144/35
f 28/143/26 29/151/28 39/161/37 38/152/36
f 29/151/28 30/160/30 40/163/38 39/161/37
f 40/36/38 30/37/30 31/249/39 72/39/40 71/250/41 61/41/42
f 35/139/33 36/138/34 42/145/43 41/146/44
f 36/138/34 37/144/35 43/153/45 42/145/43
f 42/145/43 45/154/46 44/155/47 41/146/44
f 46/162/48 45/154/46 42/145/43 43/153/45
s 3
f 44/82/49 45/251/50 48/252/51 47/85/52
f 45/83/50 46/86/53 49/87/54 48/84/51
s 1
f 48/164/55 51/165/56 50/166/57 47/167/58
f 52/168/59 51/165/56 48/164/55 49/169/60
f 50/166/57 51/165/56 57/170/61 56/171/62
f 51/165/56 52/168/59 58/172/63 57/170/61
f 63/195/64 62/196/65 53/197/66 54/186/67 64/187/68
f 54/186/67 55/178/69 65/179/70 64/187/68
f 55/178/69 56/171/62 66/174/71 65/179/70
f 56/171/62 57/170/61 67/173/72 66/174/71
f 57/170/61 58/172/63 68/175/73 67/173/72
f 58/172/63 59/180/74 69/181/75 68/175/73
f 59/180/74 60/188/76 70/189/77 69/181/75
f 60/188/76 61/198/42 71/199/41 70/189/77
f 73/204/78 62/196/65 63/195/64 64/187/68 74/194/79
f 64/187/68 65/179/70 75/185/80 74/194/79
f 65/179/70 66/174/71 76/177/81 75/185/80
f 66/174/71 67/173/72 77/176/82 76/177/81
f 67/173/72 68/175/73 78/182/83 77/176/82
f 68/175/73 69/181/75 79/190/84 78/182/83
f 69/181/75 70/189/77 80/200/85 79/190/84
f 70/189/77 71/199/41 81/205/86 80/200/85
f 76/177/81 77/176/82 83/183/87 82/184/88
f 77/176/82 78/182/83 84/191/89 83/183/87
f 82/184/88 83/183/87 86/192/90 85/193/91
f 83/183/87 84/191/89 87/201/92 86/192/90
f 85/193/91 86/192/90 89/202/93 88/203/94
f 86/192/90 87/201/92 90/206/95 89/202/93
f 88/203/94 89/202/93 92/207/96 91/208/97
f 89/202/93 90/206/95 93/209/98 92/207/96
s 6
f 73/44/99 13/45/100 22/46/101 62/47/102
f 62/247/102 22/214/101 32/48/103 53/49/104
s off
f 35/50/105 41/245/106 50/52/107 56/53/108
f 47/54/109 50/246/110 41/51/111 44/55/112
f 52/56/113 49/57/114 46/58/115 43/243/116
f 43/59/117 37/60/118 58/61/119 52/244/120
f 37/88/121 38/241/122 59/90/123 58/91/124
f 38/89/125 39/239/126 60/93/127 59/242/128
f 39/92/129 40/94/130 61/95/131 60/240/132
s 1
f 21/42/29 81/43/86 71/40/41 72/248/40 31/38/39 30/253/30
s off
f 21/102/133 20/237/134 80/99/135 81/103/136
f 20/96/137 19/235/138 79/98/139 80/238/140
f 19/97/141 18/100/142 78/101/143 79/236/144
f 18/62/145 12/233/146 84/64/147 78/65/148
f 12/63/149 9/231/150 87/67/151 84/234/152
f 9/66/153 6/229/154 90/69/155 87/232/156
f 6/68/157 3/70/158 93/71/159 90/230/160
f 1/72/161 4/227/162 88/74/163 91/75/164
f 4/73/165 7/225/166 85/77/167 88/228/168
f 7/76/169 10/223/170 82/79/171 85/226/172
f 10/78/173 16/80/174 76/81/175 82/224/176
f 16/104/177 15/221/178 75/106/179 76/107/180
f 15/105/181 14/219/182 74/109/183 75/222/184
f 73/110/185 74/220/186 14/108/187 13/111/188
f 53/118/189 32/119/190 33/112/191 54/115/192
f 33/215/193 34/216/194 55/114/195 54/218/196
f 34/113/197 35/116/198 56/117/199 55/217/200
f 22//201 23//202 95//203 94//204
f 23/2/205 33/1/206 95/3/207
f 32/210/208 22/211/209 95/212/210 33/213/211
f 96/4/212 97/5/213 99/6/214 98/7/215
f 98/7/216 99/6/217 101/8/218 100/9/219
f 100/9/220 101/8/221 103/10/222 102/11/223
f 97/5/224 103/12/225 101/13/226 99/6/227
f 102/14/228 96/4/229 98/7/230 100/15/231
s 7
f 104/16/232 105/17/233 115/18/234 112/19/235
s off
f 106/20/236 107/21/237 109/22/238 108/23/239
s 8
f 113/24/240 114/25/241 111/26/242 110/27/243
s off
f 110/27/244 111/26/245 105/28/246 104/29/247
s 9
f 105/17/248 111/30/249 114/31/250 115/18/251
s 10
f 110/32/252 104/16/253 112/19/254 113/33/255
f 113/33/255 112/19/254 106/20/256 108/34/257
s 8
f 108/23/258 109/22/259 114/25/241 113/24/240
s 9
f 115/18/251 114/31/250 109/35/260 107/21/261
s 7
f 112/19/235 115/18/234 107/21/262 106/20/263
