# This file uses centimeters as units for non-parametric coordinates.

mtllib Picture Frame.mtl
g default
v -2.722212 0.291280 0.171783
v 2.722212 0.291280 0.171783
v -2.722212 5.501624 0.171783
v 2.722212 5.501624 0.171783
v -2.722212 5.501624 -0.171783
v 2.722212 5.501624 -0.171783
v -2.722212 0.291280 -0.171783
v 2.722212 0.291280 -0.171783
v -2.722212 5.035608 0.171783
v -2.722212 5.035608 -0.171783
v 2.722212 5.035608 -0.171783
v 2.722212 5.035608 0.171783
v -2.722212 0.619952 0.171783
v -2.722212 0.619952 -0.171783
v 2.722212 0.619952 -0.171783
v 2.722212 0.619952 0.171783
v -2.722212 0.620111 0.171783
v 2.722212 0.620111 0.171783
v -2.722212 0.620111 -0.171783
v 2.722212 0.620111 -0.171783
v -2.722869 5.039167 0.173008
v 2.721555 5.039167 0.173008
v -2.722869 5.039167 -0.170558
v 2.721555 5.039167 -0.170558
v -2.699851 0.618782 0.135734
v 2.699495 0.618782 0.135734
v -2.699851 5.030862 0.135734
v 2.699495 5.030862 0.135734
v -2.699851 5.030862 -0.024246
v 2.699495 5.030862 -0.024246
v -2.699851 0.618782 -0.024246
v 2.699495 0.618782 -0.024246
v -1.391259 1.177934 -2.368075
v -0.565334 0.616378 -2.318056
v -0.367575 2.899909 0.060954
v 0.458351 2.338353 0.110973
v -0.299818 2.991253 -0.032356
v 0.526107 2.429697 0.017663
v -1.323503 1.269278 -2.461386
v -0.497577 0.707721 -2.411366
v -1.387974 0.143246 -3.610502
v -1.455731 0.051902 -3.517192
v 0.063231 2.606999 0.087044
v 0.130987 2.698343 -0.006266
vt 0.180465 0.398881
vt 0.252688 0.398881
vt 0.180465 0.471103
vt 0.252688 0.471103
vt 0.180465 0.543326
vt 0.252688 0.543326
vt 0.142087 0.704295
vt 0.286381 0.704295
vt 0.142087 0.848589
vt 0.286381 0.848589
vt 0.324910 0.398881
vt 0.324910 0.471103
vt 0.108243 0.398881
vt 0.108243 0.471103
vt 0.180465 0.464644
vt 0.108243 0.464644
vt 0.180465 0.549785
vt 0.252688 0.549785
vt 0.324910 0.464644
vt 0.252688 0.464644
vt 0.180465 0.405528
vt 0.108243 0.405528
vt 0.142087 0.691014
vt 0.286381 0.691014
vt 0.324910 0.405528
vt 0.252688 0.405528
vt 0.386712 0.608378
vt 0.636712 0.608378
vt 0.636712 0.858378
vt 0.386712 0.858378
vt 0.391396 0.156306
vt 0.641396 0.156306
vt 0.641396 0.406306
vt 0.391396 0.406306
vt 0.747192 0.029489
vt 0.829024 0.029489
vt 0.829024 0.111321
vt 0.747192 0.111321
vt 0.829024 0.193153
vt 0.747192 0.193153
vt 0.829024 0.274985
vt 0.747192 0.274985
vt 0.829024 0.356817
vt 0.747192 0.356817
vt 0.910856 0.029489
vt 0.910856 0.111321
vt 0.665360 0.029489
vt 0.665360 0.111321
vt 0.782122 0.538468
vt 0.756982 0.538468
vt 0.756982 0.490270
vt 0.782122 0.490270
vt 0.805180 0.490270
vt 0.805180 0.538468
vt 0.782122 0.586667
vt 0.756982 0.586667
vt 0.805180 0.586667
vt 0.782122 0.634865
vt 0.756982 0.634865
vt 0.805180 0.634865
vt 0.782122 0.683063
vt 0.756982 0.683063
vt 0.853378 0.490270
vt 0.853378 0.538468
vt 0.708784 0.490270
vt 0.708784 0.538468
vt 0.805180 0.683063
vn 0.000000 -0.000000 1.000000
vn 0.000000 -0.000000 1.000000
vn 0.000000 -0.000000 1.000000
vn 0.000000 -0.000000 1.000000
vn 0.000000 1.000000 0.000000
vn 0.000000 1.000000 0.000000
vn 0.000000 1.000000 0.000000
vn 0.000000 1.000000 0.000000
vn 0.000000 0.000000 -1.000000
vn 0.000000 0.000000 -1.000000
vn 0.000000 0.000000 -1.000000
vn 0.000000 0.000000 -1.000000
vn 0.000000 -1.000000 0.000000
vn 0.000000 -1.000000 0.000000
vn 0.000000 -1.000000 0.000000
vn 0.000000 -1.000000 0.000000
vn 1.000000 -0.000001 0.000000
vn 1.000000 -0.000001 0.000000
vn 1.000000 -0.000000 0.000000
vn 1.000000 -0.000000 0.000000
vn -1.000000 -0.000000 0.000000
vn -1.000000 -0.000000 0.000000
vn -1.000000 -0.000000 0.000000
vn -1.000000 -0.000000 0.000000
vn -1.000000 0.000000 0.000000
vn -1.000000 0.000000 0.000000
vn -1.000000 0.000000 0.000000
vn -1.000000 0.000000 0.000000
vn 0.000000 -0.000000 -1.000000
vn 0.000000 -0.000000 -1.000000
vn 0.000000 -0.000000 -1.000000
vn 0.000000 -0.000000 -1.000000
vn 1.000000 0.000000 0.000000
vn 1.000000 0.000000 0.000000
vn 1.000000 0.000000 0.000000
vn 1.000000 0.000000 0.000000
vn 0.000000 0.000000 1.000000
vn 0.000000 0.000000 1.000000
vn 0.000000 0.000000 1.000000
vn 0.000000 0.000000 1.000000
vn 0.000000 1.000000 0.000000
vn 0.000000 1.000000 0.000000
vn 0.000000 1.000000 0.000000
vn 0.000000 1.000000 0.000000
vn 0.000000 1.000000 0.000000
vn 0.000000 1.000000 0.000000
vn 0.000000 1.000000 0.000000
vn 0.000000 1.000000 0.000000
vn 0.000000 0.000000 1.000000
vn 0.000000 0.000000 1.000000
vn 0.000000 0.000000 1.000000
vn 0.000000 0.000000 1.000000
vn 0.000000 1.000000 0.000000
vn 0.000000 1.000000 0.000000
vn 0.000000 1.000000 0.000000
vn 0.000000 1.000000 0.000000
vn 0.000000 0.000000 -1.000000
vn 0.000000 0.000000 -1.000000
vn 0.000000 0.000000 -1.000000
vn 0.000000 0.000000 -1.000000
vn 0.000000 -1.000000 0.000000
vn 0.000000 -1.000000 0.000000
vn 0.000000 -1.000000 0.000000
vn 0.000000 -1.000000 0.000000
vn 1.000000 0.000000 0.000000
vn 1.000000 0.000000 0.000000
vn 1.000000 0.000000 0.000000
vn 1.000000 0.000000 0.000000
vn -1.000000 0.000000 0.000000
vn -1.000000 0.000000 0.000000
vn -1.000000 0.000000 0.000000
vn -1.000000 0.000000 0.000000
vn -0.460584 -0.620920 0.634287
vn -0.460584 -0.620920 0.634287
vn -0.460584 -0.620920 0.634287
vn -0.460584 -0.620920 0.634287
vn -0.460584 -0.620920 0.634287
vn -0.460584 -0.620920 0.634287
vn 0.325130 0.546912 0.771477
vn 0.325130 0.546912 0.771477
vn 0.325130 0.546912 0.771477
vn 0.325130 0.546912 0.771477
vn 0.325130 0.546912 0.771477
vn 0.325130 0.546912 0.771477
vn 0.460584 0.620920 -0.634287
vn 0.460584 0.620920 -0.634287
vn 0.460584 0.620920 -0.634287
vn 0.460584 0.620920 -0.634287
vn 0.460584 0.620920 -0.634287
vn 0.460584 0.620920 -0.634287
vn -0.886713 0.354103 -0.297240
vn -0.325129 -0.546912 -0.771478
vn -0.325128 -0.546913 -0.771478
vn -0.886713 0.354103 -0.297240
vn 0.825926 -0.561556 0.050019
vn 0.825926 -0.561556 0.050019
vn 0.825926 -0.561556 0.050019
vn 0.825926 -0.561556 0.050019
vn -0.825925 0.561556 -0.050018
vn -0.825925 0.561556 -0.050018
vn -0.825925 0.561556 -0.050018
vn -0.825925 0.561556 -0.050018
vn 0.690566 -0.699623 -0.183430
vn 0.690566 -0.699623 -0.183430
s off
g pCube7
usemtl initialShadingGroup
f 1/1/1 2/2/2 16/26/3 13/21/4
f 3/3/5 4/4/6 6/6/7 5/5/8
f 14/23/9 15/24/10 8/8/11 7/7/12
f 7/7/13 8/8/14 2/10/15 1/9/16
s 1
f 2/2/17 8/11/18 15/25/19 16/26/20
s 2
f 7/13/21 1/1/22 13/21/23 14/22/24
f 10/16/25 9/15/26 3/3/27 5/14/28
s off
f 5/5/29 6/6/30 11/18/31 10/17/32
s 1
f 12/20/33 11/19/34 6/12/35 4/4/36
s off
f 9/15/37 12/20/38 4/4/39 3/3/40
s 2
f 14/22/24 13/21/23 9/15/26 10/16/25
s 1
f 16/26/20 15/25/19 11/19/34 12/20/33
s off
f 17/27/41 18/28/42 20/29/43 19/30/44
f 21/31/45 22/32/46 24/33/47 23/34/48
f 25/35/49 26/36/50 28/37/51 27/38/52
f 27/38/53 28/37/54 30/39/55 29/40/56
f 29/40/57 30/39/58 32/41/59 31/42/60
f 31/42/61 32/41/62 26/43/63 25/44/64
f 26/36/65 32/45/66 30/46/67 28/37/68
f 31/47/69 25/35/70 27/38/71 29/48/72
f 43/49/73 35/50/74 33/51/75 42/52/76 34/53/77 36/54/78
f 44/55/79 37/56/80 35/50/81 43/49/82 36/54/83 38/57/84
f 41/58/85 39/59/86 37/56/87 44/55/88 38/57/89 40/60/90
s 3
f 39/59/91 41/58/92 42/61/93 33/62/94
s off
f 34/53/95 40/63/96 38/64/97 36/54/98
f 39/65/99 33/51/100 35/50/101 37/66/102
s 3
f 41/58/92 40/60/103 34/67/104 42/61/93
