# This file uses centimeters as units for non-parametric coordinates.

mtllib Pumpkin.mtl
g default
v 0.219267 -0.054336 -0.072525
v 0.185931 -0.054336 -0.137952
v 0.137226 -0.044502 -0.194303
v 0.068582 -0.054336 -0.223210
v -0.003943 -0.054336 -0.234697
v -0.075642 -0.057258 -0.210794
v -0.141895 -0.054336 -0.189874
v -0.193817 -0.054336 -0.137951
v -0.227153 -0.054336 -0.072525
v -0.238640 -0.054335 -0.000000
v -0.229858 -0.043866 0.073404
v -0.193817 -0.054336 0.137951
v -0.135747 -0.057258 0.168694
v -0.078000 -0.037406 0.225697
v -0.003943 -0.054336 0.234697
v 0.068582 -0.054336 0.223210
v 0.122500 -0.037319 0.174016
v 0.185931 -0.054336 0.137951
v 0.219267 -0.054336 0.072525
v 0.202907 -0.059423 0.001071
v 0.370781 0.029601 -0.121755
v 0.314816 0.029601 -0.231592
v 0.220338 0.066277 -0.308697
v 0.117812 0.029601 -0.374724
v -0.003943 0.029601 -0.394008
v -0.120868 0.056132 -0.349985
v -0.235535 0.029601 -0.318759
v -0.322702 0.029601 -0.231592
v -0.378667 0.029601 -0.121755
v -0.397951 0.029601 -0.000000
v -0.359528 0.075582 0.115537
v -0.322702 0.041402 0.231592
v -0.221772 0.027534 0.287097
v -0.122219 0.062803 0.361789
v -0.003943 0.029601 0.394008
v 0.117812 0.029601 0.374724
v 0.210901 0.047856 0.295689
v 0.314816 0.029601 0.231592
v 0.370780 0.029601 0.121755
v 0.350102 0.054409 0.001071
v 0.448780 0.153560 -0.147099
v 0.381166 0.153560 -0.279798
v 0.263125 0.176299 -0.367588
v 0.143155 0.153560 -0.452723
v -0.003943 0.153560 -0.476021
v -0.144150 0.170009 -0.421641
v -0.283741 0.153560 -0.385109
v -0.389052 0.153560 -0.279798
v -0.456666 0.153560 -0.147099
v -0.479964 0.153559 -0.000000
v -0.426282 0.181669 0.137226
v -0.389052 0.153560 0.279798
v -0.283741 0.153560 0.385109
v -0.144983 0.174145 0.431849
v -0.003943 0.153560 0.476021
v 0.143155 0.153560 0.452723
v 0.256409 0.164878 0.358326
v 0.381166 0.153560 0.279798
v 0.448780 0.153560 0.147098
v 0.425878 0.168941 0.001071
v 0.480003 0.317454 -0.157244
v 0.407726 0.317454 -0.299095
v 0.280252 0.321766 -0.391161
v 0.153300 0.317454 -0.483946
v -0.003943 0.317454 -0.508851
v -0.153470 0.320574 -0.450324
v -0.303038 0.317454 -0.411669
v -0.415612 0.317454 -0.299095
v -0.487889 0.317454 -0.157244
v -0.512794 0.317454 -0.000000
v -0.453004 0.321935 0.145909
v -0.415612 0.317454 0.299095
v -0.303038 0.317453 0.411669
v -0.154095 0.321359 0.459894
v -0.003943 0.317454 0.508851
v 0.153300 0.317454 0.483946
v 0.274626 0.319601 0.383400
v 0.407726 0.317454 0.299095
v 0.480002 0.317454 0.157243
v 0.456211 0.320371 0.001071
v 0.452645 0.529700 -0.148355
v 0.384454 0.529700 -0.282187
v 0.265245 0.510150 -0.370506
v 0.144411 0.529700 -0.456588
v -0.003943 0.529700 -0.480085
v -0.145304 0.515558 -0.425191
v -0.286130 0.529700 -0.388397
v -0.392340 0.529700 -0.282187
v -0.460531 0.529700 -0.148355
v -0.484028 0.529700 -0.000000
v -0.429590 0.503581 0.138301
v -0.392340 0.529700 0.282187
v -0.286130 0.529700 0.388397
v -0.146111 0.512002 0.435321
v -0.003943 0.529700 0.480085
v 0.144411 0.529700 0.456588
v 0.258664 0.519970 0.361430
v 0.384454 0.529700 0.282187
v 0.452645 0.529700 0.148354
v 0.429633 0.516476 0.001071
v 0.333196 0.717841 -0.109543
v 0.282845 0.717841 -0.208364
v 0.199721 0.677138 -0.280321
v 0.105600 0.717841 -0.337139
v -0.003943 0.717841 -0.354489
v -0.109649 0.688398 -0.315457
v -0.212307 0.717841 -0.286788
v -0.290731 0.717841 -0.208364
v -0.341082 0.717841 -0.109543
v -0.358432 0.717841 -0.000000
v -0.327362 0.664598 0.105085
v -0.290731 0.717841 0.208363
v -0.212307 0.717841 0.286788
v -0.111250 0.680993 0.328030
v -0.003943 0.717841 0.354489
v 0.105600 0.717841 0.337139
v 0.188972 0.697582 0.265507
v 0.282844 0.717841 0.208363
v 0.333196 0.717841 0.109543
v 0.313588 0.690309 0.001071
v 0.189268 0.765962 -0.062778
v 0.160412 0.765962 -0.119411
v 0.120770 0.719849 -0.171653
v 0.058835 0.765962 -0.193211
v -0.003943 0.765962 -0.203154
v -0.066688 0.732605 -0.183235
v -0.123354 0.765962 -0.164355
v -0.168298 0.765962 -0.119411
v -0.197154 0.765962 -0.062778
v -0.207097 0.765962 -0.000000
v -0.204184 0.705781 0.065062
v -0.168298 0.765962 0.119411
v -0.123354 0.765962 0.164355
v -0.069245 0.724217 0.198750
v -0.003943 0.765962 0.203154
v 0.058835 0.765962 0.193211
v 0.104997 0.743010 0.149925
v 0.160412 0.765962 0.119411
v 0.189268 0.765962 0.062778
v 0.173762 0.734771 0.001071
v 0.051142 0.742960 -0.017898
v 0.042915 0.742960 -0.034044
v 0.035774 0.748753 -0.049868
v 0.013955 0.742960 -0.055085
v -0.003943 0.742960 -0.057919
v -0.025458 0.726960 -0.056342
v -0.037987 0.742960 -0.046858
v -0.050801 0.742960 -0.034044
v -0.059028 0.742960 -0.017898
v -0.061863 0.742960 -0.000000
v -0.062678 0.741601 0.018909
v -0.050801 0.742960 0.034044
v -0.037987 0.742960 0.046858
v -0.022424 0.750727 0.065986
v -0.003943 0.742960 0.057919
v 0.013955 0.742960 0.055085
v 0.024407 0.734578 0.039003
v 0.042915 0.742960 0.034044
v 0.051142 0.742960 0.017898
v 0.039573 0.726705 0.001071
v 0.034049 0.816892 -0.012344
v 0.028375 0.816892 -0.023480
v 0.019537 0.816892 -0.032318
v 0.008401 0.816892 -0.037992
v -0.003943 0.816892 -0.039947
v -0.016288 0.816892 -0.037992
v -0.027423 0.816892 -0.032318
v -0.036261 0.816892 -0.023480
v -0.041935 0.816892 -0.012344
v -0.043890 0.816892 -0.000000
v -0.041935 0.816892 0.012344
v -0.036261 0.816892 0.023480
v -0.027423 0.816892 0.032318
v -0.016288 0.816892 0.037992
v -0.003943 0.816892 0.039947
v 0.008401 0.816892 0.037992
v 0.019537 0.816892 0.032318
v 0.028374 0.816892 0.023480
v 0.034049 0.816892 0.012344
v 0.036004 0.816892 -0.000000
v -0.053667 -0.065177 0.019161
v -0.003943 0.817400 -0.000000
vt 0.699317 0.135934
vt 0.742223 0.137860
vt 0.773832 0.137860
vt 0.805442 0.137860
vt 0.837051 0.137860
vt 0.192786 0.140928
vt 0.224395 0.140928
vt 0.256004 0.140928
vt 0.287613 0.140928
vt 0.319222 0.140928
vt 0.350832 0.140928
vt 0.382441 0.140928
vt 0.414050 0.140928
vt 0.445659 0.140928
vt 0.487817 0.137468
vt 0.529975 0.134008
vt 0.561584 0.134008
vt 0.593193 0.134008
vt 0.624802 0.134008
vt 0.656411 0.134008
vt 0.699317 0.199152
vt 0.742223 0.201078
vt 0.773832 0.201078
vt 0.805442 0.201078
vt 0.161176 0.204147
vt 0.192786 0.204147
vt 0.224395 0.204147
vt 0.256004 0.204147
vt 0.287613 0.204147
vt 0.319222 0.204147
vt 0.350832 0.204147
vt 0.382441 0.204147
vt 0.414050 0.204147
vt 0.445659 0.204147
vt 0.487817 0.200687
vt 0.529975 0.197227
vt 0.561584 0.197227
vt 0.593193 0.197227
vt 0.624802 0.197227
vt 0.656411 0.197227
vt 0.699317 0.262371
vt 0.742223 0.264297
vt 0.773832 0.264297
vt 0.805442 0.264297
vt 0.161176 0.267365
vt 0.192786 0.267365
vt 0.224395 0.267365
vt 0.256004 0.267365
vt 0.287613 0.267365
vt 0.319222 0.267365
vt 0.350832 0.267365
vt 0.382441 0.267365
vt 0.414050 0.267365
vt 0.445659 0.267365
vt 0.487817 0.263905
vt 0.529975 0.260445
vt 0.561584 0.260445
vt 0.593193 0.260445
vt 0.624802 0.260445
vt 0.656411 0.260445
vt 0.699317 0.325589
vt 0.742223 0.327515
vt 0.773832 0.327515
vt 0.805442 0.327515
vt 0.161176 0.330583
vt 0.192786 0.330583
vt 0.224395 0.330583
vt 0.256004 0.330583
vt 0.287613 0.330583
vt 0.319222 0.330583
vt 0.350832 0.330583
vt 0.382441 0.330583
vt 0.414050 0.330583
vt 0.445659 0.330583
vt 0.487817 0.327123
vt 0.529975 0.323663
vt 0.561584 0.323663
vt 0.593193 0.323663
vt 0.624802 0.323663
vt 0.656411 0.323663
vt 0.699317 0.388808
vt 0.742223 0.390733
vt 0.773832 0.390733
vt 0.805442 0.390733
vt 0.161176 0.393802
vt 0.192786 0.393802
vt 0.224395 0.393802
vt 0.256004 0.393802
vt 0.287613 0.393802
vt 0.319222 0.393802
vt 0.350832 0.393802
vt 0.382441 0.393802
vt 0.414050 0.393802
vt 0.445659 0.393802
vt 0.487817 0.390342
vt 0.529975 0.386882
vt 0.561584 0.386882
vt 0.593193 0.386882
vt 0.624802 0.386882
vt 0.656411 0.386882
vt 0.699317 0.452026
vt 0.742223 0.453952
vt 0.773832 0.453952
vt 0.805442 0.453952
vt 0.161176 0.457020
vt 0.192786 0.457020
vt 0.224395 0.457020
vt 0.256004 0.457020
vt 0.287613 0.457020
vt 0.319222 0.457020
vt 0.350832 0.457020
vt 0.382441 0.457020
vt 0.414050 0.457020
vt 0.445659 0.457020
vt 0.487817 0.453560
vt 0.529975 0.450100
vt 0.561584 0.450100
vt 0.593193 0.450100
vt 0.624802 0.450100
vt 0.656411 0.450100
vt 0.699317 0.515244
vt 0.742223 0.517170
vt 0.773832 0.517170
vt 0.805442 0.517170
vt 0.161176 0.520239
vt 0.192786 0.520239
vt 0.224395 0.520239
vt 0.256004 0.520239
vt 0.287613 0.520239
vt 0.319222 0.520239
vt 0.350832 0.520239
vt 0.382441 0.520239
vt 0.414050 0.520239
vt 0.445659 0.520239
vt 0.487817 0.516779
vt 0.529975 0.513319
vt 0.561584 0.513319
vt 0.593193 0.513319
vt 0.624802 0.513319
vt 0.656411 0.513319
vt 0.293371 0.863394
vt 0.271425 0.891423
vt 0.254423 0.877379
vt 0.269157 0.853655
vt 0.256971 0.919317
vt 0.233297 0.895285
vt 0.217370 0.924181
vt 0.207825 0.905754
vt 0.185622 0.926605
vt 0.180403 0.907856
vt 0.150954 0.917703
vt 0.153583 0.901407
vt 0.127114 0.902508
vt 0.129871 0.886975
vt 0.105835 0.878101
vt 0.111525 0.865854
vt 0.092845 0.848151
vt 0.100357 0.839975
vt 0.089543 0.815455
vt 0.097554 0.811769
vt 0.712371 0.576831
vt 0.090418 0.781008
vt 0.103526 0.783973
vt 0.113012 0.754557
vt 0.117815 0.759368
vt 0.137749 0.732565
vt 0.139090 0.740487
vt 0.166902 0.698892
vt 0.165250 0.729322
vt 0.201243 0.716921
vt 0.193634 0.727068
vt 0.233459 0.724968
vt 0.221324 0.733969
vt 0.253431 0.750645
vt 0.245480 0.749282
vt 0.285278 0.763467
vt 0.263677 0.771379
vt 0.294658 0.799419
vt 0.274158 0.797954
vt 0.280777 0.827223
vt 0.275999 0.826311
vt 0.186848 0.819008
vt 0.742223 0.074641
vt 0.805442 0.074641
vt 0.192786 0.077710
vt 0.256004 0.077710
vt 0.319222 0.077710
vt 0.382441 0.077710
vt 0.445659 0.077710
vt 0.529974 0.070790
vt 0.593193 0.070790
vt 0.656411 0.070790
vt 0.742223 0.580389
vt 0.773832 0.580389
vt 0.805442 0.580389
vt 0.161176 0.583457
vt 0.192786 0.583457
vt 0.224395 0.583457
vt 0.256004 0.583457
vt 0.287613 0.583457
vt 0.319222 0.583457
vt 0.350832 0.583457
vt 0.382441 0.583457
vt 0.414050 0.583457
vt 0.444206 0.592263
vt 0.487817 0.579997
vt 0.529975 0.576537
vt 0.573007 0.554954
vt 0.600536 0.562667
vt 0.624802 0.576537
vt 0.688752 0.571873
vt 0.837051 0.201078
vt 0.161176 0.140928
vt 0.837051 0.580389
vt 0.837051 0.517170
vt 0.837051 0.453952
vt 0.837051 0.390733
vt 0.837051 0.327515
vt 0.837051 0.264297
vn 0.388509 -0.921431 -0.005082
vn 0.220621 -0.935210 -0.276964
vn 0.496213 -0.716411 -0.490437
vn 0.705872 -0.705245 -0.066133
vn 0.252073 -0.901568 -0.351616
vn 0.439547 -0.663922 -0.604985
vn 0.200117 -0.933652 -0.297065
vn 0.313095 -0.716411 -0.623480
vn -0.082529 -0.923516 -0.374575
vn -0.116333 -0.710349 -0.694169
vn -0.123962 -0.913585 -0.387293
vn -0.228234 -0.673903 -0.702683
vn -0.160160 -0.918207 -0.362278
vn -0.316474 -0.710569 -0.628439
vn -0.294494 -0.931298 -0.214376
vn -0.563822 -0.717146 -0.409641
vn -0.351754 -0.929054 -0.114578
vn -0.662813 -0.717147 -0.215361
vn -0.393938 -0.910459 0.126006
vn -0.687628 -0.712312 0.140637
vn -0.478601 -0.860050 0.176789
vn -0.712126 -0.655683 0.250913
vn -0.405484 -0.894747 0.187110
vn -0.615575 -0.716181 0.328865
vn -0.132692 -0.922690 0.361989
vn -0.308179 -0.751717 0.583050
vn -0.205816 -0.879761 0.428555
vn -0.274303 -0.683783 0.676164
vn -0.112527 -0.923989 0.365489
vn -0.109352 -0.719082 0.686268
vn 0.241877 -0.928632 0.281314
vn 0.332261 -0.715840 0.614147
vn 0.220202 -0.920815 0.321887
vn 0.420494 -0.698728 0.578761
vn 0.201420 -0.929263 0.309676
vn 0.481421 -0.715839 0.505775
vn 0.392143 -0.919888 0.005531
vn 0.705739 -0.705313 0.066832
vn 0.358251 -0.933625 -0.000795
vn 0.737718 -0.675109 -0.000048
vn 0.700604 -0.360938 -0.615530
vn 0.924562 -0.355376 -0.137452
vn 0.554179 -0.333288 -0.762762
vn 0.368905 -0.360937 -0.856524
vn -0.112982 -0.357617 -0.927009
vn -0.290885 -0.337466 -0.895267
vn -0.456839 -0.357674 -0.814474
vn -0.757075 -0.352543 -0.550047
vn -0.889995 -0.352543 -0.289177
vn -0.924416 -0.361776 0.120721
vn -0.895752 -0.331369 0.296351
vn -0.800907 -0.387966 0.456103
vn -0.468307 -0.400298 0.787686
vn -0.303519 -0.357294 0.883299
vn -0.084993 -0.360123 0.929025
vn 0.392654 -0.355585 0.848164
vn 0.552465 -0.341421 0.760404
vn 0.685324 -0.355585 0.635524
vn 0.924395 -0.355400 0.138511
vn 0.941459 -0.337129 -0.000027
vn 0.764690 -0.011197 -0.644301
vn 0.986081 -0.010536 -0.165933
vn 0.587769 -0.007445 -0.808995
vn 0.376464 -0.011197 -0.926364
vn -0.103596 -0.010730 -0.994562
vn -0.308998 -0.008313 -0.951026
vn -0.504442 -0.010748 -0.863379
vn -0.808977 -0.009945 -0.587756
vn -0.951010 -0.009945 -0.309002
vn -0.994518 -0.011148 0.103968
vn -0.951030 -0.007494 0.309008
vn -0.865692 -0.011147 0.500452
vn -0.528774 -0.011071 0.848690
vn -0.309008 -0.007700 0.951028
vn -0.072127 -0.011066 0.997334
vn 0.407264 -0.010416 0.913251
vn 0.587762 -0.008930 0.808985
vn 0.742712 -0.010416 0.669530
vn 0.985880 -0.010541 0.167123
vn 0.999963 -0.008607 -0.000016
vn 0.706824 0.342062 -0.619188
vn 0.931625 0.335910 -0.138708
vn 0.557745 0.315598 -0.767671
vn 0.370462 0.342062 -0.863569
vn -0.113355 0.338499 -0.934114
vn -0.292771 0.319978 -0.901055
vn -0.460821 0.338406 -0.820442
vn -0.762616 0.333798 -0.554072
vn -0.896508 0.333799 -0.291293
vn -0.931067 0.343651 0.122550
vn -0.904361 0.309494 0.293844
vn -0.825282 0.343650 0.448123
vn -0.482774 0.341205 0.806541
vn -0.293068 0.317224 0.901932
vn -0.084494 0.341224 0.936177
vn 0.395615 0.336265 0.854643
vn 0.556107 0.323858 0.765416
vn 0.690572 0.336265 0.640341
vn 0.931472 0.335881 0.139798
vn 0.947420 0.319992 -0.000029
vn 0.473826 0.716429 -0.512072
vn 0.715659 0.697190 -0.041931
vn 0.440203 0.662662 -0.605889
vn 0.340590 0.716429 -0.608874
vn -0.143810 0.706184 -0.693270
vn -0.227307 0.676719 -0.700274
vn -0.293429 0.705832 -0.644749
vn -0.576618 0.701429 -0.418937
vn -0.677855 0.701429 -0.220248
vn -0.673723 0.715524 0.184722
vn -0.720799 0.652379 0.234201
vn -0.653630 0.715524 0.246561
vn -0.300108 0.714613 0.631873
vn -0.230375 0.666513 0.709005
vn -0.129136 0.714659 0.687449
vn 0.342273 0.700818 0.625862
vn 0.426626 0.687884 0.587202
vn 0.489470 0.700816 0.518918
vn 0.715783 0.697029 0.042497
vn 0.731006 0.682371 -0.000152
vn 0.004521 0.962985 -0.269519
vn 0.230260 0.959855 0.160181
vn 0.184520 0.950046 -0.251726
vn 0.253108 0.963434 -0.087932
vn -0.208868 0.964618 -0.160893
vn -0.080230 0.964963 -0.249820
vn 0.078949 0.963217 -0.256866
vn -0.150550 0.982533 -0.109381
vn -0.176983 0.982533 -0.057505
vn -0.149844 0.944756 0.291517
vn -0.326663 0.939175 0.106026
vn -0.292535 0.944791 -0.147627
vn 0.058964 0.966716 0.248965
vn -0.091885 0.953080 0.288435
vn -0.195084 0.966371 0.167541
vn 0.208772 0.970743 0.118627
vn 0.134006 0.973664 0.184446
vn 0.048301 0.970740 0.235226
vn 0.231133 0.959296 -0.162263
vn 0.244267 0.969708 -0.000178
vn -0.070275 0.980169 -0.185285
vn 0.099551 0.941405 0.322251
vn 0.125031 0.973189 -0.193058
vn 0.210336 0.977629 -0.000158
vn -0.274233 0.960335 -0.050523
vn -0.024490 0.995072 -0.096088
vn 0.201204 0.956885 -0.209495
vn -0.008707 0.999942 -0.006327
vn -0.010234 0.999942 -0.003325
vn -0.063008 0.945429 0.319678
vn -0.257792 0.962432 0.085250
vn -0.239717 0.945267 -0.221371
vn 0.068284 0.986877 0.146324
vn -0.072389 0.979683 0.187031
vn -0.127371 0.989641 0.066232
vn 0.212145 0.974868 -0.068018
vn 0.093430 0.987297 0.128511
vn -0.130306 0.974852 0.180786
vn 0.100095 0.937711 -0.332684
vn 0.185216 0.982665 0.008046
vn 0.799845 0.417593 -0.431120
vn 0.937867 0.346668 -0.015046
vn 0.518128 0.449269 -0.727805
vn 0.198019 0.403442 -0.893322
vn -0.042167 0.381144 -0.923554
vn -0.284623 0.373669 -0.882814
vn -0.525403 0.396078 -0.753043
vn -0.741605 0.399626 -0.538814
vn -0.871811 0.399628 -0.283272
vn -0.913736 0.403403 -0.048501
vn -0.863794 0.418205 0.281006
vn -0.712115 0.402551 0.575191
vn -0.654484 0.407572 0.636817
vn -0.282379 0.482305 0.829243
vn 0.192302 0.420429 0.886713
vn 0.450217 0.371734 0.811861
vn 0.556784 0.320563 0.766310
vn 0.633013 0.371788 0.679020
vn 0.936071 0.351467 0.015550
vn 0.961097 0.276198 0.002698
vn -0.006592 -0.999883 0.013817
vn 0.000000 1.000000 0.000000
s 1
g Pumpkin
usemtl initialShadingGroup
f 1/1/1 2/2/2 22/22/3 21/21/4
f 2/2/2 3/3/5 23/23/6 22/22/3
f 3/3/5 4/4/7 24/24/8 23/23/6
f 4/4/7 5/5/9 25/212/10 24/24/8
f 5/213/9 6/6/11 26/26/12 25/25/10
f 6/6/11 7/7/13 27/27/14 26/26/12
f 7/7/13 8/8/15 28/28/16 27/27/14
f 8/8/15 9/9/17 29/29/18 28/28/16
f 9/9/17 10/10/19 30/30/20 29/29/18
f 10/10/19 11/11/21 31/31/22 30/30/20
f 11/11/21 12/12/23 32/32/24 31/31/22
f 12/12/23 13/13/25 33/33/26 32/32/24
f 13/13/25 14/14/27 34/34/28 33/33/26
f 14/14/27 15/15/29 35/35/30 34/34/28
f 15/15/29 16/16/31 36/36/32 35/35/30
f 16/16/31 17/17/33 37/37/34 36/36/32
f 17/17/33 18/18/35 38/38/36 37/37/34
f 18/18/35 19/19/37 39/39/38 38/38/36
f 19/19/37 20/20/39 40/40/40 39/39/38
f 20/20/39 1/1/1 21/21/4 40/40/40
f 21/21/4 22/22/3 42/42/41 41/41/42
f 22/22/3 23/23/6 43/43/43 42/42/41
f 23/23/6 24/24/8 44/44/44 43/43/43
f 24/24/8 25/212/10 45/219/45 44/44/44
f 25/25/10 26/26/12 46/46/46 45/45/45
f 26/26/12 27/27/14 47/47/47 46/46/46
f 27/27/14 28/28/16 48/48/48 47/47/47
f 28/28/16 29/29/18 49/49/49 48/48/48
f 29/29/18 30/30/20 50/50/50 49/49/49
f 30/30/20 31/31/22 51/51/51 50/50/50
f 31/31/22 32/32/24 52/52/52 51/51/51
f 32/32/24 33/33/26 53/53/53 52/52/52
f 33/33/26 34/34/28 54/54/54 53/53/53
f 34/34/28 35/35/30 55/55/55 54/54/54
f 35/35/30 36/36/32 56/56/56 55/55/55
f 36/36/32 37/37/34 57/57/57 56/56/56
f 37/37/34 38/38/36 58/58/58 57/57/57
f 38/38/36 39/39/38 59/59/59 58/58/58
f 39/39/38 40/40/40 60/60/60 59/59/59
f 40/40/40 21/21/4 41/41/42 60/60/60
f 41/41/42 42/42/41 62/62/61 61/61/62
f 42/42/41 43/43/43 63/63/63 62/62/61
f 43/43/43 44/44/44 64/64/64 63/63/63
f 44/44/44 45/219/45 65/218/65 64/64/64
f 45/45/45 46/46/46 66/66/66 65/65/65
f 46/46/46 47/47/47 67/67/67 66/66/66
f 47/47/47 48/48/48 68/68/68 67/67/67
f 48/48/48 49/49/49 69/69/69 68/68/68
f 49/49/49 50/50/50 70/70/70 69/69/69
f 50/50/50 51/51/51 71/71/71 70/70/70
f 51/51/51 52/52/52 72/72/72 71/71/71
f 52/52/52 53/53/53 73/73/73 72/72/72
f 53/53/53 54/54/54 74/74/74 73/73/73
f 54/54/54 55/55/55 75/75/75 74/74/74
f 55/55/55 56/56/56 76/76/76 75/75/75
f 56/56/56 57/57/57 77/77/77 76/76/76
f 57/57/57 58/58/58 78/78/78 77/77/77
f 58/58/58 59/59/59 79/79/79 78/78/78
f 59/59/59 60/60/60 80/80/80 79/79/79
f 60/60/60 41/41/42 61/61/62 80/80/80
f 61/61/62 62/62/61 82/82/81 81/81/82
f 62/62/61 63/63/63 83/83/83 82/82/81
f 63/63/63 64/64/64 84/84/84 83/83/83
f 64/64/64 65/218/65 85/217/85 84/84/84
f 65/65/65 66/66/66 86/86/86 85/85/85
f 66/66/66 67/67/67 87/87/87 86/86/86
f 67/67/67 68/68/68 88/88/88 87/87/87
f 68/68/68 69/69/69 89/89/89 88/88/88
f 69/69/69 70/70/70 90/90/90 89/89/89
f 70/70/70 71/71/71 91/91/91 90/90/90
f 71/71/71 72/72/72 92/92/92 91/91/91
f 72/72/72 73/73/73 93/93/93 92/92/92
f 73/73/73 74/74/74 94/94/94 93/93/93
f 74/74/74 75/75/75 95/95/95 94/94/94
f 75/75/75 76/76/76 96/96/96 95/95/95
f 76/76/76 77/77/77 97/97/97 96/96/96
f 77/77/77 78/78/78 98/98/98 97/97/97
f 78/78/78 79/79/79 99/99/99 98/98/98
f 79/79/79 80/80/80 100/100/100 99/99/99
f 80/80/80 61/61/62 81/81/82 100/100/100
f 81/81/82 82/82/81 102/102/101 101/101/102
f 82/82/81 83/83/83 103/103/103 102/102/101
f 83/83/83 84/84/84 104/104/104 103/103/103
f 84/84/84 85/217/85 105/216/105 104/104/104
f 85/85/85 86/86/86 106/106/106 105/105/105
f 86/86/86 87/87/87 107/107/107 106/106/106
f 87/87/87 88/88/88 108/108/108 107/107/107
f 88/88/88 89/89/89 109/109/109 108/108/108
f 89/89/89 90/90/90 110/110/110 109/109/109
f 90/90/90 91/91/91 111/111/111 110/110/110
f 91/91/91 92/92/92 112/112/112 111/111/111
f 92/92/92 93/93/93 113/113/113 112/112/112
f 93/93/93 94/94/94 114/114/114 113/113/113
f 94/94/94 95/95/95 115/115/115 114/114/114
f 95/95/95 96/96/96 116/116/116 115/115/115
f 96/96/96 97/97/97 117/117/117 116/116/116
f 97/97/97 98/98/98 118/118/118 117/117/117
f 98/98/98 99/99/99 119/119/119 118/118/118
f 99/99/99 100/100/100 120/120/120 119/119/119
f 100/100/100 81/81/82 101/101/102 120/120/120
f 101/101/102 102/102/101 122/122/121 121/121/122
f 102/102/101 103/103/103 123/123/123 122/122/121
f 103/103/103 104/104/104 124/124/124 123/123/123
f 104/104/104 105/216/105 125/215/125 124/124/124
f 105/105/105 106/106/106 126/126/126 125/125/125
f 106/106/106 107/107/107 127/127/127 126/126/126
f 107/107/107 108/108/108 128/128/128 127/127/127
f 108/108/108 109/109/109 129/129/129 128/128/128
f 109/109/109 110/110/110 130/130/130 129/129/129
f 110/110/110 111/111/111 131/131/131 130/130/130
f 111/111/111 112/112/112 132/132/132 131/131/131
f 112/112/112 113/113/113 133/133/133 132/132/132
f 113/113/113 114/114/114 134/134/134 133/133/133
f 114/114/114 115/115/115 135/135/135 134/134/134
f 115/115/115 116/116/116 136/136/136 135/135/135
f 116/116/116 117/117/117 137/137/137 136/136/136
f 117/117/117 118/118/118 138/138/138 137/137/137
f 118/118/118 119/119/119 139/139/139 138/138/138
f 119/119/119 120/120/120 140/140/140 139/139/139
f 120/120/120 101/101/102 121/121/122 140/140/140
f 121/121/122 122/122/121 142/193/141 141/161/142
f 122/122/121 123/123/123 143/194/143 142/193/141
f 123/123/123 124/124/124 144/195/144 143/194/143
f 124/124/124 125/215/125 145/214/145 144/195/144
f 125/125/125 126/126/126 146/197/146 145/196/145
f 126/126/126 127/127/127 147/198/147 146/197/146
f 127/127/127 128/128/128 148/199/148 147/198/147
f 128/128/128 129/129/129 149/200/149 148/199/148
f 129/129/129 130/130/130 150/201/150 149/200/149
f 130/130/130 131/131/131 151/202/151 150/201/150
f 131/131/131 132/132/132 152/203/152 151/202/151
f 132/132/132 133/133/133 153/204/153 152/203/152
f 133/133/133 134/134/134 154/205/154 153/204/153
f 134/134/134 135/135/135 155/206/155 154/205/154
f 135/135/135 136/136/136 156/207/156 155/206/155
f 136/136/136 137/137/137 157/208/157 156/207/156
f 137/137/137 138/138/138 158/209/158 157/208/157
f 138/138/138 139/139/139 159/210/159 158/209/158
f 139/139/139 140/140/140 160/211/160 159/210/159
f 140/140/140 121/121/122 141/161/142 160/211/160
f 141/141/142 142/142/141 162/143/161 161/144/162
f 142/142/141 143/145/143 163/146/163 162/143/161
f 143/145/143 144/147/144 164/148/164 163/146/163
f 144/147/144 145/149/145 165/150/165 164/148/164
f 145/149/145 146/151/146 166/152/166 165/150/165
f 146/151/146 147/153/147 167/154/167 166/152/166
f 147/153/147 148/155/148 168/156/168 167/154/167
f 148/155/148 149/157/149 169/158/169 168/156/168
f 149/157/149 150/159/150 170/160/170 169/158/169
f 150/159/150 151/162/151 171/163/171 170/160/170
f 151/162/151 152/164/152 172/165/172 171/163/171
f 152/164/152 153/166/153 173/167/173 172/165/172
f 153/166/153 154/168/154 174/169/174 173/167/173
f 154/168/154 155/170/155 175/171/175 174/169/174
f 155/170/155 156/172/156 176/173/176 175/171/175
f 156/172/156 157/174/157 177/175/177 176/173/176
f 157/174/157 158/176/158 178/177/178 177/175/177
f 158/176/158 159/178/159 179/179/179 178/177/178
f 159/178/159 160/180/160 180/181/180 179/179/179
f 160/180/160 141/141/142 161/144/162 180/181/180
f 2/2/2 1/1/1 181/183/181
f 3/3/5 2/2/2 181/183/181
f 4/4/7 3/3/5 181/184/181
f 5/5/9 4/4/7 181/184/181
f 6/6/11 5/213/9 181/185/181
f 7/7/13 6/6/11 181/185/181
f 8/8/15 7/7/13 181/186/181
f 9/9/17 8/8/15 181/186/181
f 10/10/19 9/9/17 181/187/181
f 11/11/21 10/10/19 181/187/181
f 12/12/23 11/11/21 181/188/181
f 13/13/25 12/12/23 181/188/181
f 14/14/27 13/13/25 181/189/181
f 15/15/29 14/14/27 181/189/181
f 16/16/31 15/15/29 181/190/181
f 17/17/33 16/16/31 181/190/181
f 18/18/35 17/17/33 181/191/181
f 19/19/37 18/18/35 181/191/181
f 20/20/39 19/19/37 181/192/181
f 1/1/1 20/20/39 181/192/181
f 161/144/162 162/143/161 182/182/182
f 162/143/161 163/146/163 182/182/182
f 163/146/163 164/148/164 182/182/182
f 164/148/164 165/150/165 182/182/182
f 165/150/165 166/152/166 182/182/182
f 166/152/166 167/154/167 182/182/182
f 167/154/167 168/156/168 182/182/182
f 168/156/168 169/158/169 182/182/182
f 169/158/169 170/160/170 182/182/182
f 170/160/170 171/163/171 182/182/182
f 171/163/171 172/165/172 182/182/182
f 172/165/172 173/167/173 182/182/182
f 173/167/173 174/169/174 182/182/182
f 174/169/174 175/171/175 182/182/182
f 175/171/175 176/173/176 182/182/182
f 176/173/176 177/175/177 182/182/182
f 177/175/177 178/177/178 182/182/182
f 178/177/178 179/179/179 182/182/182
f 179/179/179 180/181/180 182/182/182
f 180/181/180 161/144/162 182/182/182
