# This file uses centimeters as units for non-parametric coordinates.

mtllib Rock.mtl
g default
v -0.260921 -0.189722 0.278637
v 0.236558 -0.209786 0.303708
v -0.230045 0.537021 0.322261
v 0.338257 0.452681 0.344122
v -0.211964 0.505885 -0.216671
v 0.364950 0.406010 -0.198867
v -0.315073 -0.301932 -0.307114
v 0.329751 -0.270944 -0.223406
v -0.326404 0.503186 0.030167
v 0.501346 -0.102845 -0.242708
v 0.054856 -0.307985 -0.379033
v -0.455816 -0.041828 -0.419324
v 0.307893 -0.260862 0.065843
v -0.321780 -0.283353 0.040599
v -0.014068 -0.226536 0.352419
v 0.307402 0.010844 0.363855
v 0.109692 0.520157 0.432961
v -0.335134 0.061636 0.312612
v 0.377189 0.409250 0.102661
v 0.096061 0.516979 -0.318500
v 0.009072 0.066122 0.445185
v 0.112185 0.540699 0.075128
v 0.174320 -0.061257 -0.694818
v 0.005658 -0.296816 0.030811
v 0.518363 -0.004160 0.107755
v -0.461013 -0.005435 0.059187
v -0.324318 0.215743 -0.334191
v 0.452124 0.114257 -0.179039
v 0.379270 -0.098379 -0.530893
v 0.433505 -0.235396 -0.269216
v 0.228936 -0.297988 -0.309403
v 0.123076 -0.250339 -0.671724
v -0.159258 -0.300415 -0.367702
v -0.459607 -0.258311 -0.405194
v 0.022884 -0.300723 -0.159105
v -0.157866 -0.295718 0.029839
v -0.315779 -0.281846 -0.146678
v 0.320832 -0.262888 -0.092147
v 0.162317 -0.290361 0.045517
v 0.278292 -0.242889 0.215067
v -0.005496 -0.265731 0.201631
v -0.295191 -0.243205 0.195633
v 0.429635 -0.183453 0.076604
v 0.436876 0.034674 0.274787
v 0.513276 -0.051926 -0.038431
v 0.443093 0.224906 0.105832
v -0.431981 -0.167469 0.050507
v -0.443532 -0.000692 -0.186850
v -0.461151 0.040081 0.182597
v -0.436602 0.266356 0.031811
v -0.167112 -0.202895 0.329050
v -0.003596 -0.125475 0.417704
v -0.171642 0.062775 0.448119
v -0.306207 -0.129684 0.282190
v 0.135835 -0.236701 0.339229
v 0.285878 -0.132021 0.350574
v 0.181349 0.008451 0.428042
v 0.314010 0.280678 0.334750
v 0.283211 0.468117 0.400208
v 0.036299 0.314604 0.385668
v -0.117518 0.531803 0.403420
v -0.275265 0.282859 0.333456
v 0.131815 0.572430 0.305430
v -0.124703 0.549886 0.059846
v -0.312170 0.601200 0.238375
v 0.351265 0.462072 0.212768
v 0.260753 0.519062 0.084384
v 0.416811 0.389646 -0.036713
v 0.283044 0.491824 -0.304271
v 0.107965 0.578050 -0.126871
v -0.063242 0.516223 -0.297104
v -0.275729 0.514791 -0.117494
v 0.048632 0.214292 -0.628391
v -0.189863 -0.045823 -0.672199
v -0.171564 -0.113267 0.384105
v 0.154561 -0.132658 0.405132
v 0.205656 0.292279 0.402450
v -0.144382 0.297139 0.391458
v -0.137559 0.613567 0.331807
v 0.268783 0.555679 0.244266
v 0.345104 0.521822 -0.064319
v -0.090115 0.560866 -0.160130
v -0.169932 0.251362 -0.511383
v 0.292217 0.163826 -0.416008
v 0.334252 -0.264756 -0.505516
v -0.220312 -0.268262 -0.621538
v -0.153727 -0.309749 -0.160617
v 0.184188 -0.288062 -0.128477
v 0.146162 -0.282753 0.210292
v -0.159859 -0.260994 0.201019
v 0.389604 -0.162584 0.251084
v 0.446653 -0.202628 -0.084119
v 0.475049 0.207451 -0.023586
v 0.381362 0.259981 0.232458
v -0.448169 -0.183420 -0.161722
v -0.365510 -0.157907 0.182332
v -0.414178 0.306734 0.215409
v -0.401829 0.248977 -0.199227
vt 0.375000 0.000000
vt 0.375000 1.000000
vt 0.625000 0.000000
vt 0.625000 1.000000
vt 0.375000 0.250000
vt 0.625000 0.250000
vt 0.375000 0.500000
vt 0.125000 0.250000
vt 0.625000 0.500000
vt 0.875000 0.250000
vt 0.375000 0.750000
vt 0.125000 0.000000
vt 0.625000 0.750000
vt 0.875000 0.000000
vt 0.375000 0.375000
vt 0.250000 0.250000
vt 0.625000 0.625000
vt 0.875000 0.125000
vt 0.500000 0.750000
vt 0.375000 0.625000
vt 0.125000 0.125000
vt 0.625000 0.875000
vt 0.750000 0.000000
vt 0.375000 0.875000
vt 0.250000 0.000000
vt 0.500000 0.000000
vt 0.500000 1.000000
vt 0.625000 0.125000
vt 0.500000 0.250000
vt 0.375000 0.125000
vt 0.625000 0.375000
vt 0.750000 0.250000
vt 0.500000 0.500000
vt 0.500000 0.125000
vt 0.500000 0.375000
vt 0.500000 0.625000
vt 0.500000 0.875000
vt 0.750000 0.125000
vt 0.250000 0.125000
vt 0.437500 0.062500
vt 0.562500 0.062500
vt 0.562500 0.187500
vt 0.437500 0.187500
vt 0.437500 0.312500
vt 0.562500 0.312500
vt 0.562500 0.437500
vt 0.437500 0.437500
vt 0.437500 0.562500
vt 0.562500 0.562500
vt 0.562500 0.687500
vt 0.437500 0.687500
vt 0.437500 0.812500
vt 0.562500 0.812500
vt 0.562500 0.937500
vt 0.437500 0.937500
vt 0.687500 0.062500
vt 0.812500 0.062500
vt 0.812500 0.187500
vt 0.687500 0.187500
vt 0.187500 0.062500
vt 0.312500 0.062500
vt 0.312500 0.187500
vt 0.187500 0.187500
vt 0.437500 0.000000
vt 0.437500 1.000000
vt 0.500000 0.062500
vt 0.437500 0.125000
vt 0.375000 0.062500
vt 0.562500 0.000000
vt 0.562500 1.000000
vt 0.625000 0.062500
vt 0.562500 0.125000
vt 0.625000 0.187500
vt 0.562500 0.250000
vt 0.500000 0.187500
vt 0.437500 0.250000
vt 0.375000 0.187500
vt 0.500000 0.312500
vt 0.437500 0.375000
vt 0.375000 0.312500
vt 0.312500 0.250000
vt 0.625000 0.312500
vt 0.687500 0.250000
vt 0.562500 0.375000
vt 0.625000 0.437500
vt 0.812500 0.250000
vt 0.562500 0.500000
vt 0.500000 0.437500
vt 0.437500 0.500000
vt 0.375000 0.437500
vt 0.187500 0.250000
vt 0.500000 0.562500
vt 0.437500 0.625000
vt 0.375000 0.562500
vt 0.125000 0.187500
vt 0.625000 0.562500
vt 0.875000 0.187500
vt 0.562500 0.625000
vt 0.625000 0.687500
vt 0.875000 0.062500
vt 0.562500 0.750000
vt 0.500000 0.687500
vt 0.437500 0.750000
vt 0.375000 0.687500
vt 0.125000 0.062500
vt 0.500000 0.812500
vt 0.437500 0.875000
vt 0.375000 0.812500
vt 0.187500 0.000000
vt 0.625000 0.812500
vt 0.812500 0.000000
vt 0.562500 0.875000
vt 0.625000 0.937500
vt 0.687500 0.000000
vt 0.500000 0.937500
vt 0.375000 0.937500
vt 0.312500 0.000000
vt 0.750000 0.062500
vt 0.687500 0.125000
vt 0.812500 0.125000
vt 0.750000 0.187500
vt 0.250000 0.062500
vt 0.187500 0.125000
vt 0.312500 0.125000
vt 0.250000 0.187500
vn -0.446264 -0.650618 0.614447
vn -0.243653 -0.752074 0.612387
vn -0.368226 -0.320751 0.872656
vn -0.648719 -0.311234 0.694476
vn -0.096236 -0.798581 0.594145
vn -0.043143 -0.328486 0.943523
vn 0.006217 0.053481 0.998550
vn -0.315107 0.004815 0.949044
vn -0.652110 -0.047807 0.756616
vn 0.103188 -0.807581 0.580659
vn 0.192289 -0.331313 0.923719
vn 0.362032 -0.740326 0.566436
vn 0.498070 -0.361666 0.788114
vn 0.568914 -0.020418 0.822143
vn 0.236576 -0.005557 0.971597
vn 0.217848 0.011671 0.975913
vn -0.003108 0.031433 0.999501
vn 0.689948 0.045356 0.722437
vn 0.843994 0.206961 0.494815
vn 0.383608 0.286994 0.877769
vn 0.079407 0.336051 0.938491
vn -0.262540 0.102161 0.959498
vn -0.597377 0.123384 0.792413
vn -0.184799 0.282309 0.941356
vn -0.564255 0.197022 0.801748
vn -0.020654 0.998449 0.051710
vn -0.610316 0.784716 0.108333
vn 0.152930 0.984061 0.090754
vn 0.081274 0.995839 -0.041223
vn -0.032032 0.992029 -0.121867
vn -0.717001 0.679260 -0.156572
vn 0.375595 0.925888 0.040744
vn 0.886264 0.446004 0.124966
vn 0.871473 0.453049 0.187836
vn 0.361623 0.931709 0.033862
vn 0.529131 0.847749 -0.036633
vn 0.092152 0.993383 -0.068538
vn 0.917465 0.394114 -0.054144
vn 0.868945 0.277922 -0.409504
vn 0.572497 0.575772 -0.583725
vn 0.175008 0.746386 -0.642090
vn -0.120595 0.988673 -0.089349
vn -0.650516 0.717347 -0.249485
vn -0.306583 0.745093 -0.592321
vn -0.573036 0.633309 -0.520144
vn -0.433480 0.534016 -0.725894
vn -0.713228 0.472121 -0.518081
vn 0.135297 0.500723 -0.854969
vn 0.313865 0.191007 -0.930057
vn -0.418283 0.168418 -0.892567
vn -0.839777 0.208165 -0.501440
vn 0.687276 0.406295 -0.602143
vn 0.891653 0.282894 -0.353449
vn 0.951668 0.068294 -0.299439
vn 0.783012 0.162532 -0.600397
vn 0.523982 -0.730393 -0.438143
vn 0.114813 -0.662224 -0.740457
vn 0.754744 -0.636240 -0.159877
vn 0.287019 -0.956602 0.050332
vn 0.132424 -0.990106 -0.046418
vn 0.031799 -0.994002 -0.104634
vn -0.348260 -0.604416 -0.716517
vn -0.794311 -0.461836 -0.394687
vn -0.039319 -0.993877 -0.103263
vn -0.233776 -0.972277 0.005186
vn -0.036162 -0.999070 0.023493
vn -0.371191 -0.924797 0.083474
vn 0.031222 -0.999200 0.025004
vn 0.007921 -0.996347 0.085024
vn -0.051465 -0.992136 0.114093
vn -0.417590 -0.897334 0.142866
vn 0.103662 -0.993784 0.040602
vn 0.311070 -0.947297 0.076580
vn 0.360934 -0.925622 0.113803
vn 0.101195 -0.993028 0.060460
vn 0.076964 -0.975845 0.204458
vn -0.060223 -0.973454 0.220818
vn 0.383441 -0.880798 0.277793
vn -0.096585 -0.955086 0.280148
vn -0.401063 -0.837031 0.372194
vn 0.714011 -0.503559 0.486432
vn 0.752905 -0.618382 0.225252
vn 0.968510 -0.041683 0.245459
vn 0.830273 0.017769 0.557073
vn 0.748781 -0.656663 0.090118
vn 0.997235 -0.072602 -0.015877
vn 0.962137 0.256961 -0.090906
vn 0.931897 0.278254 0.232685
vn 0.870040 0.202818 0.449328
vn -0.929842 -0.360570 0.073376
vn -0.898898 -0.416376 0.136432
vn -0.999575 -0.009637 0.027502
vn -0.988166 0.124873 -0.089079
vn -0.776799 -0.421390 0.467990
vn -0.913969 -0.035553 0.404223
vn -0.899753 0.228827 0.371596
vn -0.960072 0.264729 -0.090449
vn -0.903025 0.339483 -0.263245
s 1
g pCube2
usemtl initialShadingGroup
f 1/1/1 51/64/2 75/40/3 54/68/4
f 51/64/2 15/26/5 52/66/6 75/40/3
f 75/40/3 52/66/6 21/34/7 53/67/8
f 54/68/4 75/40/3 53/67/8 18/30/9
f 15/26/5 55/69/10 76/41/11 52/66/6
f 55/69/10 2/3/12 56/71/13 76/41/11
f 76/41/11 56/71/13 16/28/14 57/72/15
f 52/66/6 76/41/11 57/72/15 21/34/7
f 21/34/7 57/72/15 77/42/16 60/75/17
f 57/72/15 16/28/14 58/73/18 77/42/16
f 77/42/16 58/73/18 4/6/19 59/74/20
f 60/75/17 77/42/16 59/74/20 17/29/21
f 18/30/9 53/67/8 78/43/22 62/77/23
f 53/67/8 21/34/7 60/75/17 78/43/22
f 78/43/22 60/75/17 17/29/21 61/76/24
f 62/77/23 78/43/22 61/76/24 3/5/25
f 3/5/25 61/76/24 79/44/26 65/80/27
f 61/76/24 17/29/21 63/78/28 79/44/26
f 79/44/26 63/78/28 22/35/29 64/79/30
f 65/80/27 79/44/26 64/79/30 9/15/31
f 17/29/21 59/74/20 80/45/32 63/78/28
f 59/74/20 4/6/19 66/82/33 80/45/32
f 80/45/32 66/82/33 19/31/34 67/84/35
f 63/78/28 80/45/32 67/84/35 22/35/29
f 22/35/29 67/84/35 81/46/36 70/88/37
f 67/84/35 19/31/34 68/85/38 81/46/36
f 81/46/36 68/85/38 6/9/39 69/87/40
f 70/88/37 81/46/36 69/87/40 20/33/41
f 9/15/31 64/79/30 82/47/42 72/90/43
f 64/79/30 22/35/29 70/88/37 82/47/42
f 82/47/42 70/88/37 20/33/41 71/89/44
f 72/90/43 82/47/42 71/89/44 5/7/45
f 5/7/45 71/89/44 83/48/46 27/94/47
f 71/89/44 20/33/41 73/92/48 83/48/46
f 83/48/46 73/92/48 23/36/49 74/93/50
f 27/94/47 83/48/46 74/93/50 12/20/51
f 20/33/41 69/87/40 84/49/52 73/92/48
f 69/87/40 6/9/39 28/96/53 84/49/52
f 84/49/52 28/96/53 10/17/54 29/98/55
f 73/92/48 84/49/52 29/98/55 23/36/49
f 23/36/49 29/98/55 85/50/56 32/102/57
f 29/98/55 10/17/54 30/99/58 85/50/56
f 85/50/56 30/99/58 8/13/59 31/101/60
f 32/102/57 85/50/56 31/101/60 11/19/61
f 12/20/51 74/93/50 86/51/62 34/104/63
f 74/93/50 23/36/49 32/102/57 86/51/62
f 86/51/62 32/102/57 11/19/61 33/103/64
f 34/104/63 86/51/62 33/103/64 7/11/65
f 7/11/65 33/103/64 87/52/66 37/108/67
f 33/103/64 11/19/61 35/106/68 87/52/66
f 87/52/66 35/106/68 24/37/69 36/107/70
f 37/108/67 87/52/66 36/107/70 14/24/71
f 11/19/61 31/101/60 88/53/72 35/106/68
f 31/101/60 8/13/59 38/110/73 88/53/72
f 88/53/72 38/110/73 13/22/74 39/112/75
f 35/106/68 88/53/72 39/112/75 24/37/69
f 24/37/69 39/112/75 89/54/76 41/115/77
f 39/112/75 13/22/74 40/113/78 89/54/76
f 89/54/76 40/113/78 2/4/12 55/70/10
f 41/115/77 89/54/76 55/70/10 15/27/5
f 14/24/71 36/107/70 90/55/79 42/116/80
f 36/107/70 24/37/69 41/115/77 90/55/79
f 90/55/79 41/115/77 15/27/5 51/65/2
f 42/116/80 90/55/79 51/65/2 1/2/1
f 2/3/12 40/114/78 91/56/81 56/71/13
f 40/114/78 13/23/74 43/118/82 91/56/81
f 91/56/81 43/118/82 25/38/83 44/119/84
f 56/71/13 91/56/81 44/119/84 16/28/14
f 13/23/74 38/111/73 92/57/85 43/118/82
f 38/111/73 8/14/59 30/100/58 92/57/85
f 92/57/85 30/100/58 10/18/54 45/120/86
f 43/118/82 92/57/85 45/120/86 25/38/83
f 25/38/83 45/120/86 93/58/87 46/121/88
f 45/120/86 10/18/54 28/97/53 93/58/87
f 93/58/87 28/97/53 6/10/39 68/86/38
f 46/121/88 93/58/87 68/86/38 19/32/34
f 16/28/14 44/119/84 94/59/89 58/73/18
f 44/119/84 25/38/83 46/121/88 94/59/89
f 94/59/89 46/121/88 19/32/34 66/83/33
f 58/73/18 94/59/89 66/83/33 4/6/19
f 7/12/65 37/109/67 95/60/90 34/105/63
f 37/109/67 14/25/71 47/122/91 95/60/90
f 95/60/90 47/122/91 26/39/92 48/123/93
f 34/105/63 95/60/90 48/123/93 12/21/51
f 14/25/71 42/117/80 96/61/94 47/122/91
f 42/117/80 1/1/1 54/68/4 96/61/94
f 96/61/94 54/68/4 18/30/9 49/124/95
f 47/122/91 96/61/94 49/124/95 26/39/92
f 26/39/92 49/124/95 97/62/96 50/125/97
f 49/124/95 18/30/9 62/77/23 97/62/96
f 97/62/96 62/77/23 3/5/25 65/81/27
f 50/125/97 97/62/96 65/81/27 9/16/31
f 12/21/51 48/123/93 98/63/98 27/95/47
f 48/123/93 26/39/92 50/125/97 98/63/98
f 98/63/98 50/125/97 9/16/31 72/91/43
f 27/95/47 98/63/98 72/91/43 5/8/45
