# This file uses centimeters as units for non-parametric coordinates.

mtllib Shelf.mtl
g default
v -1.084234 3.223897 -0.059794
v -0.855936 3.223897 -0.059794
v -1.084234 4.024151 0.173760
v -0.855936 4.024151 0.173760
v -1.084234 4.024151 -0.084303
v -0.855936 4.024151 -0.084303
v -1.084234 3.367590 -0.179144
v -0.855936 3.367590 -0.179144
v 0.312344 3.223897 -0.059794
v 0.540642 3.223897 -0.059794
v 0.312344 4.024151 0.173760
v 0.540642 4.024151 0.173760
v 0.312344 4.024151 -0.084303
v 0.540642 4.024151 -0.084303
v 0.312344 3.367590 -0.179144
v 0.540642 3.367590 -0.179144
v -1.231919 4.010781 0.497462
v 0.731347 4.010781 0.497462
v -1.231919 4.130718 0.497462
v 0.731347 4.130718 0.497462
v -1.231919 4.130718 -0.502538
v 0.731347 4.130718 -0.502538
v -1.231919 4.010781 -0.502538
v 0.731347 4.010781 -0.502538
vt 0.720057 0.036962
vt 0.854868 0.036962
vt 0.720057 0.171774
vt 0.854868 0.171774
vt 0.720057 0.306585
vt 0.854868 0.306585
vt 0.720057 0.441397
vt 0.854868 0.441397
vt 0.720057 0.576208
vt 0.854868 0.576208
vt 0.989680 0.036962
vt 0.989680 0.171774
vt 0.585245 0.036962
vt 0.585245 0.171774
vt 0.722604 0.040722
vt 0.855535 0.040722
vt 0.855535 0.173654
vt 0.722604 0.173654
vt 0.855535 0.306585
vt 0.722604 0.306585
vt 0.855535 0.439517
vt 0.722604 0.439517
vt 0.855535 0.572448
vt 0.722604 0.572448
vt 0.988467 0.040722
vt 0.988467 0.173654
vt 0.589672 0.040722
vt 0.589672 0.173654
vt 0.014028 0.510139
vt 0.014028 0.015654
vt 0.073335 0.015654
vt 0.073335 0.510139
vt 0.013461 0.510235
vt 0.013461 0.015749
vt 0.072769 0.015749
vt 0.072769 0.510235
vt 0.081983 0.986461
vt 0.081983 0.015654
vt 0.576468 0.015654
vt 0.576468 0.986461
vt 0.080472 0.986461
vt 0.080472 0.015654
vt 0.574958 0.015654
vt 0.574958 0.986461
vt 0.013633 0.986461
vt 0.013633 0.015654
vt 0.072940 0.015654
vt 0.072940 0.986461
vt 0.014186 0.986461
vt 0.014186 0.015654
vt 0.073493 0.015654
vt 0.073493 0.986461
vn 0.000000 -0.280162 0.959953
vn 0.000000 -0.280162 0.959953
vn 0.000000 -0.280162 0.959953
vn 0.000000 -0.280162 0.959953
vn 0.000000 1.000000 0.000000
vn 0.000000 1.000000 0.000000
vn 0.000000 1.000000 0.000000
vn 0.000000 1.000000 0.000000
vn 0.000000 0.142968 -0.989727
vn 0.000000 0.142968 -0.989727
vn 0.000000 0.142968 -0.989727
vn 0.000000 0.142968 -0.989727
vn 0.000000 -0.638937 -0.769259
vn 0.000000 -0.638937 -0.769259
vn 0.000000 -0.638937 -0.769259
vn 0.000000 -0.638937 -0.769259
vn 1.000000 0.000000 0.000000
vn 1.000000 0.000000 0.000000
vn 1.000000 0.000000 0.000000
vn 1.000000 0.000000 0.000000
vn -1.000000 0.000000 0.000000
vn -1.000000 0.000000 0.000000
vn -1.000000 0.000000 0.000000
vn -1.000000 0.000000 0.000000
vn 0.000000 -0.280162 0.959953
vn 0.000000 -0.280162 0.959953
vn 0.000000 -0.280162 0.959953
vn 0.000000 -0.280162 0.959953
vn 0.000000 1.000000 0.000000
vn 0.000000 1.000000 0.000000
vn 0.000000 1.000000 0.000000
vn 0.000000 1.000000 0.000000
vn 0.000000 0.142968 -0.989727
vn 0.000000 0.142968 -0.989727
vn 0.000000 0.142968 -0.989727
vn 0.000000 0.142968 -0.989727
vn 0.000000 -0.638937 -0.769259
vn 0.000000 -0.638937 -0.769259
vn 0.000000 -0.638937 -0.769259
vn 0.000000 -0.638937 -0.769259
vn 1.000000 0.000000 0.000000
vn 1.000000 0.000000 0.000000
vn 1.000000 0.000000 0.000000
vn 1.000000 0.000000 0.000000
vn -1.000000 0.000000 0.000000
vn -1.000000 0.000000 0.000000
vn -1.000000 0.000000 0.000000
vn -1.000000 0.000000 0.000000
vn 0.000000 0.000000 1.000000
vn 0.000000 0.000000 1.000000
vn 0.000000 0.000000 1.000000
vn 0.000000 0.000000 1.000000
vn 0.000000 1.000000 0.000000
vn 0.000000 1.000000 0.000000
vn 0.000000 1.000000 0.000000
vn 0.000000 1.000000 0.000000
vn 0.000000 0.000000 -1.000000
vn 0.000000 0.000000 -1.000000
vn 0.000000 0.000000 -1.000000
vn 0.000000 0.000000 -1.000000
vn 0.000000 -1.000000 0.000000
vn 0.000000 -1.000000 0.000000
vn 0.000000 -1.000000 0.000000
vn 0.000000 -1.000000 0.000000
vn 1.000000 0.000000 0.000000
vn 1.000000 0.000000 0.000000
vn 1.000000 0.000000 0.000000
vn 1.000000 0.000000 0.000000
vn -1.000000 0.000000 0.000000
vn -1.000000 0.000000 0.000000
vn -1.000000 0.000000 0.000000
vn -1.000000 0.000000 0.000000
s off
g Shelf
usemtl initialShadingGroup
f 1/1/1 2/2/2 4/4/3 3/3/4
f 3/3/5 4/4/6 6/6/7 5/5/8
f 5/5/9 6/6/10 8/8/11 7/7/12
f 7/7/13 8/8/14 2/10/15 1/9/16
f 2/2/17 8/11/18 6/12/19 4/4/20
f 7/13/21 1/1/22 3/3/23 5/14/24
f 9/15/25 10/16/26 12/17/27 11/18/28
f 11/18/29 12/17/30 14/19/31 13/20/32
f 13/20/33 14/19/34 16/21/35 15/22/36
f 15/22/37 16/21/38 10/23/39 9/24/40
f 10/16/41 16/25/42 14/26/43 12/17/44
f 15/27/45 9/15/46 11/18/47 13/28/48
f 17/45/49 18/46/50 20/47/51 19/48/52
f 19/37/53 20/38/54 22/39/55 21/40/56
f 21/49/57 22/50/58 24/51/59 23/52/60
f 23/41/61 24/42/62 18/43/63 17/44/64
f 18/29/65 24/30/66 22/31/67 20/32/68
f 23/33/69 17/34/70 19/35/71 21/36/72
