# This file uses meters as units for non-parametric coordinates.

mtllib TwigC.mtl
g default
v 31.106714 -0.426645 41.901642
v 31.396893 0.717883 41.756420
v 31.507734 1.588209 40.952992
v 31.106714 1.408216 38.733258
v 30.457857 -0.717880 38.310038
v 30.347018 -1.588206 39.113476
v 30.748037 -1.408214 41.333208
v -30.801551 -0.217360 40.797726
v -30.513870 0.175582 40.704648
v -30.396149 0.514467 40.362393
v -30.768349 0.582334 39.498498
v -31.403788 -0.107560 39.399912
v -31.521512 -0.446440 39.742179
v -31.149311 -0.514304 40.606062
v 30.927375 0.000000 40.033235
v -30.927375 0.000000 40.033235
v -0.002465 -2.993773 39.559548
v 0.061621 -4.021748 38.964227
v 0.133272 -4.253633 36.714447
v 0.113468 -3.368959 35.919314
v -0.002465 -1.158906 36.391156
v -0.074115 -0.927023 38.640935
v -0.054311 -1.811691 39.436058
v -13.804334 0.232270 42.048446
v -14.093954 -0.562485 42.617111
v 9.961978 -3.094313 38.924051
v 10.431970 -3.095199 38.376375
v 14.138013 -3.235121 36.169251
v 13.992776 -2.375873 35.359412
v 13.142551 -0.314608 35.745072
v 12.617082 -0.174691 37.941598
v 9.581744 -0.253667 38.762030
v 19.228366 -3.030719 40.068811
v 23.035040 -3.370865 40.196611
v 22.676170 -3.561731 37.970581
v 22.775360 -1.555128 37.168893
v 23.356023 0.121560 37.602291
v 23.714893 0.773560 39.828321
v 19.488046 0.003913 39.928139
v -23.402049 -1.533481 40.298104
v -22.966483 -1.949069 40.057426
v -22.479507 -1.913714 38.924973
v -22.614105 -1.476273 38.465739
v -23.402049 -0.533492 38.571349
v -23.889026 -0.568846 39.703807
v -23.754429 -1.006283 40.163031
v -14.431606 -1.319007 42.579222
v -14.972559 -1.921581 42.118591
v -15.577364 -1.934846 40.463189
v -15.410199 -1.292049 39.817100
v -14.431606 0.158567 40.027801
v 8.326990 -0.906237 39.899260
v 8.707223 -2.021769 40.061277
v 12.327124 -2.251875 40.399847
v 12.586804 -1.099472 40.259170
v 0.200717 -0.366100 42.550971
v 0.580951 -1.481637 42.712994
v 2.541286 -1.711734 43.209804
v 2.800966 -0.559337 43.069136
v -9.863140 0.115195 47.423086
v -9.482905 -1.000342 47.585109
v -8.823909 -1.230440 47.714403
v -8.564231 -0.078037 47.573730
vt 0.489668 0.177245
vt 0.432907 0.099120
vt 0.341066 0.069279
vt 0.192463 0.177245
vt 0.249224 0.351938
vt 0.341066 0.381779
vt 0.489668 0.273813
vt 0.652116 0.324726
vt 0.677116 0.324726
vt 0.702116 0.324726
vt 0.752116 0.324726
vt 0.802116 0.324726
vt 0.827116 0.324726
vt 0.877116 0.324726
vt 0.902116 0.324726
vt 0.652116 0.699726
vt 0.677116 0.699726
vt 0.702116 0.699726
vt 0.752116 0.699726
vt 0.802116 0.699726
vt 0.827116 0.699726
vt 0.877116 0.699726
vt 0.902116 0.699726
vt 0.603775 0.726187
vt 0.455172 0.618221
vt 0.363331 0.648062
vt 0.306570 0.822755
vt 0.455172 0.930721
vt 0.547014 0.900880
vt 0.603775 0.822755
vt 0.341066 0.225529
vt 0.455172 0.774471
vt 0.902116 0.512226
vt 0.652116 0.512226
vt 0.877116 0.512226
vt 0.827116 0.512226
vt 0.802116 0.512226
vt 0.752116 0.512226
vt 0.702116 0.512226
vt 0.677116 0.512226
vt 0.702565 0.613299
vt 0.674491 0.613218
vt 0.902116 0.418476
vt 0.652116 0.418476
vt 0.877116 0.418476
vt 0.827116 0.418476
vt 0.802116 0.418476
vt 0.752116 0.418476
vt 0.702116 0.418476
vt 0.677116 0.418476
vt 0.902116 0.371601
vt 0.652116 0.371601
vt 0.877116 0.371601
vt 0.827116 0.371601
vt 0.802116 0.371601
vt 0.752116 0.371601
vt 0.702116 0.371601
vt 0.677116 0.371601
vt 0.902116 0.652851
vt 0.652116 0.652851
vt 0.877116 0.652851
vt 0.827116 0.652851
vt 0.802116 0.652851
vt 0.752116 0.652851
vt 0.702116 0.652851
vt 0.677116 0.652851
vt 0.902116 0.610663
vt 0.652116 0.610663
vt 0.877116 0.610663
vt 0.827116 0.610663
vt 0.802116 0.610663
vt 0.752116 0.610663
vt 0.677116 0.418476
vt 0.652116 0.418476
vt 0.652116 0.371601
vt 0.677116 0.371601
vt 0.677116 0.418476
vt 0.652116 0.418476
vt 0.652116 0.371601
vt 0.677116 0.371601
vt 0.677116 0.418476
vt 0.652116 0.418476
vt 0.652116 0.371601
vt 0.677116 0.371601
vn -0.167016 0.480034 0.861205
vn -0.096292 -0.421496 0.901703
vn -0.159362 0.068092 0.984869
vn -0.170847 0.287030 0.942563
vn -0.116833 0.989292 0.087473
vn -0.149151 0.922699 0.355500
vn 0.040463 0.783690 -0.619833
vn -0.077533 0.938114 -0.337536
vn 0.193007 -0.118768 -0.973983
vn 0.165950 -0.084197 -0.982533
vn 0.065382 -0.981423 -0.180373
vn 0.266074 -0.896667 -0.353827
vn 0.126977 -0.958790 0.254161
vn 0.060851 -0.692081 0.719250
vn 0.953466 -0.260909 -0.151096
vn 0.953466 -0.260908 -0.151096
vn 0.953466 -0.260908 -0.151095
vn 0.953466 -0.260908 -0.151095
vn 0.953466 -0.260908 -0.151096
vn 0.953465 -0.260909 -0.151096
vn 0.953465 -0.260909 -0.151096
vn 0.953465 -0.260909 -0.151097
vn -0.709869 0.604575 0.361353
vn -0.721988 0.625126 0.296565
vn -0.743575 0.596601 0.301932
vn -0.754475 0.558955 0.343999
vn -0.723317 0.563720 0.398789
vn -0.686905 0.596291 0.415451
vn -0.666881 0.650239 0.363948
vn -0.691139 0.650046 0.315859
vn -0.048519 -0.980298 0.191471
vn 0.111313 -0.279301 0.953730
vn 0.073579 -0.111986 0.990982
vn -0.010404 -0.751826 0.659279
vn -0.056548 -0.974049 -0.219159
vn -0.118816 -0.987531 -0.103271
vn -0.118977 -0.299165 -0.946755
vn -0.155102 -0.109286 -0.981835
vn -0.125693 0.585609 -0.800789
vn -0.018212 0.940643 -0.338908
vn 0.068497 0.805061 0.589224
vn 0.044435 0.995151 0.087749
vn 0.083142 0.369868 0.925357
vn 0.143812 0.236530 0.960922
vn 0.019786 -0.990359 0.137104
vn 0.045263 -0.479771 0.876225
vn 0.095287 -0.841165 -0.532318
vn 0.029534 -0.001966 -0.999562
vn 0.023469 0.613889 -0.789044
vn -0.052861 0.994633 -0.088948
vn -0.059797 0.878592 0.473814
vn -0.113779 0.125491 0.985549
vn -0.113779 0.125491 0.985549
vn -0.113779 0.125491 0.985549
vn -0.113779 0.125491 0.985549
vn -0.130263 -0.912564 0.387633
vn -0.078735 -0.993321 0.084350
vn -0.159574 -0.304787 0.938957
vn 0.096717 0.142145 0.985110
vn -0.183653 -0.937953 -0.294137
vn -0.029790 -0.882065 -0.470185
vn -0.132265 -0.141718 -0.981031
vn 0.037813 -0.288755 -0.956656
vn 0.128826 0.968583 -0.212723
vn 0.052125 0.475005 -0.878438
vn 0.180932 0.929478 0.321456
vn -0.022388 0.983752 0.178131
vn 0.169858 0.606415 0.776794
vn -0.117657 0.463523 0.878239
vn -0.676653 -0.188370 -0.711799
vn -0.676653 -0.188370 -0.711799
vn -0.445508 -0.227745 -0.865826
vn -0.441005 -0.228292 -0.867985
vn -0.077810 -0.807019 0.585377
vn -0.077810 -0.807019 0.585377
vn -0.080630 -0.966635 0.243138
vn -0.081015 -0.936296 0.341740
vn 0.046385 0.061243 0.997045
vn 0.046385 0.061243 0.997045
vn 0.123217 0.059340 0.990604
vn 0.125324 0.059282 0.990343
vn -0.067165 0.804930 0.589556
vn -0.067165 0.804930 0.589556
vn -0.025840 0.914297 0.404219
vn 0.020411 0.983251 0.181108
vn -0.381270 -0.258856 -0.887483
vn -0.381871 -0.259017 -0.887178
vn -0.112966 -0.981897 -0.152044
vn -0.084458 -0.993644 -0.074414
vn 0.329025 0.041021 0.943430
vn 0.327672 0.041382 0.943885
vn 0.062513 0.997995 0.009907
vn 0.077288 0.994844 0.065664
vn -0.429856 -0.271584 -0.861084
vn -0.429856 -0.271584 -0.861084
vn -0.126124 -0.973989 -0.188250
vn -0.126124 -0.973989 -0.188250
vn 0.369399 0.030135 0.928782
vn 0.369399 0.030135 0.928782
vn 0.083234 0.992608 0.088320
vn 0.083234 0.992608 0.088320
s 1
g twig2
usemtl initialShadingGroup
f 39/58/1 33/52/2 1/8/3 2/9/4
f 38/57/5 39/58/1 2/9/4 3/10/6
f 37/56/7 38/57/5 3/10/6 4/11/8
f 36/55/9 37/56/7 4/11/8 5/12/10
f 35/54/11 36/55/9 5/12/10 6/13/12
f 34/53/13 35/54/11 6/13/12 7/14/14
f 33/51/2 34/53/13 7/14/14 1/15/3
s 2
f 1/1/15 15/31/16 2/2/17
f 2/2/17 15/31/16 3/3/18
f 3/3/18 15/31/16 4/4/19
f 4/4/19 15/31/16 5/5/20
f 5/5/20 15/31/16 6/6/21
f 6/6/21 15/31/16 7/7/22
f 7/7/22 15/31/16 1/1/15
s 3
f 16/32/23 8/30/24 9/29/25
f 16/32/23 9/29/25 10/28/26
f 16/32/23 10/28/26 11/27/27
f 16/32/23 11/27/27 12/26/28
f 16/32/23 12/26/28 13/25/29
f 16/32/23 13/25/29 14/24/30
f 16/32/23 14/24/30 8/30/24
s 1
f 18/35/31 17/33/32 47/67/33 48/69/34
f 19/36/35 18/35/31 48/69/34 49/70/36
f 20/37/37 19/36/35 49/70/36 50/71/38
f 21/38/39 20/37/37 50/71/38 51/72/40
f 24/41/41 22/39/42 21/38/39 51/72/40
f 24/41/41 25/42/43 23/40/44 22/39/42
f 17/34/32 23/40/44 25/42/43 47/68/33
f 17/33/32 18/35/31 27/45/45 26/43/46
f 18/35/31 19/36/35 28/46/47 27/45/45
f 19/36/35 20/37/37 29/47/48 28/46/47
f 20/37/37 21/38/39 30/48/49 29/47/48
f 21/38/39 22/39/42 31/49/50 30/48/49
f 22/39/42 23/40/44 32/50/51 31/49/50
f 23/40/44 17/34/32 26/44/46 32/50/51
f 26/43/46 27/45/45 34/53/13 33/51/2
f 27/45/45 28/46/47 35/54/11 34/53/13
f 28/46/47 29/47/48 36/55/9 35/54/11
f 29/47/48 30/48/49 37/56/7 36/55/9
f 30/48/49 31/49/50 38/57/5 37/56/7
f 31/49/50 32/50/51 39/58/1 38/57/5
s off
f 60/81/52 61/82/53 62/83/54 63/84/55
s 1
f 14/22/56 41/61/57 40/59/58 8/23/59
f 13/21/60 42/62/61 41/61/57 14/22/56
f 12/20/62 43/63/63 42/62/61 13/21/60
f 11/19/64 44/64/65 43/63/63 12/20/62
f 10/18/66 45/65/67 44/64/65 11/19/64
f 9/17/68 46/66/69 45/65/67 10/18/66
f 8/16/59 40/60/58 46/66/69 9/17/68
f 40/59/58 41/61/57 48/69/34 47/67/33
f 41/61/57 42/62/61 49/70/36 48/69/34
f 42/62/61 43/63/63 50/71/38 49/70/36
f 43/63/63 44/64/65 51/72/40 50/71/38
f 44/64/65 45/65/67 24/41/41 51/72/40
f 45/65/67 46/66/69 25/42/43 24/41/41
f 46/66/69 40/60/58 47/68/33 25/42/43
s 6
f 32/50/70 26/44/71 53/74/72 52/73/73
s 7
f 26/44/74 33/52/75 54/75/76 53/74/77
s 8
f 33/52/78 39/58/79 55/76/80 54/75/81
s 9
f 39/58/82 32/50/83 52/73/84 55/76/85
s 6
f 52/73/73 53/74/72 57/78/86 56/77/87
s 7
f 53/74/77 54/75/76 58/79/88 57/78/89
s 8
f 54/75/81 55/76/80 59/80/90 58/79/91
s 9
f 55/76/85 52/73/84 56/77/92 59/80/93
s 6
f 56/77/87 57/78/86 61/82/94 60/81/95
s 7
f 57/78/89 58/79/88 62/83/96 61/82/97
s 8
f 58/79/91 59/80/90 63/84/98 62/83/99
s 9
f 59/80/93 56/77/92 60/81/100 63/84/101
