# This file uses centimeters as units for non-parametric coordinates.

mtllib WallWindow.mtl
g default
v -15.892394 -10.096589 2.500000
v 15.892386 -10.096581 2.500000
v 3.985231 4.253762 2.500000
v 3.849436 6.409393 2.500000
v 3.451310 8.418123 2.500000
v 2.817983 10.143057 2.500000
v 1.992615 11.466646 2.500000
v 1.031454 12.298690 2.500000
v -0.000001 12.582484 2.500000
v -1.031443 12.298691 2.500000
v -1.992614 11.466648 2.500000
v -2.817983 10.143060 2.500000
v -3.451310 8.418125 2.500000
v -3.849437 6.409395 2.500000
v -3.985230 4.253763 2.500000
v 15.892379 21.688190 2.500000
v -15.892386 21.688190 2.500000
v -15.892386 -10.096581 -2.500000
v -15.892386 21.688190 -2.500000
v 15.892386 -10.096581 -2.500000
v 15.892386 21.688190 -2.500000
v 3.985231 4.253762 -2.500000
v 3.849436 6.409393 -2.500000
v 3.451310 8.418123 -2.500000
v 2.817983 10.143057 -2.500000
v 1.992615 11.466646 -2.500000
v 1.031454 12.298690 -2.500000
v -0.000001 12.582484 -2.500000
v -1.031443 12.298691 -2.500000
v -1.992614 11.466648 -2.500000
v -2.817983 10.143060 -2.500000
v -3.451310 8.418125 -2.500000
v -3.849437 6.409395 -2.500000
v -3.985230 4.253763 -2.500000
v -9.535446 21.688190 2.500000
v -9.535444 21.688190 -2.500000
v 10.806822 21.688192 2.500000
v 10.806823 21.688192 -2.500000
v 0.635695 21.688190 2.500000
v 0.635696 21.688190 -2.500000
v 15.892385 -0.561150 2.500000
v 15.892385 -0.561150 -2.500000
v 15.892385 6.113653 2.500000
v 15.892385 6.113653 -2.500000
v 15.892385 12.343469 2.500000
v 15.892386 12.343469 -2.500000
v -15.892387 5.795804 2.500000
v -15.892386 5.795805 -2.500000
v -15.892387 10.563520 2.500000
v -15.892385 10.563520 -2.500000
v -15.892387 1.028088 2.500000
v -15.892385 1.028089 -2.500000
vt 0.075831 0.001886
vt 0.075831 0.166173
vt 0.001992 0.166173
vt 0.001992 0.001886
vt 0.075831 0.236582
vt 0.001992 0.236582
vt 0.075831 0.306990
vt 0.001992 0.306990
vt 0.075831 0.471278
vt 0.001992 0.471278
vt 0.163950 0.333276
vt 0.237789 0.333276
vt 0.237789 0.471278
vt 0.163950 0.471278
vt 0.163950 0.241276
vt 0.237789 0.241276
vt 0.163950 0.142703
vt 0.237789 0.142703
vt 0.163950 0.001886
vt 0.237789 0.001886
vt 0.522481 0.536768
vt 0.522481 0.562241
vt 0.448641 0.562241
vt 0.448641 0.536768
vt 0.522481 0.581788
vt 0.448641 0.581788
vt 0.522481 0.507103
vt 0.448641 0.507103
vt 0.522481 0.594075
vt 0.448641 0.594075
vt 0.522481 0.475269
vt 0.448641 0.475269
vt 0.368667 0.562241
vt 0.368667 0.536768
vt 0.442506 0.536768
vt 0.442506 0.562241
vt 0.368667 0.507103
vt 0.442506 0.507103
vt 0.368667 0.581788
vt 0.442506 0.581788
vt 0.368667 0.475269
vt 0.442506 0.475269
vt 0.368667 0.594075
vt 0.442506 0.594075
vt 0.155933 0.471278
vt 0.082094 0.471278
vt 0.082094 0.001886
vt 0.155933 0.001886
vt 0.245806 0.377399
vt 0.319645 0.377399
vt 0.319645 0.471278
vt 0.245806 0.471278
vt 0.245806 0.227194
vt 0.319645 0.227194
vt 0.245806 0.076988
vt 0.319645 0.076988
vt 0.245806 0.001886
vt 0.319645 0.001886
vt 0.282557 0.549108
vt 0.267325 0.549108
vt 0.267325 0.475269
vt 0.282557 0.475269
vt 0.252093 0.549108
vt 0.252093 0.475269
vt 0.288692 0.592976
vt 0.288692 0.475269
vt 0.362532 0.475269
vt 0.362532 0.592976
vt 0.327662 0.001886
vt 0.797054 0.001886
vt 0.621211 0.213809
vt 0.503505 0.213809
vt 0.797054 0.142703
vt 0.619206 0.245643
vt 0.505510 0.245643
vt 0.327662 0.166173
vt 0.613326 0.275308
vt 0.797054 0.241276
vt 0.511390 0.275308
vt 0.327662 0.236582
vt 0.603974 0.300781
vt 0.797054 0.333276
vt 0.520743 0.300781
vt 0.327662 0.306990
vt 0.591785 0.320328
vt 0.797054 0.471278
vt 0.327662 0.471278
vt 0.532931 0.320328
vt 0.721951 0.471278
vt 0.577590 0.332615
vt 0.547126 0.332615
vt 0.421540 0.471278
vt 0.562358 0.336806
vt 0.571746 0.471278
vt 0.998008 0.944661
vt 0.528616 0.944661
vt 0.704459 0.732738
vt 0.822165 0.732738
vt 0.706464 0.700904
vt 0.528616 0.780374
vt 0.998008 0.803844
vt 0.820160 0.700904
vt 0.712344 0.671239
vt 0.528616 0.709965
vt 0.814280 0.671239
vt 0.998008 0.705271
vt 0.721696 0.645766
vt 0.528616 0.639556
vt 0.804927 0.645766
vt 0.998008 0.613270
vt 0.528616 0.475269
vt 0.733885 0.626219
vt 0.792738 0.626219
vt 0.998008 0.475269
vt 0.748080 0.613932
vt 0.622494 0.475269
vt 0.922905 0.475269
vt 0.778544 0.613932
vt 0.763312 0.609741
vt 0.772700 0.475269
vn -1.000000 0.000000 -0.000001
vn -1.000000 0.000000 -0.000001
vn -1.000000 0.000000 -0.000001
vn -1.000000 0.000000 -0.000001
vn 0.000000 -1.000000 -0.000001
vn 0.000000 -1.000000 -0.000001
vn 0.000000 -1.000000 -0.000001
vn 0.000000 -1.000000 -0.000001
vn 1.000000 0.000000 0.000001
vn 1.000000 0.000000 0.000001
vn 1.000000 0.000000 0.000001
vn 1.000000 0.000000 0.000001
vn 0.000000 1.000000 0.000000
vn 0.000000 1.000000 0.000000
vn 0.000000 1.000000 0.000000
vn 0.000000 1.000000 0.000000
vn 0.000000 0.000000 1.000000
vn 0.000000 0.000000 1.000000
vn 0.000000 0.000000 1.000000
vn 0.000000 0.000000 1.000000
vn 0.000000 0.000000 -1.000000
vn 0.000000 0.000000 -1.000000
vn 0.000000 0.000000 -1.000000
vn 0.000000 0.000000 -1.000000
vn -0.000000 1.000000 0.000000
vn -0.000000 1.000000 0.000000
vn 0.000000 1.000000 0.000000
vn 0.000000 1.000000 0.000000
vn 0.000000 1.000000 0.000000
vn -0.000000 1.000000 0.000000
vn -0.000000 0.000000 -1.000000
vn -0.000000 0.000000 -1.000000
vn -0.000000 0.000000 -1.000000
vn -0.000000 0.000000 -1.000000
vn 0.000000 0.000000 -1.000000
vn 0.000000 0.000000 -1.000000
vn 0.000000 0.000000 -1.000000
vn 0.000000 0.000000 -1.000000
vn 0.000000 0.000000 -1.000000
vn 0.000000 0.000000 -1.000000
vn 0.000000 0.000000 -1.000000
vn 0.000000 0.000000 -1.000000
vn 0.000000 0.000000 -1.000000
vn 0.000000 0.000000 -1.000000
vn 0.000000 0.000000 -1.000000
vn 0.000000 0.000000 -1.000000
vn 0.000000 0.000000 1.000000
vn 0.000000 0.000000 1.000000
vn 0.000000 0.000000 1.000000
vn 0.000000 0.000000 1.000000
vn -0.000000 0.000000 1.000000
vn -0.000000 0.000000 1.000000
vn -0.000000 0.000000 1.000000
vn -0.000000 0.000000 1.000000
vn 0.000000 0.000000 1.000000
vn 0.000000 0.000000 1.000000
vn 0.000000 0.000000 1.000000
vn 0.000000 0.000000 1.000000
vn 0.000000 0.000000 1.000000
vn 0.000000 0.000000 1.000000
vn 0.000000 0.000000 1.000000
vn 0.000000 0.000000 1.000000
vn 1.000000 0.000000 0.000000
vn 1.000000 0.000000 0.000000
vn 1.000000 0.000000 0.000000
vn 1.000000 0.000000 0.000000
vn 1.000000 0.000000 0.000000
vn 1.000000 0.000000 0.000000
vn -0.000000 0.000000 -1.000000
vn -0.000000 0.000000 -1.000000
vn -0.000000 0.000000 -1.000000
vn -0.000000 0.000000 -1.000000
vn -0.000000 0.000000 1.000000
vn -0.000000 0.000000 1.000000
vn -0.000000 0.000000 1.000000
vn -0.000000 0.000000 1.000000
vn -0.000000 0.000000 1.000000
vn -0.000000 0.000000 1.000000
vn -0.000000 0.000000 1.000000
vn -0.000000 0.000000 1.000000
vn 0.000000 0.000000 -1.000000
vn 0.000000 0.000000 -1.000000
vn 0.000000 0.000000 -1.000000
vn 0.000000 0.000000 -1.000000
vn 0.000000 0.000000 -1.000000
vn 0.000000 0.000000 -1.000000
vn 0.000000 0.000000 -1.000000
vn 0.000000 0.000000 -1.000000
vn -0.000000 0.000000 1.000000
vn -0.000000 0.000000 1.000000
vn -0.000000 0.000000 1.000000
vn -0.000000 0.000000 1.000000
vn -0.000000 0.000000 1.000000
vn -0.000000 0.000000 1.000000
vn -0.000000 0.000000 1.000000
vn -0.000000 0.000000 1.000000
vn 0.000000 0.000000 -1.000000
vn 0.000000 0.000000 -1.000000
vn 0.000000 0.000000 -1.000000
vn 0.000000 0.000000 -1.000000
vn -1.000000 0.000000 -0.000000
vn -1.000000 0.000000 -0.000000
vn -1.000000 0.000000 -0.000000
vn -1.000000 0.000000 -0.000000
vn -1.000000 0.000000 -0.000000
vn -1.000000 0.000000 -0.000000
vn 0.000000 0.000000 1.000000
vn 0.000000 0.000000 1.000000
vn 0.000000 0.000000 1.000000
vn 0.000000 0.000000 1.000000
vn -0.000000 0.000000 1.000000
vn -0.000000 0.000000 1.000000
vn -0.000000 0.000000 1.000000
vn -0.000000 0.000000 1.000000
vn -0.000000 0.000000 1.000000
vn -0.000000 0.000000 1.000000
vn -0.000000 0.000000 1.000000
vn -0.000000 0.000000 1.000000
vn 0.000000 0.000000 1.000000
vn 0.000000 0.000000 1.000000
vn 0.000000 0.000000 1.000000
vn 0.000000 0.000000 1.000000
vn 0.000000 0.000000 -1.000000
vn 0.000000 0.000000 -1.000000
vn 0.000000 0.000000 -1.000000
vn 0.000000 0.000000 -1.000000
vn 0.000000 0.000000 -1.000000
vn 0.000000 0.000000 -1.000000
vn 0.000000 0.000000 -1.000000
vn 0.000000 0.000000 -1.000000
vn 0.000000 0.000000 -1.000000
vn 0.000000 0.000000 -1.000000
vn 0.000000 0.000000 -1.000000
vn 0.000000 0.000000 -1.000000
vn 0.000000 0.000000 -1.000000
vn 0.000000 0.000000 -1.000000
vn 0.000000 0.000000 -1.000000
vn 0.000000 0.000000 -1.000000
vn -0.938726 -0.344663 0.000000
vn -0.938726 -0.344663 0.000000
vn -0.938726 -0.344663 0.000000
vn -0.938726 -0.344663 0.000000
vn -0.848538 -0.529134 0.000000
vn -0.848538 -0.529134 0.000000
vn -0.848538 -0.529134 0.000000
vn -0.848538 -0.529134 0.000000
vn -0.654498 -0.756064 0.000000
vn -0.654498 -0.756064 0.000000
vn -0.654498 -0.756064 0.000000
vn -0.654498 -0.756064 0.000000
vn -0.265282 -0.964171 0.000000
vn -0.265282 -0.964171 0.000000
vn -0.265282 -0.964171 0.000000
vn -0.265282 -0.964171 0.000000
vn 0.265284 -0.964170 0.000000
vn 0.265284 -0.964170 0.000000
vn 0.265284 -0.964170 0.000000
vn 0.265284 -0.964170 0.000000
vn 0.654493 -0.756068 0.000000
vn 0.654493 -0.756068 0.000000
vn 0.654493 -0.756068 0.000000
vn 0.654493 -0.756068 0.000000
vn 0.848538 -0.529135 0.000000
vn 0.848538 -0.529135 0.000000
vn 0.848538 -0.529135 0.000000
vn 0.848538 -0.529135 0.000000
vn 0.938727 -0.344663 0.000000
vn 0.938727 -0.344663 0.000000
vn 0.938727 -0.344663 0.000000
vn 0.938727 -0.344663 0.000000
vn 0.980919 -0.194416 0.000000
vn 0.980919 -0.194416 0.000000
vn 0.980919 -0.194416 0.000000
vn 0.980919 -0.194416 0.000000
vn 0.998022 -0.062870 0.000000
vn 0.998022 -0.062870 0.000000
vn 0.998022 -0.062870 0.000000
vn 0.998022 -0.062870 0.000000
vn 0.000000 1.000000 0.000000
vn 0.000000 1.000000 0.000000
vn 0.000000 1.000000 0.000000
vn 0.000000 1.000000 0.000000
vn -0.998022 -0.062871 0.000000
vn -0.998022 -0.062871 0.000000
vn -0.998022 -0.062871 0.000000
vn -0.998022 -0.062871 0.000000
vn -0.980919 -0.194416 0.000000
vn -0.980919 -0.194416 0.000000
vn -0.980919 -0.194416 0.000000
vn -0.980919 -0.194416 0.000000
s 1
g wallWindow
usemtl initialShadingGroup
f 1/1/1 51/2/2 52/3/3 18/4/4
s off
f 1/45/5 18/46/6 20/47/7 2/48/8
s 2
f 45/11/9 46/12/10 21/13/11 16/14/12
s 3
f 35/49/13 36/50/14 19/51/15 17/52/16
s off
f 1/69/17 2/70/18 3/71/19 15/72/20
f 20/95/21 18/96/22 34/97/23 22/98/24
s 3
f 39/53/25 40/54/26 36/50/14 35/49/13
f 16/57/27 21/58/28 38/56/29 37/55/30
f 37/55/30 38/56/29 40/54/26 39/53/25
s off
f 27/118/31 28/119/32 40/120/33 38/117/34
f 28/119/35 29/115/36 36/116/37 40/120/38
f 29/115/39 30/112/40 19/111/41 36/116/42
f 38/117/43 21/114/44 26/113/45 27/118/46
f 10/91/47 9/93/48 39/94/49 35/92/50
f 9/93/51 8/90/52 37/89/53 39/94/54
f 16/86/55 37/89/56 8/90/57 7/85/58
f 11/88/59 10/91/60 35/92/61 17/87/62
s 2
f 2/19/63 20/20/64 42/18/65 41/17/66
f 41/17/66 42/18/65 44/16/67 43/15/68
f 43/15/68 44/16/67 46/12/10 45/11/9
s off
f 25/109/69 26/113/70 21/114/71 46/110/72
f 7/85/73 6/81/74 45/82/75 16/86/76
f 6/81/77 5/77/78 43/78/79 45/82/80
f 24/105/81 25/109/82 46/110/83 44/106/84
f 23/102/85 24/105/86 44/106/87 42/101/88
f 5/77/89 4/74/90 41/73/91 43/78/92
f 2/70/93 41/73/94 4/74/95 3/71/96
f 42/101/97 20/95/98 22/98/99 23/102/100
s 1
f 48/6/101 47/5/102 49/7/103 50/8/104
f 50/8/104 49/7/103 17/9/105 19/10/106
f 52/3/3 51/2/2 47/5/102 48/6/101
s off
f 17/87/107 49/84/108 12/83/109 11/88/110
f 13/79/111 12/83/112 49/84/113 47/80/114
f 14/75/115 13/79/116 47/80/117 51/76/118
f 15/72/119 14/75/120 51/76/121 1/69/122
f 50/108/123 19/111/124 30/112/125 31/107/126
f 31/107/127 32/103/128 48/104/129 50/108/130
f 32/103/131 33/99/132 52/100/133 48/104/134
f 33/99/135 34/97/136 18/96/137 52/100/138
f 5/21/139 6/22/140 25/23/141 24/24/142
f 6/22/143 7/25/144 26/26/145 25/23/146
f 7/25/147 8/29/148 27/30/149 26/26/150
f 8/59/151 9/60/152 28/61/153 27/62/154
f 9/60/155 10/63/156 29/64/157 28/61/158
f 10/43/159 11/39/160 30/40/161 29/44/162
f 11/39/163 12/33/164 31/36/165 30/40/166
f 12/33/167 13/34/168 32/35/169 31/36/170
f 13/34/171 14/37/172 33/38/173 32/35/174
f 14/37/175 15/41/176 34/42/177 33/38/178
f 15/65/179 3/66/180 22/67/181 34/68/182
f 3/31/183 4/27/184 23/28/185 22/32/186
f 4/27/187 5/21/188 24/24/189 23/28/190
